<svg  viewBox="0 0 68 109" xmlns="http://www.w3.org/2000/svg">
<path d="M64.5535 0.19009C64.8308 0.377491 65.1167 0.863029 65.3507 1.52745C65.3854 1.63819 65.4807 1.66374 65.7926 1.62967C66.5032 1.54449 67.2484 2.16632 67.491 3.04369C67.595 3.43553 67.543 3.85292 67.309 4.38957L67.1531 4.75585L67.543 5.11362C68.0109 5.55657 68.1062 5.93137 67.8896 6.49357C67.7509 6.84282 67.2224 7.41354 66.0959 8.41017C65.7493 8.70831 65.68 8.83608 65.5933 9.25347C65.4547 9.95196 65.1167 10.4631 64.0682 11.5704C62.8378 12.8737 62.7945 12.9589 62.7251 14.3559L62.6732 15.4718L62.2312 16.3577L61.7893 17.2521L61.7373 18.8194C61.486 25.4466 60.2729 31.239 57.9333 36.878C57.4481 38.045 56.4429 40.2002 56.0963 40.822C55.9923 41.0179 55.4204 42.0742 54.8398 43.173C52.7515 47.1084 51.3998 49.3658 50.7845 49.945C50.5332 50.1835 50.5159 50.2346 50.5939 50.4987C50.7325 51.0012 51.0965 53.2075 51.2438 54.4171C51.4431 56.0355 51.5037 59.0424 51.3824 60.5928C51.1918 62.8416 50.7499 64.9626 50.1086 66.6577C49.5541 68.1399 47.9077 71.3002 47.3011 72.0583L47.0585 72.3564L47.1885 73.3786C47.2925 74.1963 47.3011 74.7926 47.2491 76.4366C47.2058 77.561 47.1798 79.0773 47.1798 79.8013C47.1798 81.1046 47.1885 81.1472 47.6737 83.1234C49.3201 89.938 50.4206 97.7151 50.4206 102.639V103.797L50.7845 103.899C51.8157 104.198 52.9682 105.1 53.4187 105.961C53.722 106.549 53.748 107.273 53.4794 107.784C53.2541 108.218 52.5089 108.908 52.1883 108.985C52.0496 109.019 51.729 108.993 51.4604 108.934C50.9405 108.814 50.9145 108.814 50.074 108.9C49.6754 108.934 49.4241 108.917 49.2075 108.831C48.9562 108.729 48.8609 108.729 48.5576 108.831C47.2838 109.266 45.5421 108.278 44.7362 106.668L44.3983 106.003L44.4243 104.053C44.4503 101.915 44.4156 101.616 43.8697 99.1803C43.7051 98.4307 43.5491 97.7662 43.5231 97.7066C43.4971 97.6214 43.3931 97.664 43.1678 97.8599C42.7866 98.1922 42.31 98.3966 41.2615 98.6862C40.577 98.8736 40.473 98.9247 40.5943 99.0099C40.7936 99.1547 40.7069 99.2569 40.2217 99.4358C39.4591 99.7169 38.0641 100.449 38.22 100.484C38.454 100.526 38.4107 100.628 38.09 100.773C37.9341 100.85 37.4142 101.225 36.9376 101.608C36.4697 101.991 36.0277 102.332 35.9671 102.349C35.6725 102.468 35.9497 102.545 36.669 102.545C37.7954 102.545 38.402 102.673 39.1905 103.082C40.2563 103.644 40.8456 104.351 41.0189 105.279C41.1575 106.003 40.5423 106.957 39.8144 107.153C39.4158 107.264 38.5406 107.204 37.9341 107.043C37.6828 106.966 37.1022 106.94 36.2357 106.957L34.9186 106.983L34.754 107.341C34.572 107.75 34.1127 108.227 33.8094 108.346C33.6968 108.388 33.2289 108.423 32.787 108.423C32.1371 108.423 31.9031 108.457 31.6345 108.593C31.0453 108.891 29.9881 108.976 28.4804 108.848C27.5445 108.772 24.607 108.721 18.5327 108.678C9.45164 108.618 9.79824 108.627 7.20736 108.21C6.73944 108.133 6.19353 107.988 5.99423 107.894C5.2317 107.545 4.49516 106.404 3.58531 104.163C3.2647 103.388 2.96142 102.732 2.90943 102.698C2.84877 102.664 2.68413 102.63 2.54549 102.63C2.01692 102.622 1.9216 102.553 1.7223 102.008C1.60965 101.719 1.21972 100.824 0.847116 100.032C0.0585851 98.337 -0.0627274 97.8344 0.0239243 96.5141C0.0759154 95.5771 0.275214 94.5208 0.682478 92.9109L0.942433 91.9142L0.751799 91.2498C0.474514 90.2191 0.509174 89.7762 1.02042 88.0384C1.26304 87.2037 1.67897 85.8833 1.93893 85.0997C2.48483 83.4471 2.4935 83.4301 4.85909 80.3124C6.52281 78.1062 7.77926 76.3685 8.44648 75.3293C9.261 74.0856 9.95422 72.5694 9.95422 72.0668C9.95422 71.9475 10.1535 71.5642 10.3961 71.2065C11.488 69.6221 12.7444 67.9525 13.4983 67.0751C15.006 65.3374 19.5986 60.9676 20.2831 60.6268C20.725 60.4054 21.8515 59.3406 22.6747 58.378C23.03 57.9521 23.6972 57.2451 24.1564 56.8022C24.8843 56.0951 25.0143 55.9163 25.2309 55.3796C25.5429 54.6045 25.7422 54.3574 26.1494 54.2467C26.6347 54.1189 26.8946 53.8804 27.1979 53.2841C27.6312 52.4068 27.7438 51.359 27.5099 50.4135C27.3019 49.5787 26.3834 47.4917 24.5984 43.8119C23.2553 41.0435 22.2674 38.5221 22.0855 37.3806C21.9728 36.6821 21.9728 34.1437 22.0855 32.9086C22.1288 32.3889 22.2068 31.3668 22.2588 30.6342C22.3541 29.3394 22.3454 29.2798 22.1375 28.5046C21.5396 26.2814 21.5656 24.0581 22.1894 23.6237C22.4841 23.4278 23.0386 23.4619 23.5239 23.7174C24.3991 24.1689 25.6555 25.2507 26.522 26.2814L26.7473 26.554L27.2759 26.0344C27.6485 25.6681 27.8045 25.4466 27.8045 25.2933C27.8045 25.0718 27.8478 24.8333 28.2811 22.9422C28.411 22.38 28.5584 21.443 28.6277 20.8723C28.749 19.7394 28.8443 19.5094 29.1822 19.6201C29.2862 19.6457 29.4422 19.8161 29.5289 19.9864C29.7282 20.3783 30.3174 23.7174 30.3174 24.484V25.0292H30.69C30.8893 25.0292 31.7818 24.9696 32.657 24.8929C34.338 24.7566 35.1959 24.7822 36.0711 25.0037C36.7556 25.1655 37.0849 25.3444 37.9514 25.9918C39.4331 27.0906 39.6671 27.1673 41.4781 27.0991C42.5959 27.0651 42.7866 27.0821 43.0552 27.2184C43.4625 27.4313 43.6358 27.7636 43.7397 28.5557C43.7917 29.0242 43.8784 29.2968 44.0084 29.4502C44.1037 29.5694 44.303 29.9101 44.4503 30.1998C44.7709 30.8471 44.8056 31.5627 44.5543 32.2271C44.407 32.6019 44.407 32.6871 44.5109 32.9937C44.5716 33.1811 44.6149 33.4793 44.5976 33.6496C44.5803 33.8285 44.5803 33.9733 44.5976 33.9733C44.6063 33.9733 44.8576 33.8541 45.1522 33.7093C45.4468 33.5645 46.296 33.1982 47.0325 32.8915C49.7534 31.7756 50.1953 31.4519 50.8972 30.0209C51.7204 28.3428 52.2143 26.7584 53.1588 22.7804C54.0686 18.9216 54.3806 17.9676 55.5764 15.4462C56.7635 12.9419 57.0235 12.2434 57.1361 11.2127C57.2054 10.5908 57.3787 10.2245 57.9853 9.39828C58.6785 8.4698 58.7305 8.2398 58.7392 6.24654C58.7392 4.6366 58.7565 4.51734 58.9471 4.10847C59.0598 3.86996 59.3024 3.55479 59.4844 3.40998C59.8656 3.0948 60.5069 2.88185 60.8361 2.94147C61.0181 2.97555 61.0701 2.94147 61.1134 2.74555C61.2174 2.3452 61.7027 1.783 62.2399 1.42523C62.5345 1.23783 62.8811 0.90562 63.0371 0.684146C63.5137 -0.0143472 64.0076 -0.176193 64.5535 0.19009Z" fill="#0070F0"/>
</svg>
