<svg width="345" height="351" viewBox="0 0 345 351" fill="none" xmlns="http://www.w3.org/2000/svg">
<path d="M124.59 0.516121C121.387 2.14838 119.157 6.93062 117.355 15.951C116.297 21.306 115.668 25.7159 114.067 38.7454C112.523 51.6889 112.466 52.1184 112.265 51.918C112.18 51.8321 111.894 52.0898 111.636 52.4621L111.179 53.178L100.77 48.7394C64.5125 33.2759 49.7577 28.15 45.0396 29.4386C42.8092 30.04 42.2945 31.7868 43.2095 35.9677C43.4669 37.1704 43.6956 38.459 43.6956 38.8026C43.7242 39.1176 43.8386 39.3467 43.9816 39.2608C44.096 39.1749 44.1246 39.3467 44.0388 39.6617C43.7242 40.664 47.5559 50.8585 48.1278 50.5148C48.2136 50.4289 49.2716 52.548 50.444 55.1539C53.2462 61.4825 59.3369 73.6528 61.8818 78.1201C65.5705 84.5346 71.0607 92.4954 71.5182 92.0372C71.604 91.98 70.403 89.8036 68.8589 87.2264C65.5705 81.6996 61.8532 74.5692 60.0517 70.3883C57.2209 63.6874 54.7046 55.0966 53.7037 48.6535C53.2462 45.5608 53.2462 45.389 53.7323 44.5012C55.4766 41.4658 58.2789 40.664 61.9676 42.2103C67.0574 44.3294 89.2182 55.4402 96.4813 59.5066C105.088 64.3174 107.719 66.322 108.806 68.8706C109.349 70.1306 109.349 70.2738 108.92 71.7915C107.118 78.0628 104.917 81.7282 100.113 86.31C96.5099 89.7463 92.5924 92.6099 78.1807 102.346C66.4283 110.307 61.8818 113.514 56.1629 117.867C42.2659 128.462 34.3166 137.311 29.141 147.849C24.6516 156.984 23.1933 164.114 22.7072 179.349C22.2497 193.008 21.5062 198.735 19.1329 206.754C16.0447 217.206 11.6697 226.942 6.23672 235.504C0.632175 244.353 -0.0540955 245.985 0.00309366 250.223C0.0316883 252.113 0.23185 253.488 0.632175 254.719C0.946715 255.721 1.08969 256.466 0.97531 256.38C0.489202 256.094 1.91893 259.759 3.37726 262.651C5.72201 267.262 9.95401 273.247 12.5847 275.738C13.2138 276.311 14.7865 277.628 16.0733 278.688C18.418 280.52 19.4474 281.093 18.6754 280.062C18.3608 279.661 18.3894 279.69 18.9327 280.119C19.5904 280.692 19.7906 281.036 19.2187 280.692C19.0185 280.578 18.9899 280.606 19.1043 280.807C19.2187 281.007 19.5904 281.293 19.9335 281.494C20.534 281.809 20.534 281.78 20.1337 281.293C19.7334 280.778 19.762 280.778 20.4482 281.293C20.8771 281.608 21.1631 281.952 21.1059 282.038C21.0487 282.124 21.1631 282.21 21.3633 282.21C21.5634 282.21 22.5928 282.725 23.6508 283.384C24.7088 284.014 27.4253 285.274 29.6557 286.162C34.6597 288.195 35.8321 288.939 40.8648 293.263C45.2683 297.043 45.6687 297.387 45.011 297.043C44.725 296.872 44.7822 297.043 45.154 297.502C48.957 302.169 56.4488 305.72 64.4553 306.694C67.6293 307.066 73.3482 306.837 75.6072 306.236L77.1799 305.835L75.0353 305.749C73.4912 305.72 74.0917 305.634 77.1799 305.462C85.5009 305.061 97.0817 303.143 105.746 300.766C109.663 299.707 110.378 299.563 108.777 300.222C108.148 300.48 108.033 300.566 108.491 300.48C108.891 300.422 110.378 300.251 111.779 300.165C115.182 299.907 117.841 300.394 120.587 301.711C121.759 302.284 122.674 302.656 122.588 302.484C122.159 301.74 123.189 303.028 125.419 306.064C129.479 311.562 134.655 319.15 144.978 334.671C154.986 349.734 156.072 351.28 156.416 350.965C156.759 350.593 155.615 347.844 152.555 341.63C145.635 327.655 137.114 313.566 128.564 301.94L125.419 297.673L126.248 296.299C127.249 294.695 128.707 293.349 130.966 291.889C133.511 290.257 137.086 287.422 136.943 287.164C136.857 287.021 136.943 286.82 137.114 286.706C137.343 286.563 137.372 286.62 137.229 286.878C137.057 287.164 137.114 287.221 137.543 287.049C141.003 285.646 146.522 285.532 149.095 286.82L150.296 287.393L149.753 286.792C149.467 286.477 149.982 286.763 150.897 287.422C152.698 288.796 153.184 289.426 151.469 288.166L150.382 287.422L151.269 288.223C151.755 288.653 155.358 291.717 159.275 295.039C165.451 300.279 169.169 303.458 172.4 306.321C172.886 306.722 175.259 308.813 177.69 310.932C180.12 313.051 182.58 315.199 183.123 315.685C187.984 320.067 196.391 327.111 196.648 327.025C196.763 326.997 200.651 330.49 205.284 334.814C219.209 347.815 222.869 350.994 222.869 350.077C222.869 347.958 203.311 325.994 190.357 313.652C176.003 299.907 166.309 291.975 151.583 281.866L147.094 278.773L149.467 276.168C153.099 272.187 153.985 270.841 153.041 270.841C152.841 270.841 150.697 272.13 148.295 273.705C145.893 275.28 143.805 276.569 143.691 276.569C143.548 276.569 141.661 275.48 139.488 274.192C127.907 267.204 110.979 258.671 111.408 260.017C111.608 260.618 114.01 262.336 120.644 266.632C129.937 272.617 137.886 277.943 138.115 278.315C138.229 278.516 138.201 278.573 138.029 278.487C137.6 278.229 136.714 279.661 136.885 280.291C137.057 280.978 132.939 283.441 125.076 287.364L119.243 290.314L117.384 288.223C110.378 280.434 100.885 271.758 100.542 272.846C100.37 273.361 102 275.624 108.033 283.298C113.581 290.342 114.81 292.032 113.867 291.23C113.495 290.915 113.381 291.001 113.209 291.66C113.066 292.118 112.98 292.547 113.009 292.633C113.066 292.92 107.633 295.125 103.487 296.471C95.3661 299.162 89.3326 300.308 82.184 300.537C75.2641 300.766 70.2314 300.136 63.1686 298.132C46.841 293.521 22.2497 279.174 18.7897 272.216C18.2179 271.099 18.1893 270.755 18.418 269.381C18.9327 266.231 19.8191 264.226 24.3085 256.151C27.7399 250.023 29.1696 246.93 29.3983 245.269C29.4555 244.754 29.8273 243.207 30.1704 241.833C30.7709 239.513 30.7995 239.198 30.3991 238.11C30.1704 237.48 29.6557 236.707 29.2268 236.392C28.1402 235.562 25.1091 235.447 20.0479 236.048C16.1876 236.478 13.3568 236.449 13.6713 235.962C13.7285 235.848 13.5855 235.504 13.3568 235.189C12.9279 234.617 12.9279 234.617 13.0708 235.275C13.1566 235.619 13.0994 235.848 12.9564 235.733C12.3274 235.361 12.7277 233.099 13.8715 230.751C15.4156 227.543 18.7611 222.16 19.1043 222.36C19.2473 222.475 19.2759 222.418 19.1901 222.246C19.0757 222.074 19.2187 221.702 19.4474 221.415C19.7048 221.129 19.7906 221.043 19.6762 221.272C19.5332 221.558 19.5904 221.616 19.8191 221.473C20.0193 221.329 20.1051 221.072 20.0193 220.843C19.9335 220.613 19.9907 220.47 20.1051 220.528C20.7342 220.699 24.5373 214.8 26.9964 209.846C28.8836 206.124 30.7709 201.198 30.8281 200.053C30.8281 199.595 30.9139 199.251 30.9996 199.251C31.0854 199.251 31.1426 198.965 31.1712 198.592C31.1712 198.249 31.4286 196.931 31.7145 195.671C32.0862 194.039 32.2292 192.235 32.2292 189.371C32.2292 184.933 31.9433 182.9 30.1418 175.311C29.5127 172.648 28.8264 169.212 28.6549 167.665C28.0544 162.683 29.0266 157.929 31.7431 152.459C33.4588 149.023 37.2333 143.353 37.6336 143.582C37.8051 143.697 37.8623 143.668 37.7766 143.496C37.6622 143.325 37.8051 142.952 38.0339 142.666C38.2913 142.38 38.377 142.294 38.2627 142.523C38.1197 142.78 38.1769 142.866 38.4056 142.723C38.5772 142.609 38.663 142.408 38.5772 142.265C38.4914 142.15 38.663 141.807 38.9489 141.492C39.2063 141.205 39.3207 141.148 39.1491 141.406C38.8917 141.778 38.9203 141.778 39.3493 141.463C39.6066 141.234 39.7782 140.919 39.6924 140.719C39.6066 140.518 39.7782 140.175 40.0641 139.945C40.5502 139.573 40.5502 139.573 40.1499 140.117C39.7496 140.661 39.7496 140.661 40.2071 140.289C40.493 140.089 40.6646 139.802 40.5788 139.688C40.493 139.545 40.7218 139.144 41.0649 138.771C41.4939 138.313 41.5796 138.285 41.2937 138.686C40.8648 139.258 40.8648 139.258 41.4939 138.743C41.837 138.428 42.0657 138.056 41.98 137.855C41.8942 137.655 42.1515 137.254 42.4947 136.939C43.1523 136.395 43.1523 136.395 42.7234 136.967C42.3231 137.483 42.3231 137.511 42.7806 137.139C43.0666 136.939 43.2095 136.652 43.1523 136.509C42.7234 135.851 56.3059 121.876 61.8818 117.18C70.8033 109.677 79.1529 104.15 88.5034 99.4826C93.393 97.0486 95.1945 96.2754 94.9086 96.7336C94.6512 97.1345 97.1675 97.0772 99.1977 96.619C100.141 96.4186 102.915 95.7027 105.346 95.0727C111.636 93.3831 116.555 92.5527 126.506 91.4072C136.085 90.3191 140.46 89.6318 144.377 88.5723C151.726 86.5677 157.102 83.3605 160.047 79.2082C161.448 77.2323 162.621 74.7696 162.363 74.3687C162.277 74.2255 162.335 74.111 162.478 74.111C162.649 74.111 162.735 73.9392 162.735 73.7387C162.706 73.5669 162.935 72.4215 163.221 71.2474C165.023 63.8306 162.449 51.918 156.616 40.9217C155.072 37.9722 154.271 36.6263 151.383 32.0159C150.554 30.67 150.068 29.7536 150.325 29.9541C150.611 30.2118 150.811 30.2404 150.954 30.0113C151.269 29.4959 153.184 29.6963 154.671 30.4123C156.072 31.0709 160.505 33.9631 163.822 36.3972C166.052 38.0295 172.429 42.6685 176.861 45.8758C242.857 93.7268 266.733 113.801 287.35 138.829C293.241 145.959 299.732 154.464 309.597 167.98C311.455 170.529 313.085 172.562 313.228 172.476C313.371 172.39 313.571 172.476 313.686 172.648C313.8 172.877 313.772 172.906 313.571 172.791C313.057 172.476 313.171 172.877 313.829 173.793C314.143 174.252 314.515 174.567 314.658 174.481C314.801 174.395 315.001 174.481 315.116 174.652C315.23 174.882 315.201 174.91 315.001 174.796C314.486 174.481 314.601 175.082 315.144 175.512C315.544 175.855 315.602 175.855 315.373 175.512C315.23 175.254 315.259 175.168 315.459 175.311C315.63 175.426 315.716 175.683 315.63 175.884C315.544 176.084 315.716 176.428 316.002 176.657C316.459 177.001 316.488 177.001 316.231 176.628C316.088 176.371 316.231 176.514 316.574 176.915C316.946 177.316 317.203 177.831 317.146 178.06C317.117 178.289 317.232 178.49 317.403 178.49C317.575 178.49 319.576 181.067 321.807 184.217C330.442 196.301 335.218 202.258 335.446 201.227C335.675 200.225 332.472 193.696 327.297 184.647C305.536 146.646 273.625 108.217 239.168 78.521C223.699 65.2052 208.772 54.0371 171.256 27.8064C161.362 20.8764 149.953 12.8583 145.95 9.96605C134.941 2.09111 131.567 0.22976 127.792 0.0293067C126.162 -0.0566017 125.562 0.0293067 124.59 0.516121ZM153.413 289.369C153.785 289.827 153.756 289.856 153.327 289.483C153.041 289.283 152.813 289.054 152.813 288.997C152.813 288.768 153.041 288.911 153.413 289.369ZM155.987 291.373C156.358 291.832 156.33 291.86 155.901 291.488C155.615 291.287 155.386 291.058 155.386 291.001C155.386 290.772 155.615 290.915 155.987 291.373ZM191.129 321.67C191.501 322.071 191.73 322.386 191.644 322.386C191.587 322.386 191.215 322.071 190.843 321.67C190.472 321.27 190.243 320.955 190.329 320.955C190.386 320.955 190.758 321.27 191.129 321.67ZM194.99 325.25C195.933 326.195 196.62 326.968 196.534 326.968C196.477 326.968 195.647 326.195 194.704 325.25C193.76 324.305 193.074 323.532 193.16 323.532C193.217 323.532 194.046 324.305 194.99 325.25Z" fill="#0077FF" fill-opacity="0.79"/>
<path d="M112.924 248.39C113.724 249.049 116.012 250.08 123.532 253.172C131.281 256.38 137.829 259.415 143.434 262.422C149.01 265.4 155.387 269.18 155.244 269.438C155.158 269.552 155.329 269.609 155.615 269.581C155.873 269.581 156.073 269.695 156.044 269.896C155.987 270.096 156.13 270.182 156.359 270.096C156.587 270.01 156.845 270.096 156.988 270.297C157.131 270.526 157.074 270.583 156.816 270.411C156.587 270.268 156.502 270.297 156.645 270.497C156.759 270.669 157.045 270.726 157.302 270.64C157.645 270.497 157.703 270.554 157.531 270.841C157.388 271.099 157.417 271.156 157.617 271.013C158.189 270.669 168.654 277.742 186.812 290.686C197.506 298.332 202.997 302.054 203.483 302.054C205.027 302.054 194.647 292.375 183.409 283.326C164.365 268.006 147.866 258.499 129.137 252.113C123.16 250.08 115.068 247.932 113.41 247.932C112.38 247.961 112.38 247.961 112.924 248.39Z" fill="#0070F0"/>
<path d="M133.831 0.516121C130.628 2.14838 128.398 6.93062 126.597 15.951C125.539 21.306 124.909 25.7159 123.308 38.7454C121.764 51.6889 121.707 52.1184 121.507 51.918C121.421 51.8321 121.135 52.0898 120.878 52.4621L120.42 53.178L110.012 48.7394C73.7537 33.2759 58.9989 28.15 54.2808 29.4386C52.0504 30.04 51.5357 31.7868 52.4507 35.9677C52.7081 37.1704 52.9368 38.459 52.9368 38.8026C52.9654 39.1176 53.0798 39.3467 53.2228 39.2608C53.3372 39.1749 53.3658 39.3467 53.28 39.6617C52.9654 40.664 56.7971 50.8585 57.369 50.5148C57.4548 50.4289 58.5128 52.548 59.6852 55.1539C62.4874 61.4825 68.5781 73.6528 71.123 78.1201C74.8117 84.5346 80.3019 92.4954 80.7594 92.0372C80.8452 91.98 79.6442 89.8036 78.1001 87.2264C74.8117 81.6996 71.0944 74.5692 69.293 70.3883C66.4621 63.6874 63.9458 55.0966 62.945 48.6535C62.4874 45.5608 62.4874 45.389 62.9736 44.5012C64.7178 41.4658 67.5201 40.664 71.2088 42.2103C76.2986 44.3294 98.4594 55.4402 105.722 59.5066C114.329 64.3174 116.96 66.322 118.047 68.8706C118.59 70.1306 118.59 70.2738 118.161 71.7915C116.36 78.0628 114.158 81.7282 109.354 86.31C105.751 89.7463 101.834 92.6099 87.4219 102.346C75.6696 110.307 71.123 113.514 65.4041 117.867C51.5071 128.462 43.5578 137.311 38.3822 147.849C33.8928 156.984 32.4345 164.114 31.9484 179.349C31.4909 193.008 30.7474 198.735 28.3741 206.754C25.2859 217.206 20.9109 226.942 15.4779 235.504C9.87339 244.353 9.18712 245.985 9.2443 250.223C9.2729 252.113 9.47306 253.488 9.87339 254.719C10.1879 255.721 10.3309 256.466 10.2165 256.38C9.73041 256.094 11.1601 259.759 12.6185 262.651C14.9632 267.262 19.1952 273.247 21.8259 275.738C22.455 276.311 24.0277 277.628 25.3145 278.688C27.6592 280.52 28.6886 281.093 27.9166 280.062C27.602 279.661 27.6306 279.69 28.1739 280.119C28.8316 280.692 29.0318 281.036 28.4599 280.692C28.2597 280.578 28.2311 280.606 28.3455 280.807C28.4599 281.007 28.8316 281.293 29.1747 281.494C29.7752 281.809 29.7752 281.78 29.3749 281.293C28.9746 280.778 29.0032 280.778 29.6894 281.293C30.1184 281.608 30.4043 281.952 30.3471 282.038C30.2899 282.124 30.4043 282.21 30.6045 282.21C30.8046 282.21 31.834 282.725 32.892 283.384C33.95 284.014 36.6665 285.274 38.8969 286.162C43.901 288.195 45.0733 288.939 50.106 293.263C54.5095 297.043 54.9099 297.387 54.2522 297.043C53.9663 296.872 54.0234 297.043 54.3952 297.502C58.1983 302.169 65.69 305.72 73.6965 306.694C76.8705 307.066 82.5894 306.837 84.8484 306.236L86.4211 305.835L84.2765 305.749C82.7324 305.72 83.3329 305.634 86.4211 305.462C94.7421 305.061 106.323 303.143 114.987 300.766C118.905 299.707 119.619 299.563 118.018 300.222C117.389 300.48 117.275 300.566 117.732 300.48C118.133 300.422 119.619 300.251 121.021 300.165C124.423 299.907 127.083 300.394 129.828 301.711C131 302.284 131.915 302.656 131.829 302.484C131.4 301.74 132.43 303.028 134.66 306.064C138.721 311.562 143.896 319.15 154.219 334.671C164.227 349.734 165.314 351.28 165.657 350.965C166 350.593 164.856 347.844 161.796 341.63C154.877 327.655 146.355 313.566 137.806 301.94L134.66 297.673L135.489 296.299C136.49 294.695 137.949 293.349 140.208 291.889C142.752 290.257 146.327 287.422 146.184 287.164C146.098 287.021 146.184 286.82 146.355 286.706C146.584 286.563 146.613 286.62 146.47 286.878C146.298 287.164 146.355 287.221 146.784 287.049C150.244 285.646 155.763 285.532 158.337 286.82L159.538 287.393L158.994 286.792C158.708 286.477 159.223 286.763 160.138 287.422C161.939 288.796 162.426 289.426 160.71 288.166L159.623 287.422L160.51 288.223C160.996 288.653 164.599 291.717 168.516 295.039C174.693 300.279 178.41 303.458 181.641 306.321C182.127 306.722 184.501 308.813 186.931 310.932C189.362 313.051 191.821 315.199 192.364 315.685C197.225 320.067 205.632 327.111 205.889 327.025C206.004 326.997 209.893 330.49 214.525 334.814C228.45 347.815 232.111 350.994 232.111 350.077C232.111 347.958 212.552 325.994 199.599 313.652C185.244 299.907 175.55 291.975 160.824 281.866L156.335 278.773L158.708 276.168C162.34 272.187 163.226 270.841 162.283 270.841C162.082 270.841 159.938 272.13 157.536 273.705C155.134 275.28 153.047 276.569 152.932 276.569C152.789 276.569 150.902 275.48 148.729 274.192C137.148 267.204 120.22 258.671 120.649 260.017C120.849 260.618 123.251 262.336 129.885 266.632C139.178 272.617 147.127 277.943 147.356 278.315C147.471 278.516 147.442 278.573 147.27 278.487C146.842 278.229 145.955 279.661 146.127 280.291C146.298 280.978 142.181 283.441 134.317 287.364L128.484 290.314L126.625 288.223C119.619 280.434 110.126 271.758 109.783 272.846C109.611 273.361 111.241 275.624 117.275 283.298C122.822 290.342 124.052 292.032 123.108 291.23C122.736 290.915 122.622 291.001 122.45 291.66C122.307 292.118 122.222 292.547 122.25 292.633C122.307 292.92 116.874 295.125 112.728 296.471C104.607 299.162 98.5738 300.308 91.4252 300.537C84.5053 300.766 79.4726 300.136 72.4098 298.132C56.0823 293.521 31.4909 279.174 28.031 272.216C27.4591 271.099 27.4305 270.755 27.6592 269.381C28.1739 266.231 29.0604 264.226 33.5497 256.151C36.9811 250.023 38.4108 246.93 38.6395 245.269C38.6967 244.754 39.0685 243.207 39.4116 241.833C40.0121 239.513 40.0407 239.198 39.6404 238.11C39.4116 237.48 38.8969 236.707 38.468 236.392C37.3814 235.562 34.3504 235.447 29.2891 236.048C25.4288 236.478 22.598 236.449 22.9125 235.962C22.9697 235.848 22.8267 235.504 22.598 235.189C22.1691 234.617 22.1691 234.617 22.312 235.275C22.3978 235.619 22.3406 235.848 22.1977 235.733C21.5686 235.361 21.9689 233.099 23.1127 230.751C24.6568 227.543 28.0024 222.16 28.3455 222.36C28.4885 222.475 28.5171 222.418 28.4313 222.246C28.3169 222.074 28.4599 221.702 28.6886 221.415C28.946 221.129 29.0318 221.043 28.9174 221.272C28.7744 221.558 28.8316 221.616 29.0604 221.473C29.2605 221.329 29.3463 221.072 29.2605 220.843C29.1747 220.613 29.2319 220.47 29.3463 220.528C29.9754 220.699 33.7785 214.8 36.2376 209.846C38.1248 206.124 40.0121 201.198 40.0693 200.053C40.0693 199.595 40.1551 199.251 40.2408 199.251C40.3266 199.251 40.3838 198.965 40.4124 198.592C40.4124 198.249 40.6698 196.931 40.9557 195.671C41.3274 194.039 41.4704 192.235 41.4704 189.371C41.4704 184.933 41.1845 182.9 39.383 175.311C38.7539 172.648 38.0677 169.212 37.8961 167.665C37.2956 162.683 38.2678 157.929 40.9843 152.459C42.7 149.023 46.4745 143.353 46.8748 143.582C47.0464 143.697 47.1035 143.668 47.0178 143.496C46.9034 143.325 47.0464 142.952 47.2751 142.666C47.5325 142.38 47.6183 142.294 47.5039 142.523C47.3609 142.78 47.4181 142.866 47.6468 142.723C47.8184 142.609 47.9042 142.408 47.8184 142.265C47.7326 142.15 47.9042 141.807 48.1901 141.492C48.4475 141.205 48.5619 141.148 48.3903 141.406C48.133 141.778 48.1615 141.778 48.5905 141.463C48.8478 141.234 49.0194 140.919 48.9336 140.719C48.8478 140.518 49.0194 140.175 49.3053 139.945C49.7914 139.573 49.7914 139.573 49.3911 140.117C48.9908 140.661 48.9908 140.661 49.4483 140.289C49.7343 140.089 49.9058 139.802 49.82 139.688C49.7343 139.545 49.963 139.144 50.3061 138.771C50.7351 138.313 50.8208 138.285 50.5349 138.686C50.106 139.258 50.106 139.258 50.7351 138.743C51.0782 138.428 51.307 138.056 51.2212 137.855C51.1354 137.655 51.3927 137.254 51.7359 136.939C52.3935 136.395 52.3935 136.395 51.9646 136.967C51.5643 137.483 51.5643 137.511 52.0218 137.139C52.3078 136.939 52.4507 136.652 52.3935 136.509C51.9646 135.851 65.5471 121.876 71.123 117.18C80.0445 109.677 88.3941 104.15 97.7446 99.4826C102.634 97.0486 104.436 96.2754 104.15 96.7336C103.892 97.1345 106.409 97.0772 108.439 96.619C109.383 96.4186 112.156 95.7027 114.587 95.0727C120.878 93.3831 125.796 92.5527 135.747 91.4072C145.326 90.3191 149.701 89.6318 153.618 88.5723C160.967 86.5677 166.343 83.3605 169.288 79.2082C170.689 77.2323 171.862 74.7696 171.604 74.3687C171.519 74.2255 171.576 74.111 171.719 74.111C171.89 74.111 171.976 73.9392 171.976 73.7387C171.948 73.5669 172.176 72.4215 172.462 71.2474C174.264 63.8306 171.69 51.918 165.857 40.9217C164.313 37.9722 163.512 36.6263 160.624 32.0159C159.795 30.67 159.309 29.7536 159.566 29.9541C159.852 30.2118 160.052 30.2404 160.195 30.0113C160.51 29.4959 162.426 29.6963 163.912 30.4123C165.314 31.0709 169.746 33.9631 173.063 36.3972C175.293 38.0295 181.67 42.6685 186.102 45.8758C252.098 93.7268 275.975 113.801 296.591 138.829C302.482 145.959 308.973 154.464 318.838 167.98C320.697 170.529 322.327 172.562 322.47 172.476C322.612 172.39 322.813 172.476 322.927 172.648C323.041 172.877 323.013 172.906 322.813 172.791C322.298 172.476 322.412 172.877 323.07 173.793C323.385 174.252 323.756 174.567 323.899 174.481C324.042 174.395 324.242 174.481 324.357 174.652C324.471 174.882 324.443 174.91 324.242 174.796C323.728 174.481 323.842 175.082 324.385 175.512C324.786 175.855 324.843 175.855 324.614 175.512C324.471 175.254 324.5 175.168 324.7 175.311C324.871 175.426 324.957 175.683 324.871 175.884C324.786 176.084 324.957 176.428 325.243 176.657C325.701 177.001 325.729 177.001 325.472 176.628C325.329 176.371 325.472 176.514 325.815 176.915C326.187 177.316 326.444 177.831 326.387 178.06C326.358 178.289 326.473 178.49 326.644 178.49C326.816 178.49 328.818 181.067 331.048 184.217C339.683 196.301 344.459 202.258 344.688 201.227C344.916 200.225 341.714 193.696 336.538 184.647C314.778 146.646 282.866 108.217 248.41 78.521C232.94 65.2052 218.013 54.0371 180.497 27.8064C170.604 20.8764 159.194 12.8583 155.191 9.96605C144.182 2.09111 140.808 0.22976 137.034 0.0293067C135.404 -0.0566017 134.803 0.0293067 133.831 0.516121ZM162.654 289.369C163.026 289.827 162.997 289.856 162.569 289.483C162.283 289.283 162.054 289.054 162.054 288.997C162.054 288.768 162.283 288.911 162.654 289.369ZM165.228 291.373C165.6 291.832 165.571 291.86 165.142 291.488C164.856 291.287 164.627 291.058 164.627 291.001C164.627 290.772 164.856 290.915 165.228 291.373ZM200.371 321.67C200.742 322.071 200.971 322.386 200.885 322.386C200.828 322.386 200.456 322.071 200.085 321.67C199.713 321.27 199.484 320.955 199.57 320.955C199.627 320.955 199.999 321.27 200.371 321.67ZM204.231 325.25C205.174 326.195 205.861 326.968 205.775 326.968C205.718 326.968 204.889 326.195 203.945 325.25C203.001 324.305 202.315 323.532 202.401 323.532C202.458 323.532 203.287 324.305 204.231 325.25Z" fill="#1F284F"/>
<path d="M134.361 236.458C135.162 237.117 137.449 238.148 144.97 241.24C152.719 244.448 159.267 247.483 164.871 250.49C170.447 253.468 176.824 257.248 176.681 257.506C176.595 257.62 176.767 257.678 177.053 257.649C177.31 257.649 177.51 257.763 177.482 257.964C177.424 258.164 177.567 258.25 177.796 258.164C178.025 258.078 178.282 258.164 178.425 258.365C178.568 258.594 178.511 258.651 178.254 258.479C178.025 258.336 177.939 258.365 178.082 258.565C178.197 258.737 178.482 258.794 178.74 258.708C179.083 258.565 179.14 258.623 178.969 258.909C178.826 259.167 178.854 259.224 179.054 259.081C179.626 258.737 190.092 265.81 208.249 278.754C218.944 286.4 224.434 290.122 224.92 290.122C226.464 290.122 216.084 280.443 204.847 271.394C185.803 256.074 169.304 246.567 150.574 240.181C144.598 238.148 136.506 236 134.847 236C133.818 236.029 133.818 236.029 134.361 236.458Z" fill="#1F284F"/>
</svg>
