<svg  viewBox="0 0 336 342"  xmlns="http://www.w3.org/2000/svg">
<path d="M121.346 0.502686C118.227 2.09247 116.055 6.75018 114.3 15.5357C113.27 20.7513 112.657 25.0464 111.097 37.7367C109.593 50.3432 109.538 50.7616 109.343 50.5664C109.259 50.4827 108.981 50.7337 108.73 51.0963L108.284 51.7935L98.147 47.4705C62.833 32.4096 48.4623 27.4171 43.867 28.6722C41.6947 29.2579 41.1934 30.9593 42.0846 35.0313C42.3353 36.2027 42.5581 37.4578 42.5581 37.7924C42.5859 38.0992 42.6973 38.3224 42.8366 38.2387C42.948 38.155 42.9758 38.3224 42.8923 38.6292C42.5859 39.6053 46.3178 49.5344 46.8748 49.1997C46.9584 49.1161 47.9888 51.18 49.1307 53.718C51.86 59.8818 57.7921 71.7354 60.2708 76.0863C63.8634 82.3338 69.2107 90.0874 69.6563 89.6411C69.7398 89.5854 68.5701 87.4657 67.0662 84.9555C63.8634 79.5726 60.2429 72.6278 58.4884 68.5558C55.7312 62.0294 53.2804 53.6622 52.3056 47.3868C51.86 44.3746 51.86 44.2073 52.3335 43.3427C54.0323 40.3863 56.7617 39.6053 60.3543 41.1115C65.3117 43.1754 86.8955 53.9969 93.9695 57.9574C102.352 62.643 104.915 64.5953 105.973 67.0776C106.502 68.3048 106.502 68.4442 106.084 69.9225C104.33 76.0305 102.185 79.6005 97.5064 84.063C93.9973 87.4099 90.1818 90.1989 76.1454 99.6818C64.6989 107.435 60.2708 110.559 54.7007 114.798C41.1656 125.118 33.4232 133.736 28.3823 144C24.0099 152.897 22.5895 159.842 22.116 174.68C21.6704 187.983 20.9463 193.562 18.6348 201.371C15.627 211.551 11.3659 221.034 6.07435 229.373C0.615717 237.991 -0.0526872 239.581 0.00301312 243.709C0.0308633 245.55 0.225814 246.888 0.615717 248.088C0.922069 249.064 1.06132 249.789 0.949919 249.705C0.476466 249.427 1.86897 252.997 3.28933 255.813C5.57305 260.304 9.69487 266.133 12.2571 268.559C12.8698 269.117 14.4015 270.4 15.6548 271.432C17.9385 273.217 18.9411 273.775 18.1892 272.771C17.8828 272.381 17.9107 272.408 18.4398 272.827C19.0804 273.385 19.2753 273.719 18.7183 273.385C18.5234 273.273 18.4955 273.301 18.6069 273.496C18.7183 273.691 19.0804 273.97 19.4146 274.166C19.9994 274.472 19.9994 274.444 19.6095 273.97C19.2196 273.468 19.2475 273.468 19.9159 273.97C20.3336 274.277 20.6121 274.612 20.5564 274.695C20.5007 274.779 20.6121 274.863 20.8071 274.863C21.002 274.863 22.0046 275.365 23.0351 276.006C24.0656 276.62 26.7113 277.847 28.8836 278.712C33.7574 280.692 34.8993 281.417 39.8009 285.629C44.0898 289.31 44.4797 289.645 43.8392 289.31C43.5607 289.143 43.6164 289.31 43.9784 289.756C47.6825 294.303 54.9792 297.761 62.7773 298.709C65.8687 299.072 71.4387 298.849 73.6388 298.263L75.1706 297.873L73.0818 297.789C71.5779 297.761 72.1628 297.677 75.1706 297.51C83.275 297.119 94.5543 295.251 102.993 292.936C106.808 291.904 107.505 291.764 105.945 292.406C105.332 292.657 105.221 292.741 105.667 292.657C106.056 292.601 107.505 292.434 108.869 292.35C112.183 292.099 114.774 292.573 117.447 293.856C118.589 294.414 119.48 294.777 119.397 294.609C118.979 293.884 119.982 295.139 122.154 298.096C126.109 303.451 131.149 310.842 141.203 325.958C150.951 340.629 152.009 342.135 152.343 341.828C152.678 341.466 151.564 338.788 148.584 332.736C141.844 319.125 133.545 305.403 125.217 294.079L122.154 289.924L122.962 288.585C123.936 287.023 125.357 285.712 127.557 284.29C130.035 282.7 133.517 279.939 133.377 279.688C133.294 279.548 133.377 279.353 133.545 279.242C133.767 279.102 133.795 279.158 133.656 279.409C133.489 279.688 133.545 279.744 133.962 279.576C137.332 278.21 142.707 278.098 145.214 279.353L146.383 279.911L145.854 279.325C145.576 279.018 146.077 279.297 146.968 279.939C148.723 281.278 149.196 281.891 147.525 280.664L146.467 279.939L147.33 280.72C147.804 281.138 151.313 284.122 155.128 287.358C161.144 292.462 164.765 295.558 167.912 298.347C168.385 298.737 170.697 300.773 173.064 302.837C175.431 304.901 177.826 306.993 178.355 307.467C183.09 311.734 191.278 318.595 191.529 318.512C191.64 318.484 195.428 321.886 199.939 326.098C213.502 338.76 217.067 341.856 217.067 340.964C217.067 338.9 198.018 317.508 185.402 305.487C171.421 292.099 161.98 284.373 147.637 274.528L143.264 271.516L145.576 268.978C149.113 265.101 149.976 263.79 149.057 263.79C148.862 263.79 146.773 265.045 144.434 266.579C142.095 268.113 140.062 269.368 139.95 269.368C139.811 269.368 137.973 268.308 135.856 267.053C124.577 260.248 108.09 251.937 108.507 253.248C108.702 253.833 111.042 255.507 117.503 259.69C126.554 265.519 134.297 270.707 134.519 271.07C134.631 271.265 134.603 271.321 134.436 271.237C134.018 270.986 133.155 272.381 133.322 272.994C133.489 273.663 129.478 276.062 121.82 279.883L116.138 282.756L114.328 280.72C107.505 273.134 98.2584 264.683 97.9242 265.743C97.7571 266.245 99.3446 268.448 105.221 275.923C110.624 282.784 111.821 284.429 110.902 283.648C110.54 283.342 110.429 283.425 110.262 284.067C110.123 284.513 110.039 284.931 110.067 285.015C110.123 285.294 104.831 287.441 100.793 288.752C92.8833 291.374 87.0069 292.49 80.0444 292.713C73.3046 292.936 68.403 292.322 61.524 290.37C45.6216 285.88 21.6704 271.906 18.3006 265.129C17.7436 264.041 17.7157 263.707 17.9385 262.368C18.4398 259.3 19.3032 257.347 23.6757 249.482C27.0177 243.514 28.4102 240.502 28.633 238.884C28.6887 238.382 29.0507 236.876 29.3849 235.537C29.9698 233.278 29.9976 232.971 29.6077 231.911C29.3849 231.298 28.8836 230.545 28.4659 230.238C27.4076 229.429 24.4555 229.317 19.526 229.903C15.7662 230.321 13.009 230.294 13.3154 229.819C13.3711 229.708 13.2318 229.373 13.009 229.066C12.5913 228.509 12.5913 228.509 12.7305 229.15C12.8141 229.485 12.7584 229.708 12.6191 229.596C12.0064 229.234 12.3963 227.03 13.5103 224.743C15.0143 221.62 18.2727 216.376 18.6069 216.571C18.7462 216.683 18.774 216.627 18.6905 216.46C18.5791 216.292 18.7183 215.93 18.9411 215.651C19.1918 215.372 19.2753 215.288 19.1639 215.512C19.0247 215.79 19.0804 215.846 19.3032 215.707C19.4981 215.567 19.5817 215.316 19.4981 215.093C19.4146 214.87 19.4703 214.731 19.5817 214.786C20.1944 214.954 23.8985 209.208 26.2936 204.383C28.1317 200.757 29.9698 195.96 30.0255 194.845C30.0255 194.398 30.109 194.064 30.1926 194.064C30.2761 194.064 30.3318 193.785 30.3597 193.422C30.3597 193.087 30.6103 191.805 30.8888 190.577C31.2509 188.988 31.3902 187.23 31.3902 184.441C31.3902 180.118 31.1116 178.138 29.3571 170.747C28.7444 168.153 28.076 164.806 27.9089 163.3C27.324 158.447 28.2709 153.817 30.9167 148.49C32.5877 145.143 36.2639 139.621 36.6538 139.844C36.8209 139.956 36.8766 139.928 36.7931 139.761C36.6817 139.593 36.8209 139.231 37.0437 138.952C37.2944 138.673 37.3779 138.589 37.2665 138.812C37.1273 139.063 37.183 139.147 37.4058 139.008C37.5729 138.896 37.6564 138.701 37.5729 138.561C37.4893 138.45 37.6564 138.115 37.9349 137.808C38.1856 137.529 38.297 137.474 38.1299 137.725C37.8792 138.087 37.9071 138.087 38.3248 137.78C38.5755 137.557 38.7426 137.25 38.659 137.055C38.5755 136.86 38.7426 136.525 39.0211 136.302C39.4945 135.94 39.4945 135.94 39.1046 136.469C38.7147 136.999 38.7147 136.999 39.1603 136.637C39.4388 136.442 39.6059 136.163 39.5224 136.051C39.4388 135.912 39.6616 135.521 39.9958 135.159C40.4136 134.712 40.4972 134.684 40.2187 135.075C39.8009 135.633 39.8009 135.633 40.4136 135.131C40.7478 134.824 40.9706 134.461 40.8871 134.266C40.8035 134.071 41.0542 133.68 41.3884 133.374C42.0289 132.844 42.0289 132.844 41.6112 133.402C41.2213 133.904 41.2213 133.931 41.6669 133.569C41.9454 133.374 42.0846 133.095 42.0289 132.955C41.6112 132.314 54.84 118.703 60.2708 114.129C68.96 106.822 77.0923 101.439 86.1993 96.8927C90.9617 94.522 92.7162 93.769 92.4377 94.2152C92.1871 94.6057 94.6379 94.5499 96.6152 94.1036C97.5343 93.9084 100.236 93.2111 102.603 92.5975C108.73 90.952 113.52 90.1432 123.212 89.0275C132.542 87.9677 136.803 87.2983 140.618 86.2664C147.776 84.314 153.012 81.1903 155.88 77.1461C157.245 75.2217 158.387 72.8231 158.136 72.4326C158.053 72.2932 158.108 72.1816 158.248 72.1816C158.415 72.1816 158.498 72.0143 158.498 71.819C158.47 71.6517 158.693 70.536 158.972 69.3925C160.726 62.1689 158.22 50.5664 152.538 39.8564C151.034 36.9836 150.255 35.6728 147.442 31.1824C146.634 29.8715 146.161 28.979 146.411 29.1743C146.69 29.4253 146.885 29.4532 147.024 29.23C147.33 28.728 149.196 28.9232 150.645 29.6205C152.009 30.262 156.326 33.0789 159.557 35.4496C161.729 37.0394 167.94 41.5577 172.256 44.6815C236.534 91.2867 259.789 110.838 279.869 135.214C285.606 142.159 291.928 150.443 301.537 163.607C303.347 166.089 304.934 168.07 305.074 167.986C305.213 167.902 305.408 167.986 305.519 168.153C305.631 168.376 305.603 168.404 305.408 168.293C304.907 167.986 305.018 168.376 305.659 169.269C305.965 169.715 306.327 170.022 306.466 169.938C306.605 169.855 306.8 169.938 306.912 170.106C307.023 170.329 306.995 170.357 306.8 170.245C306.299 169.938 306.411 170.524 306.94 170.942C307.33 171.277 307.385 171.277 307.163 170.942C307.023 170.691 307.051 170.608 307.246 170.747C307.413 170.859 307.497 171.11 307.413 171.305C307.33 171.5 307.497 171.835 307.775 172.058C308.221 172.393 308.249 172.393 307.998 172.03C307.859 171.779 307.998 171.918 308.332 172.309C308.694 172.699 308.945 173.201 308.889 173.425C308.861 173.648 308.973 173.843 309.14 173.843C309.307 173.843 311.256 176.353 313.429 179.421C321.84 191.191 326.491 196.992 326.713 195.988C326.936 195.012 323.817 188.653 318.776 179.839C297.582 142.829 266.501 105.399 232.942 76.4767C217.875 63.5076 203.337 52.6303 166.798 27.0825C157.161 20.3329 146.049 12.5236 142.15 9.7066C131.428 2.03668 128.142 0.223785 124.465 0.0285645C122.878 -0.0551147 122.293 0.0285645 121.346 0.502686ZM149.419 281.835C149.781 282.282 149.753 282.31 149.336 281.947C149.057 281.752 148.834 281.529 148.834 281.473C148.834 281.25 149.057 281.389 149.419 281.835ZM151.926 283.788C152.288 284.234 152.26 284.262 151.842 283.899C151.564 283.704 151.341 283.481 151.341 283.425C151.341 283.202 151.564 283.342 151.926 283.788ZM186.154 313.296C186.516 313.687 186.738 313.993 186.655 313.993C186.599 313.993 186.237 313.687 185.875 313.296C185.513 312.906 185.29 312.599 185.374 312.599C185.429 312.599 185.791 312.906 186.154 313.296ZM189.913 316.782C190.832 317.703 191.501 318.456 191.417 318.456C191.362 318.456 190.554 317.703 189.635 316.782C188.716 315.862 188.047 315.109 188.131 315.109C188.187 315.109 188.994 315.862 189.913 316.782Z" fill="#3CBA79"/>
<path d="M109.983 241.924C110.763 242.565 112.991 243.569 120.316 246.582C127.863 249.705 134.241 252.662 139.7 255.59C145.13 258.491 151.341 262.172 151.202 262.423C151.118 262.535 151.285 262.591 151.564 262.563C151.814 262.563 152.009 262.675 151.982 262.87C151.926 263.065 152.065 263.149 152.288 263.065C152.511 262.981 152.761 263.065 152.901 263.26C153.04 263.483 152.984 263.539 152.733 263.372C152.511 263.232 152.427 263.26 152.566 263.455C152.678 263.623 152.956 263.679 153.207 263.595C153.541 263.455 153.597 263.511 153.43 263.79C153.29 264.041 153.318 264.097 153.513 263.957C154.07 263.623 164.263 270.512 181.948 283.118C192.364 290.565 197.711 294.191 198.185 294.191C199.689 294.191 189.579 284.764 178.634 275.95C160.086 261.029 144.016 251.769 125.775 245.55C119.954 243.569 112.072 241.478 110.457 241.478C109.454 241.506 109.454 241.506 109.983 241.924Z" fill="#3CBA79"/>
<path d="M130.346 0.502686C127.227 2.09247 125.055 6.75018 123.3 15.5357C122.27 20.7513 121.657 25.0464 120.097 37.7367C118.593 50.3432 118.538 50.7616 118.343 50.5664C118.259 50.4827 117.981 50.7337 117.73 51.0963L117.284 51.7935L107.147 47.4705C71.833 32.4096 57.4623 27.4171 52.867 28.6722C50.6947 29.2579 50.1934 30.9593 51.0846 35.0313C51.3353 36.2027 51.5581 37.4578 51.5581 37.7924C51.5859 38.0992 51.6973 38.3224 51.8366 38.2387C51.948 38.155 51.9758 38.3224 51.8923 38.6292C51.5859 39.6053 55.3178 49.5344 55.8748 49.1997C55.9584 49.1161 56.9888 51.18 58.1307 53.718C60.86 59.8818 66.7921 71.7354 69.2708 76.0863C72.8634 82.3338 78.2107 90.0874 78.6563 89.6411C78.7398 89.5854 77.5701 87.4657 76.0662 84.9555C72.8634 79.5726 69.2429 72.6278 67.4884 68.5558C64.7312 62.0294 62.2804 53.6622 61.3056 47.3868C60.86 44.3746 60.86 44.2073 61.3335 43.3427C63.0323 40.3863 65.7617 39.6053 69.3543 41.1115C74.3117 43.1754 95.8955 53.9969 102.969 57.9574C111.352 62.643 113.915 64.5953 114.973 67.0776C115.502 68.3048 115.502 68.4442 115.084 69.9225C113.33 76.0305 111.185 79.6005 106.506 84.063C102.997 87.4099 99.1818 90.1989 85.1454 99.6818C73.6989 107.435 69.2708 110.559 63.7007 114.798C50.1656 125.118 42.4232 133.736 37.3823 144C33.0099 152.897 31.5895 159.842 31.116 174.68C30.6704 187.983 29.9463 193.562 27.6348 201.371C24.627 211.551 20.3659 221.034 15.0743 229.373C9.61572 237.991 8.94731 239.581 9.00301 243.709C9.03086 245.55 9.22581 246.888 9.61572 248.088C9.92207 249.064 10.0613 249.789 9.94992 249.705C9.47647 249.427 10.869 252.997 12.2893 255.813C14.573 260.304 18.6949 266.133 21.2571 268.559C21.8698 269.117 23.4015 270.4 24.6548 271.432C26.9385 273.217 27.9411 273.775 27.1892 272.771C26.8828 272.381 26.9107 272.408 27.4398 272.827C28.0804 273.385 28.2753 273.719 27.7183 273.385C27.5234 273.273 27.4955 273.301 27.6069 273.496C27.7183 273.691 28.0804 273.97 28.4146 274.166C28.9994 274.472 28.9994 274.444 28.6095 273.97C28.2196 273.468 28.2475 273.468 28.9159 273.97C29.3336 274.277 29.6121 274.612 29.5564 274.695C29.5007 274.779 29.6121 274.863 29.8071 274.863C30.002 274.863 31.0046 275.365 32.0351 276.006C33.0656 276.62 35.7113 277.847 37.8836 278.712C42.7574 280.692 43.8993 281.417 48.8009 285.629C53.0898 289.31 53.4797 289.645 52.8392 289.31C52.5607 289.143 52.6164 289.31 52.9784 289.756C56.6825 294.303 63.9792 297.761 71.7773 298.709C74.8687 299.072 80.4387 298.849 82.6388 298.263L84.1706 297.873L82.0818 297.789C80.5779 297.761 81.1628 297.677 84.1706 297.51C92.275 297.119 103.554 295.251 111.993 292.936C115.808 291.904 116.505 291.764 114.945 292.406C114.332 292.657 114.221 292.741 114.667 292.657C115.056 292.601 116.505 292.434 117.869 292.35C121.183 292.099 123.774 292.573 126.447 293.856C127.589 294.414 128.48 294.777 128.397 294.609C127.979 293.884 128.982 295.139 131.154 298.096C135.109 303.451 140.149 310.842 150.203 325.958C159.951 340.629 161.009 342.135 161.343 341.828C161.678 341.466 160.564 338.788 157.584 332.736C150.844 319.125 142.545 305.403 134.217 294.079L131.154 289.924L131.962 288.585C132.936 287.023 134.357 285.712 136.557 284.29C139.035 282.7 142.517 279.939 142.377 279.688C142.294 279.548 142.377 279.353 142.545 279.242C142.767 279.102 142.795 279.158 142.656 279.409C142.489 279.688 142.545 279.744 142.962 279.576C146.332 278.21 151.707 278.098 154.214 279.353L155.383 279.911L154.854 279.325C154.576 279.018 155.077 279.297 155.968 279.939C157.723 281.278 158.196 281.891 156.525 280.664L155.467 279.939L156.33 280.72C156.804 281.138 160.313 284.122 164.128 287.358C170.144 292.462 173.765 295.558 176.912 298.347C177.385 298.737 179.697 300.773 182.064 302.837C184.431 304.901 186.826 306.993 187.355 307.467C192.09 311.734 200.278 318.595 200.529 318.512C200.64 318.484 204.428 321.886 208.939 326.098C222.502 338.76 226.067 341.856 226.067 340.964C226.067 338.9 207.018 317.508 194.402 305.487C180.421 292.099 170.98 284.373 156.637 274.528L152.264 271.516L154.576 268.978C158.113 265.101 158.976 263.79 158.057 263.79C157.862 263.79 155.773 265.045 153.434 266.579C151.095 268.113 149.062 269.368 148.95 269.368C148.811 269.368 146.973 268.308 144.856 267.053C133.577 260.248 117.09 251.937 117.507 253.248C117.702 253.833 120.042 255.507 126.503 259.69C135.554 265.519 143.297 270.707 143.519 271.07C143.631 271.265 143.603 271.321 143.436 271.237C143.018 270.986 142.155 272.381 142.322 272.994C142.489 273.663 138.478 276.062 130.82 279.883L125.138 282.756L123.328 280.72C116.505 273.134 107.258 264.683 106.924 265.743C106.757 266.245 108.345 268.448 114.221 275.923C119.624 282.784 120.821 284.429 119.902 283.648C119.54 283.342 119.429 283.425 119.262 284.067C119.123 284.513 119.039 284.931 119.067 285.015C119.123 285.294 113.831 287.441 109.793 288.752C101.883 291.374 96.0069 292.49 89.0444 292.713C82.3046 292.936 77.403 292.322 70.524 290.37C54.6216 285.88 30.6704 271.906 27.3006 265.129C26.7436 264.041 26.7157 263.707 26.9385 262.368C27.4398 259.3 28.3032 257.347 32.6757 249.482C36.0177 243.514 37.4102 240.502 37.633 238.884C37.6887 238.382 38.0507 236.876 38.3849 235.537C38.9698 233.278 38.9976 232.971 38.6077 231.911C38.3849 231.298 37.8836 230.545 37.4659 230.238C36.4076 229.429 33.4555 229.317 28.526 229.903C24.7662 230.321 22.009 230.294 22.3154 229.819C22.3711 229.708 22.2318 229.373 22.009 229.066C21.5913 228.509 21.5913 228.509 21.7305 229.15C21.8141 229.485 21.7584 229.708 21.6191 229.596C21.0064 229.234 21.3963 227.03 22.5103 224.743C24.0143 221.62 27.2727 216.376 27.6069 216.571C27.7462 216.683 27.774 216.627 27.6905 216.46C27.5791 216.292 27.7183 215.93 27.9411 215.651C28.1918 215.372 28.2753 215.288 28.1639 215.512C28.0247 215.79 28.0804 215.846 28.3032 215.707C28.4981 215.567 28.5817 215.316 28.4981 215.093C28.4146 214.87 28.4703 214.731 28.5817 214.786C29.1944 214.954 32.8985 209.208 35.2936 204.383C37.1317 200.757 38.9698 195.96 39.0255 194.845C39.0255 194.398 39.109 194.064 39.1926 194.064C39.2761 194.064 39.3318 193.785 39.3597 193.422C39.3597 193.087 39.6103 191.805 39.8888 190.577C40.2509 188.988 40.3902 187.23 40.3902 184.441C40.3902 180.118 40.1116 178.138 38.3571 170.747C37.7444 168.153 37.076 164.806 36.9089 163.3C36.324 158.447 37.2709 153.817 39.9167 148.49C41.5877 145.143 45.2639 139.621 45.6538 139.844C45.8209 139.956 45.8766 139.928 45.7931 139.761C45.6817 139.593 45.8209 139.231 46.0437 138.952C46.2944 138.673 46.3779 138.589 46.2665 138.812C46.1273 139.063 46.183 139.147 46.4058 139.008C46.5729 138.896 46.6564 138.701 46.5729 138.561C46.4893 138.45 46.6564 138.115 46.9349 137.808C47.1856 137.529 47.297 137.474 47.1299 137.725C46.8792 138.087 46.9071 138.087 47.3248 137.78C47.5755 137.557 47.7426 137.25 47.659 137.055C47.5755 136.86 47.7426 136.525 48.0211 136.302C48.4945 135.94 48.4945 135.94 48.1046 136.469C47.7147 136.999 47.7147 136.999 48.1603 136.637C48.4388 136.442 48.6059 136.163 48.5224 136.051C48.4388 135.912 48.6616 135.521 48.9958 135.159C49.4136 134.712 49.4972 134.684 49.2187 135.075C48.8009 135.633 48.8009 135.633 49.4136 135.131C49.7478 134.824 49.9706 134.461 49.8871 134.266C49.8035 134.071 50.0542 133.68 50.3884 133.374C51.0289 132.844 51.0289 132.844 50.6112 133.402C50.2213 133.904 50.2213 133.931 50.6669 133.569C50.9454 133.374 51.0846 133.095 51.0289 132.955C50.6112 132.314 63.84 118.703 69.2708 114.129C77.96 106.822 86.0923 101.439 95.1993 96.8927C99.9617 94.522 101.716 93.769 101.438 94.2152C101.187 94.6057 103.638 94.5499 105.615 94.1036C106.534 93.9084 109.236 93.2111 111.603 92.5975C117.73 90.952 122.52 90.1432 132.212 89.0275C141.542 87.9677 145.803 87.2983 149.618 86.2664C156.776 84.314 162.012 81.1903 164.88 77.1461C166.245 75.2217 167.387 72.8231 167.136 72.4326C167.053 72.2932 167.108 72.1816 167.248 72.1816C167.415 72.1816 167.498 72.0143 167.498 71.819C167.47 71.6517 167.693 70.536 167.972 69.3925C169.726 62.1689 167.22 50.5664 161.538 39.8564C160.034 36.9836 159.255 35.6728 156.442 31.1824C155.634 29.8715 155.161 28.979 155.411 29.1743C155.69 29.4253 155.885 29.4532 156.024 29.23C156.33 28.728 158.196 28.9232 159.645 29.6205C161.009 30.262 165.326 33.0789 168.557 35.4496C170.729 37.0394 176.94 41.5577 181.256 44.6815C245.534 91.2867 268.789 110.838 288.869 135.214C294.606 142.159 300.928 150.443 310.537 163.607C312.347 166.089 313.934 168.07 314.074 167.986C314.213 167.902 314.408 167.986 314.519 168.153C314.631 168.376 314.603 168.404 314.408 168.293C313.907 167.986 314.018 168.376 314.659 169.269C314.965 169.715 315.327 170.022 315.466 169.938C315.605 169.855 315.8 169.938 315.912 170.106C316.023 170.329 315.995 170.357 315.8 170.245C315.299 169.938 315.411 170.524 315.94 170.942C316.33 171.277 316.385 171.277 316.163 170.942C316.023 170.691 316.051 170.608 316.246 170.747C316.413 170.859 316.497 171.11 316.413 171.305C316.33 171.5 316.497 171.835 316.775 172.058C317.221 172.393 317.249 172.393 316.998 172.03C316.859 171.779 316.998 171.918 317.332 172.309C317.694 172.699 317.945 173.201 317.889 173.425C317.861 173.648 317.973 173.843 318.14 173.843C318.307 173.843 320.256 176.353 322.429 179.421C330.84 191.191 335.491 196.992 335.713 195.988C335.936 195.012 332.817 188.653 327.776 179.839C306.582 142.829 275.501 105.399 241.942 76.4767C226.875 63.5076 212.337 52.6303 175.798 27.0825C166.161 20.3329 155.049 12.5236 151.15 9.7066C140.428 2.03668 137.142 0.223785 133.465 0.0285645C131.878 -0.0551147 131.293 0.0285645 130.346 0.502686ZM158.419 281.835C158.781 282.282 158.753 282.31 158.336 281.947C158.057 281.752 157.834 281.529 157.834 281.473C157.834 281.25 158.057 281.389 158.419 281.835ZM160.926 283.788C161.288 284.234 161.26 284.262 160.842 283.899C160.564 283.704 160.341 283.481 160.341 283.425C160.341 283.202 160.564 283.342 160.926 283.788ZM195.154 313.296C195.516 313.687 195.738 313.993 195.655 313.993C195.599 313.993 195.237 313.687 194.875 313.296C194.513 312.906 194.29 312.599 194.374 312.599C194.429 312.599 194.791 312.906 195.154 313.296ZM198.913 316.782C199.832 317.703 200.501 318.456 200.417 318.456C200.362 318.456 199.554 317.703 198.635 316.782C197.716 315.862 197.047 315.109 197.131 315.109C197.187 315.109 197.994 315.862 198.913 316.782Z" fill="#1F284F"/>
<path d="M78.6007 159.925C71.861 160.623 65.344 161.989 62.8932 163.217C60.4981 164.444 60.4981 165.504 62.8375 168.376C63.3945 169.074 63.673 169.52 63.4781 169.408C63.1996 169.241 63.1717 169.38 63.311 169.994C63.5895 171.193 63.7844 171.528 67.2935 176.743C72.0559 183.883 74.2561 186.059 77.7373 186.979C80.8009 187.788 84.4214 187.175 88.9053 185.027C92.7764 183.214 95.3108 181.429 97.9566 178.752C101.883 174.819 105.782 168.516 105.365 166.842C105.086 165.727 107.676 164.025 110.907 163.217C112.522 162.826 111.52 162.38 107.147 161.599C100.407 160.372 96.202 159.981 87.9305 159.898C83.4188 159.87 79.2134 159.87 78.6007 159.925Z" fill="#1F284F"/>
<path d="M118.983 241.924C119.763 242.565 121.991 243.569 129.316 246.582C136.863 249.705 143.241 252.662 148.7 255.59C154.13 258.491 160.341 262.172 160.202 262.423C160.118 262.535 160.285 262.591 160.564 262.563C160.814 262.563 161.009 262.675 160.982 262.87C160.926 263.065 161.065 263.149 161.288 263.065C161.511 262.981 161.761 263.065 161.901 263.26C162.04 263.483 161.984 263.539 161.733 263.372C161.511 263.232 161.427 263.26 161.566 263.455C161.678 263.623 161.956 263.679 162.207 263.595C162.541 263.455 162.597 263.511 162.43 263.79C162.29 264.041 162.318 264.097 162.513 263.957C163.07 263.623 173.263 270.512 190.948 283.118C201.364 290.565 206.711 294.191 207.185 294.191C208.689 294.191 198.579 284.764 187.634 275.95C169.086 261.029 153.016 251.769 134.775 245.55C128.954 243.569 121.072 241.478 119.457 241.478C118.454 241.506 118.454 241.506 118.983 241.924Z" fill="#1F284F"/>
</svg>
