<svg viewBox="0 0 91 66" xmlns="http://www.w3.org/2000/svg">
<path d="M91 36.8162L80.2501 48.5155C62.1438 68.2123 31.4644 69.5263 11.7247 51.4593L0 40.7202L10.5852 29.223V29.2104C6.19158 19.861 7.50841 2.71636 7.50841 2.71636C19.0053 3.44914 28.5775 9.90525 28.5775 9.90525C37.3648 5.01579 49.3175 5.20531 58.4846 9.28617C59.7508 8.12382 68.2468 0.669615 78.87 0C78.87 0 81.6176 18.6229 79.1992 26.0013L91 36.8162Z" fill="#4B4C4D"/>
<path d="M88.1784 39.8818L78.0951 50.874C61.1117 69.3804 32.3349 70.6149 13.8194 53.6399L2.82178 43.5498L12.7505 32.7476V32.7357C8.62938 23.9514 9.86455 7.84295 9.86455 7.84295C20.6484 8.53145 29.627 14.5974 29.627 14.5974C37.8693 10.0034 49.0808 10.1815 57.6795 14.0157C58.8671 12.9236 66.8362 5.91992 76.8006 5.29077C76.8006 5.29077 79.3778 22.7881 77.1094 29.7205L88.1784 39.8818Z" fill="#0186E7"/>
</svg>
