<svg  viewBox="0 0 222 228" xmlns="http://www.w3.org/2000/svg">
<path d="M80.9301 0.33526C78.8498 1.39553 77.401 4.50194 76.2308 10.3613C75.5436 13.8398 75.1349 16.7044 74.0948 25.1679C73.0918 33.5757 73.0546 33.8547 72.9246 33.7245C72.8689 33.6687 72.6831 33.8361 72.5159 34.0779L72.2188 34.543L65.4577 31.6598C41.9056 21.6151 32.3212 18.2855 29.2565 19.1225C27.8077 19.5132 27.4734 20.6478 28.0677 23.3636C28.2349 24.1449 28.3835 24.9819 28.3835 25.2051C28.4021 25.4098 28.4764 25.5586 28.5692 25.5028C28.6435 25.447 28.6621 25.5586 28.6064 25.7632C28.4021 26.4142 30.891 33.0363 31.2625 32.813C31.3182 32.7572 32.0055 34.1337 32.767 35.8265C34.5873 39.9373 38.5436 47.8429 40.1967 50.7447C42.5928 54.9113 46.1591 60.0825 46.4563 59.7849C46.512 59.7477 45.7319 58.334 44.7288 56.6599C42.5928 53.0698 40.1781 48.4381 39.008 45.7223C37.1691 41.3696 35.5346 35.7892 34.8845 31.604C34.5873 29.595 34.5873 29.4834 34.9031 28.9068C36.0361 26.9351 37.8564 26.4142 40.2524 27.4187C43.5587 28.7952 57.9537 36.0125 62.6716 38.6538C68.2624 41.7789 69.9713 43.0809 70.6771 44.7365C71.03 45.5549 71.03 45.6479 70.7514 46.6338C69.5812 50.7075 68.151 53.0884 65.0305 56.0646C62.6902 58.2968 60.1455 60.1569 50.7841 66.4813C43.15 71.6525 40.1967 73.7358 36.4819 76.5632C27.4548 83.4457 22.2911 89.1934 18.9292 96.0387C16.013 101.973 15.0657 106.604 14.75 116.5C14.4528 125.373 13.9699 129.093 12.4282 134.301C10.4222 141.091 7.58031 147.415 4.0512 152.977C0.410643 158.725 -0.035139 159.785 0.00200956 162.538C0.0205838 163.766 0.150604 164.659 0.410643 165.459C0.61496 166.11 0.707832 166.593 0.633535 166.537C0.317772 166.351 1.24649 168.732 2.19377 170.611C3.71686 173.606 6.46585 177.494 8.17469 179.112C8.58332 179.484 9.60491 180.34 10.4407 181.028C11.9638 182.218 12.6325 182.59 12.131 181.921C11.9267 181.66 11.9453 181.679 12.2982 181.958C12.7254 182.33 12.8554 182.553 12.4839 182.33C12.3539 182.256 12.3353 182.274 12.4096 182.404C12.4839 182.535 12.7254 182.721 12.9483 182.851C13.3383 183.055 13.3383 183.037 13.0783 182.721C12.8183 182.386 12.8368 182.386 13.2826 182.721C13.5612 182.925 13.747 183.148 13.7098 183.204C13.6727 183.26 13.747 183.316 13.877 183.316C14.007 183.316 14.6757 183.651 15.3629 184.078C16.0502 184.488 17.8147 185.306 19.2635 185.883C22.514 187.203 23.2756 187.687 26.5446 190.496C29.4051 192.951 29.6651 193.174 29.2379 192.951C29.0522 192.84 29.0893 192.951 29.3308 193.249C31.8012 196.281 36.6676 198.587 41.8684 199.22C43.9302 199.462 47.645 199.313 49.1124 198.922L50.134 198.662L48.7409 198.606C47.7379 198.587 48.1279 198.532 50.134 198.42C55.5391 198.16 63.0616 196.913 68.6897 195.369C71.2343 194.681 71.6987 194.588 70.6585 195.016C70.2499 195.183 70.1756 195.239 70.4728 195.183C70.7328 195.146 71.6987 195.035 72.6088 194.979C74.8192 194.811 76.5466 195.128 78.3297 195.983C79.0912 196.355 79.6856 196.597 79.6299 196.485C79.3513 196.002 80.02 196.839 81.4688 198.811C84.1063 202.382 87.4682 207.311 94.1736 217.393C100.675 227.178 101.38 228.182 101.603 227.977C101.826 227.736 101.083 225.95 99.0957 221.913C94.6008 212.836 89.0656 203.684 83.5119 196.132L81.4688 193.36L82.0074 192.468C82.6575 191.426 83.6048 190.552 85.0722 189.603C86.7253 188.543 89.0471 186.701 88.9542 186.534C88.8985 186.441 88.9542 186.311 89.0656 186.236C89.2142 186.143 89.2328 186.18 89.1399 186.348C89.0285 186.534 89.0656 186.571 89.3442 186.459C91.5917 185.548 95.1766 185.474 96.8482 186.311L97.6284 186.683L97.2755 186.292C97.0897 186.087 97.424 186.273 98.0184 186.701C99.1886 187.594 99.5044 188.003 98.3899 187.185L97.6841 186.701L98.2599 187.222C98.5757 187.501 100.916 189.491 103.461 191.649C107.473 195.053 109.887 197.118 111.986 198.978C112.302 199.238 113.844 200.596 115.423 201.973C117.001 203.349 118.599 204.744 118.952 205.061C122.109 207.907 127.57 212.483 127.737 212.427C127.812 212.408 130.338 214.678 133.347 217.486C142.392 225.931 144.77 227.996 144.77 227.401C144.77 226.024 132.065 211.757 123.651 203.74C114.327 194.811 108.03 189.659 98.4642 183.093L95.548 181.084L97.0897 179.391C99.4486 176.805 100.024 175.931 99.4115 175.931C99.2815 175.931 97.8884 176.768 96.3282 177.791C94.7679 178.814 93.412 179.651 93.3377 179.651C93.2448 179.651 92.0189 178.944 90.6073 178.107C83.0847 173.569 72.0887 168.026 72.3674 168.9C72.4974 169.29 74.0576 170.407 78.3668 173.197C84.4035 177.084 89.5671 180.544 89.7157 180.786C89.79 180.916 89.7714 180.953 89.66 180.898C89.3814 180.73 88.8056 181.66 88.917 182.07C89.0285 182.516 86.3538 184.116 81.2459 186.664L77.4567 188.58L76.2494 187.222C71.6987 182.163 65.532 176.526 65.3091 177.233C65.1977 177.568 66.2564 179.037 70.1756 184.023C73.779 188.599 74.5777 189.696 73.9647 189.175C73.7233 188.971 73.649 189.026 73.5375 189.454C73.4447 189.752 73.3889 190.031 73.4075 190.087C73.4447 190.273 69.9156 191.705 67.2223 192.579C61.9472 194.328 58.028 195.072 53.3845 195.221C48.8895 195.369 45.6204 194.96 41.0326 193.658C30.4267 190.663 14.4528 181.344 12.2053 176.824C11.8338 176.099 11.8152 175.875 11.9638 174.982C12.2982 172.936 12.874 171.634 15.7901 166.389C18.019 162.408 18.9478 160.399 19.0964 159.32C19.1335 158.985 19.375 157.981 19.5979 157.088C19.9879 155.581 20.0065 155.377 19.7465 154.67C19.5979 154.261 19.2635 153.758 18.9849 153.554C18.2791 153.014 16.3102 152.94 13.0226 153.331C10.515 153.61 8.67619 153.591 8.88051 153.275C8.91766 153.2 8.82479 152.977 8.67619 152.773C8.39758 152.401 8.39758 152.401 8.49045 152.828C8.54617 153.052 8.50902 153.2 8.41615 153.126C8.00752 152.884 8.26756 151.415 9.01053 149.889C10.0135 147.806 12.1867 144.309 12.4096 144.439C12.5025 144.514 12.5211 144.476 12.4653 144.365C12.391 144.253 12.4839 144.011 12.6325 143.825C12.7997 143.639 12.8554 143.584 12.7811 143.732C12.6882 143.918 12.7254 143.956 12.874 143.863C13.004 143.77 13.0597 143.602 13.004 143.453C12.9483 143.304 12.9854 143.211 13.0597 143.249C13.4684 143.36 15.9387 139.528 17.5361 136.31C18.762 133.892 19.9879 130.693 20.0251 129.949C20.0251 129.651 20.0808 129.428 20.1365 129.428C20.1922 129.428 20.2294 129.242 20.248 129C20.248 128.777 20.4151 127.921 20.6009 127.103C20.8423 126.043 20.9352 124.871 20.9352 123.011C20.9352 120.127 20.7495 118.807 19.5793 113.877C19.1707 112.147 18.7249 109.915 18.6134 108.911C18.2234 105.674 18.8549 102.586 20.6194 99.0335C21.7339 96.8014 24.1857 93.1183 24.4457 93.2671C24.5572 93.3415 24.5943 93.3229 24.5386 93.2113C24.4643 93.0997 24.5572 92.8579 24.7058 92.6719C24.873 92.4859 24.9287 92.4301 24.8544 92.5789C24.7615 92.7463 24.7987 92.8021 24.9473 92.7091C25.0587 92.6347 25.1144 92.5045 25.0587 92.4115C25.003 92.3371 25.1144 92.1138 25.3002 91.9092C25.4673 91.7232 25.5416 91.686 25.4302 91.8534C25.263 92.0952 25.2816 92.0952 25.5602 91.8906C25.7274 91.7418 25.8388 91.5372 25.7831 91.407C25.7274 91.2768 25.8388 91.0536 26.0246 90.9048C26.3403 90.6629 26.3403 90.6629 26.0803 91.0164C25.8202 91.3698 25.8202 91.3698 26.1174 91.128C26.3032 90.9978 26.4146 90.8118 26.3589 90.7374C26.3032 90.6443 26.4518 90.3839 26.6747 90.1421C26.9533 89.8445 27.009 89.8259 26.8233 90.0863C26.5446 90.4583 26.5446 90.4583 26.9533 90.1235C27.1762 89.9189 27.3248 89.6771 27.269 89.5469C27.2133 89.4167 27.3805 89.1562 27.6034 88.9516C28.0306 88.5982 28.0306 88.5982 27.752 88.9702C27.4919 89.3051 27.4919 89.3237 27.7891 89.0818C27.9749 88.9516 28.0677 88.7656 28.0306 88.6726C27.752 88.2448 36.5747 79.1674 40.1967 76.1168C45.9919 71.2432 51.4156 67.6532 57.4894 64.6212C60.6656 63.0401 61.8357 62.5379 61.65 62.8355C61.4828 63.0959 63.1174 63.0587 64.4361 62.7611C65.0491 62.6309 66.8508 62.1658 68.4296 61.7566C72.5159 60.6591 75.7107 60.1197 82.1746 59.3756C88.397 58.6688 91.2388 58.2224 93.7835 57.5341C98.5571 56.232 102.049 54.1487 103.962 51.4515C104.872 50.168 105.634 48.5683 105.467 48.3079C105.411 48.2149 105.448 48.1405 105.541 48.1405C105.652 48.1405 105.708 48.0289 105.708 47.8987C105.69 47.7871 105.838 47.043 106.024 46.2804C107.194 41.4626 105.522 33.7245 101.733 26.5816C100.73 24.6657 100.21 23.7914 98.3342 20.7966C97.7955 19.9224 97.4798 19.3271 97.6469 19.4573C97.8327 19.6248 97.9627 19.6434 98.0556 19.4946C98.2599 19.1597 99.5044 19.2899 100.47 19.755C101.38 20.1828 104.259 22.0615 106.414 23.6426C107.863 24.7029 112.005 27.7163 114.884 29.7996C157.753 60.8823 173.263 73.9218 186.655 90.1793C190.481 94.811 194.697 100.336 201.106 109.115C202.313 110.771 203.372 112.092 203.465 112.036C203.557 111.98 203.687 112.036 203.762 112.147C203.836 112.296 203.817 112.315 203.687 112.24C203.353 112.036 203.427 112.296 203.855 112.891C204.059 113.189 204.3 113.394 204.393 113.338C204.486 113.282 204.616 113.338 204.69 113.449C204.765 113.598 204.746 113.617 204.616 113.542C204.282 113.338 204.356 113.729 204.709 114.008C204.969 114.231 205.006 114.231 204.858 114.008C204.765 113.84 204.783 113.784 204.913 113.877C205.025 113.952 205.081 114.119 205.025 114.249C204.969 114.38 205.081 114.603 205.266 114.752C205.563 114.975 205.582 114.975 205.415 114.733C205.322 114.566 205.415 114.659 205.638 114.919C205.879 115.179 206.046 115.514 206.009 115.663C205.991 115.812 206.065 115.942 206.176 115.942C206.288 115.942 207.588 117.616 209.037 119.662C214.646 127.512 217.748 131.381 217.897 130.711C218.045 130.06 215.965 125.819 212.603 119.941C198.468 95.2575 177.739 70.2946 155.357 51.0051C145.309 42.3555 135.613 35.101 111.243 18.0623C104.817 13.5608 97.4055 8.3524 94.8051 6.47367C87.654 1.35833 85.4622 0.149248 83.0104 0.0190392C81.9517 -0.0367646 81.5616 0.0190392 80.9301 0.33526ZM99.653 187.966C99.8944 188.264 99.8759 188.282 99.5972 188.041C99.4115 187.91 99.2629 187.761 99.2629 187.724C99.2629 187.575 99.4115 187.668 99.653 187.966ZM101.325 189.268C101.566 189.566 101.548 189.584 101.269 189.343C101.083 189.212 100.935 189.064 100.935 189.026C100.935 188.878 101.083 188.971 101.325 189.268ZM124.152 208.948C124.394 209.209 124.542 209.413 124.487 209.413C124.45 209.413 124.208 209.209 123.967 208.948C123.725 208.688 123.577 208.483 123.632 208.483C123.669 208.483 123.911 208.688 124.152 208.948ZM126.66 211.273C127.273 211.887 127.719 212.39 127.663 212.39C127.626 212.39 127.087 211.887 126.474 211.273C125.861 210.66 125.415 210.157 125.471 210.157C125.508 210.157 126.047 210.66 126.66 211.273Z" fill="#0077FF" fill-opacity="0.79"/>
<path d="M87.4801 0.329377C85.437 1.37065 84.0142 4.4214 82.865 10.1758C82.19 13.5919 81.7887 16.4052 80.7672 24.7171C79.7822 32.9742 79.7457 33.2483 79.618 33.1204C79.5633 33.0656 79.3808 33.23 79.2167 33.4675L78.9248 33.9242L72.2849 31.0926C49.1547 21.2279 39.7421 17.958 36.7323 18.78C35.3095 19.1637 34.9811 20.278 35.5648 22.9451C35.729 23.7124 35.8749 24.5344 35.8749 24.7537C35.8932 24.9546 35.9661 25.1008 36.0574 25.0459C36.1303 24.9911 36.1486 25.1008 36.0938 25.3017C35.8932 25.9411 38.3375 32.4445 38.7024 32.2253C38.7571 32.1705 39.432 33.5223 40.1799 35.1847C41.9676 39.2219 45.853 46.9858 47.4765 49.8356C49.8297 53.9276 53.332 59.0061 53.6239 58.7138C53.6786 58.6773 52.9125 57.2889 51.9274 55.6448C49.8297 52.1191 47.4583 47.5704 46.3091 44.9032C44.5032 40.6285 42.8979 35.1481 42.2595 31.0378C41.9676 29.0649 41.9676 28.9553 42.2777 28.389C43.3904 26.4526 45.1781 25.9411 47.5312 26.9275C50.7782 28.2794 64.9154 35.3674 69.5487 37.9614C75.0394 41.0304 76.7176 42.3092 77.4108 43.935C77.7574 44.7388 77.7574 44.8302 77.4837 45.7984C76.3345 49.7991 74.9299 52.1374 71.8654 55.0602C69.5669 57.2524 67.0679 59.0792 57.8742 65.2903C50.3769 70.3688 47.4765 72.4148 43.8282 75.1915C34.9629 81.9507 29.8917 87.5955 26.59 94.3181C23.7261 100.146 22.7958 104.694 22.4857 114.413C22.1938 123.127 21.7196 126.78 20.2055 131.895C18.2354 138.563 15.4445 144.774 11.9786 150.236C8.40329 155.881 7.96549 156.922 8.00197 159.626C8.02022 160.832 8.14791 161.709 8.40329 162.494C8.60394 163.134 8.69515 163.609 8.62218 163.554C8.31208 163.371 9.22415 165.709 10.1545 167.554C11.6503 170.496 14.35 174.314 16.0282 175.903C16.4295 176.268 17.4328 177.109 18.2537 177.784C19.7495 178.954 20.4062 179.319 19.9137 178.661C19.713 178.406 19.7312 178.424 20.0778 178.698C20.4974 179.063 20.6251 179.282 20.2602 179.063C20.1326 178.99 20.1143 179.008 20.1873 179.136C20.2602 179.264 20.4974 179.447 20.7163 179.575C21.0993 179.776 21.0993 179.757 20.844 179.447C20.5886 179.118 20.6068 179.118 21.0446 179.447C21.3182 179.648 21.5007 179.867 21.4642 179.922C21.4277 179.977 21.5007 180.031 21.6284 180.031C21.756 180.031 22.4127 180.36 23.0877 180.78C23.7626 181.182 25.4955 181.986 26.9184 182.552C30.1106 183.849 30.8585 184.324 34.069 187.083C36.8782 189.494 37.1336 189.713 36.714 189.494C36.5316 189.385 36.5681 189.494 36.8053 189.787C39.2314 192.764 44.0106 195.029 49.1182 195.651C51.1431 195.888 54.7913 195.742 56.2324 195.358L57.2357 195.103L55.8676 195.048C54.8826 195.029 55.2656 194.975 57.2357 194.865C62.544 194.609 69.9318 193.385 75.4589 191.869C77.958 191.193 78.414 191.102 77.3925 191.522C76.9912 191.686 76.9182 191.741 77.2101 191.686C77.4655 191.65 78.414 191.54 79.3079 191.485C81.4786 191.321 83.1751 191.632 84.9263 192.472C85.6742 192.837 86.2579 193.075 86.2032 192.965C85.9295 192.49 86.5862 193.312 88.0091 195.249C90.5994 198.756 93.9011 203.597 100.486 213.498C106.871 223.107 107.564 224.094 107.783 223.893C108.002 223.655 107.272 221.902 105.32 217.937C100.906 209.023 95.4698 200.035 90.0156 192.618L88.0091 189.896L88.5381 189.019C89.1765 187.996 90.1068 187.138 91.5479 186.206C93.1714 185.165 95.4516 183.356 95.3604 183.192C95.3057 183.1 95.3604 182.973 95.4698 182.9C95.6158 182.808 95.634 182.845 95.5428 183.009C95.4333 183.192 95.4698 183.228 95.7435 183.119C97.9507 182.224 101.471 182.151 103.113 182.973L103.879 183.338L103.533 182.954C103.35 182.753 103.678 182.936 104.262 183.356C105.411 184.233 105.722 184.635 104.627 183.831L103.934 183.356L104.499 183.868C104.809 184.142 107.108 186.096 109.607 188.215C113.547 191.559 115.919 193.586 117.98 195.413C118.29 195.669 119.804 197.002 121.354 198.354C122.905 199.706 124.474 201.076 124.82 201.387C127.921 204.182 133.284 208.676 133.449 208.621C133.522 208.603 136.002 210.831 138.957 213.59C147.841 221.883 150.176 223.911 150.176 223.327C150.176 221.975 137.699 207.963 129.435 200.09C120.278 191.321 114.094 186.261 104.7 179.812L101.836 177.839L103.35 176.177C105.667 173.638 106.232 172.779 105.63 172.779C105.503 172.779 104.135 173.601 102.602 174.606C101.07 175.611 99.7383 176.433 99.6654 176.433C99.5742 176.433 98.3702 175.738 96.9839 174.916C89.5961 170.459 78.7971 165.015 79.0707 165.874C79.1984 166.257 80.7307 167.353 84.9627 170.094C90.8912 173.912 95.9623 177.31 96.1083 177.547C96.1812 177.675 96.163 177.711 96.0536 177.657C95.7799 177.492 95.2144 178.406 95.3239 178.807C95.4333 179.246 92.8066 180.817 87.7902 183.32L84.0689 185.201L82.8832 183.868C78.4141 178.899 72.3579 173.364 72.139 174.058C72.0295 174.387 73.0693 175.83 76.9182 180.726C80.4571 185.22 81.2415 186.297 80.6395 185.786C80.4024 185.585 80.3294 185.64 80.22 186.06C80.1287 186.352 80.074 186.626 80.0923 186.681C80.1287 186.864 76.6629 188.27 74.0179 189.129C68.8373 190.846 64.9883 191.577 60.428 191.723C56.0135 191.869 52.803 191.467 48.2974 190.188C37.8815 187.247 22.1938 178.095 19.9866 173.656C19.6218 172.943 19.6035 172.724 19.7495 171.847C20.0778 169.838 20.6433 168.559 23.5072 163.408C25.6962 159.498 26.6083 157.525 26.7542 156.466C26.7907 156.137 27.0278 155.15 27.2467 154.274C27.6298 152.794 27.648 152.593 27.3927 151.899C27.2467 151.497 26.9184 151.004 26.6448 150.803C25.9516 150.273 24.018 150.2 20.7892 150.583C18.3266 150.857 16.5207 150.839 16.7214 150.529C16.7579 150.456 16.6667 150.236 16.5207 150.035C16.2471 149.67 16.2471 149.67 16.3383 150.09C16.393 150.309 16.3566 150.456 16.2654 150.383C15.864 150.145 16.1194 148.702 16.8491 147.204C17.8341 145.158 19.9684 141.723 20.1873 141.851C20.2785 141.924 20.2967 141.888 20.242 141.778C20.169 141.669 20.2602 141.431 20.4062 141.249C20.5703 141.066 20.6251 141.011 20.5521 141.157C20.4609 141.34 20.4974 141.376 20.6433 141.285C20.771 141.194 20.8257 141.029 20.771 140.883C20.7163 140.737 20.7528 140.646 20.8257 140.682C21.227 140.792 23.6532 137.029 25.2219 133.868C26.4259 131.493 27.6298 128.351 27.6663 127.621C27.6663 127.328 27.721 127.109 27.7757 127.109C27.8305 127.109 27.8669 126.926 27.8852 126.689C27.8852 126.47 28.0493 125.629 28.2318 124.826C28.4689 123.784 28.5601 122.633 28.5601 120.807C28.5601 117.975 28.3777 116.678 27.2285 111.837C26.8272 110.138 26.3894 107.946 26.2799 106.96C25.8969 103.781 26.5171 100.748 28.25 97.2592C29.3445 95.0671 31.7524 91.45 32.0077 91.5962C32.1172 91.6692 32.1537 91.651 32.099 91.5414C32.026 91.4318 32.1172 91.1943 32.2631 91.0116C32.4273 90.8289 32.482 90.7741 32.4091 90.9203C32.3179 91.0847 32.3543 91.1395 32.5003 91.0481C32.6097 90.9751 32.6644 90.8472 32.6097 90.7558C32.555 90.6828 32.6644 90.4636 32.8469 90.2626C33.011 90.0799 33.084 90.0434 32.9745 90.2078C32.8104 90.4453 32.8286 90.4453 33.1022 90.2443C33.2664 90.0982 33.3759 89.8973 33.3211 89.7694C33.2664 89.6415 33.3759 89.4223 33.5583 89.2761C33.8684 89.0387 33.8684 89.0387 33.613 89.3858C33.3576 89.7328 33.3576 89.7328 33.6495 89.4954C33.8319 89.3675 33.9413 89.1848 33.8866 89.1117C33.8319 89.0204 33.9778 88.7646 34.1967 88.5272C34.4703 88.2349 34.5251 88.2166 34.3427 88.4724C34.069 88.8377 34.069 88.8377 34.4703 88.5089C34.6892 88.3079 34.8352 88.0705 34.7805 87.9426C34.7257 87.8147 34.8899 87.559 35.1088 87.358C35.5284 87.0109 35.5284 87.0109 35.2547 87.3763C34.9993 87.7051 34.9993 87.7234 35.2912 87.4859C35.4736 87.358 35.5648 87.1753 35.5284 87.084C35.2547 86.6638 43.9194 77.7491 47.4765 74.7531C53.1679 69.9669 58.4944 66.4412 64.4593 63.4635C67.5786 61.9107 68.7278 61.4175 68.5454 61.7098C68.3812 61.9655 69.9865 61.929 71.2816 61.6367C71.8836 61.5088 73.653 61.0521 75.2036 60.6502C79.2167 59.5724 82.3542 59.0426 88.7022 58.3119C94.8131 57.6177 97.6041 57.1793 100.103 56.5034C104.791 55.2246 108.221 53.1786 110.099 50.5298C110.993 49.2693 111.741 47.6982 111.577 47.4425C111.522 47.3511 111.559 47.2781 111.65 47.2781C111.759 47.2781 111.814 47.1685 111.814 47.0406C111.796 46.931 111.942 46.2003 112.124 45.4513C113.274 40.7199 111.632 33.1204 107.911 26.1055C106.925 24.2239 106.415 23.3653 104.572 20.4241C104.043 19.5656 103.733 18.981 103.897 19.1089C104.08 19.2733 104.207 19.2915 104.299 19.1454C104.499 18.8166 105.722 18.9444 106.67 19.4011C107.564 19.8213 110.391 21.6664 112.507 23.2191C113.93 24.2604 117.998 27.2198 120.825 29.2658C162.927 59.7916 178.158 72.5975 191.311 88.5637C195.068 93.1124 199.209 98.538 205.502 107.16C206.688 108.786 207.728 110.083 207.819 110.029C207.91 109.974 208.038 110.029 208.111 110.138C208.184 110.284 208.166 110.303 208.038 110.23C207.71 110.029 207.783 110.284 208.202 110.869C208.403 111.161 208.64 111.362 208.731 111.307C208.822 111.253 208.95 111.307 209.023 111.417C209.096 111.563 209.078 111.581 208.95 111.508C208.622 111.307 208.695 111.691 209.041 111.965C209.297 112.184 209.333 112.184 209.187 111.965C209.096 111.801 209.114 111.746 209.242 111.837C209.351 111.91 209.406 112.075 209.351 112.202C209.297 112.33 209.406 112.55 209.588 112.696C209.88 112.915 209.899 112.915 209.734 112.677C209.643 112.513 209.734 112.604 209.953 112.86C210.19 113.116 210.355 113.445 210.318 113.591C210.3 113.737 210.373 113.865 210.482 113.865C210.592 113.865 211.869 115.509 213.291 117.518C218.8 125.228 221.847 129.027 221.993 128.37C222.139 127.73 220.096 123.565 216.794 117.792C202.912 93.5509 182.555 69.0352 160.574 50.0913C150.705 41.5967 141.183 34.4722 117.25 17.7388C110.939 13.3179 103.66 8.20287 101.106 6.35781C94.0835 1.33412 91.931 0.146698 89.5231 0.0188218C88.4833 -0.0359821 88.1003 0.0188218 87.4801 0.329377ZM105.867 184.598C106.105 184.891 106.086 184.909 105.813 184.672C105.63 184.544 105.484 184.397 105.484 184.361C105.484 184.215 105.63 184.306 105.867 184.598ZM107.509 185.877C107.746 186.169 107.728 186.188 107.454 185.95C107.272 185.822 107.126 185.676 107.126 185.64C107.126 185.494 107.272 185.585 107.509 185.877ZM129.928 205.205C130.165 205.46 130.311 205.661 130.256 205.661C130.22 205.661 129.983 205.46 129.746 205.205C129.508 204.949 129.362 204.748 129.417 204.748C129.454 204.748 129.691 204.949 129.928 205.205ZM132.391 207.488C132.993 208.091 133.43 208.584 133.376 208.584C133.339 208.584 132.81 208.091 132.208 207.488C131.606 206.885 131.168 206.392 131.223 206.392C131.26 206.392 131.789 206.885 132.391 207.488Z" fill="#1F284F"/>
<path d="M53.587 104.749C49.1726 105.206 44.9041 106.101 43.2989 106.905C41.7301 107.708 41.7301 108.402 43.2624 110.284C43.6272 110.741 43.8096 111.033 43.6819 110.96C43.4995 110.85 43.4813 110.942 43.5725 111.344C43.7549 112.129 43.8826 112.348 46.181 115.764C49.3003 120.441 50.7414 121.866 53.0216 122.469C55.0281 122.999 57.3995 122.597 60.3364 121.19C62.8719 120.003 64.5319 118.834 66.2649 117.08C68.8369 114.504 71.3907 110.375 71.1171 109.279C70.9347 108.549 72.6311 107.434 74.7471 106.905C75.8052 106.649 75.1485 106.356 72.2845 105.845C67.8701 105.041 65.1157 104.785 59.6979 104.731C56.7428 104.712 53.9884 104.712 53.587 104.749Z" fill="#1F284F"/>
<path d="M80.037 158.457C80.5477 158.877 82.007 159.535 86.8045 161.508C91.748 163.554 95.9253 165.49 99.5006 167.408C103.058 169.308 107.126 171.72 107.034 171.884C106.98 171.957 107.089 171.994 107.271 171.975C107.436 171.975 107.563 172.048 107.545 172.176C107.509 172.304 107.6 172.359 107.746 172.304C107.892 172.249 108.056 172.304 108.147 172.432C108.238 172.578 108.202 172.615 108.038 172.505C107.892 172.414 107.837 172.432 107.928 172.56C108.001 172.669 108.184 172.706 108.348 172.651C108.567 172.56 108.603 172.596 108.494 172.779C108.402 172.943 108.421 172.98 108.548 172.889C108.913 172.669 115.59 177.182 127.173 185.439C133.995 190.316 137.498 192.691 137.808 192.691C138.793 192.691 132.171 186.517 125.002 180.744C112.853 170.971 102.328 164.906 90.3799 160.832C86.5674 159.535 81.4051 158.165 80.3471 158.165C79.6904 158.183 79.6904 158.183 80.037 158.457Z" fill="#1F284F"/>
<path d="M87.4801 0.329377C85.437 1.37065 84.0142 4.4214 82.865 10.1758C82.19 13.5919 81.7887 16.4052 80.7672 24.7171C79.7822 32.9742 79.7457 33.2483 79.618 33.1204C79.5633 33.0656 79.3808 33.23 79.2167 33.4675L78.9248 33.9242L72.2849 31.0926C49.1547 21.2279 39.7421 17.958 36.7323 18.78C35.3095 19.1637 34.9811 20.278 35.5648 22.9451C35.729 23.7124 35.8749 24.5344 35.8749 24.7537C35.8932 24.9546 35.9661 25.1008 36.0574 25.0459C36.1303 24.9911 36.1486 25.1008 36.0938 25.3017C35.8932 25.9411 38.3375 32.4445 38.7024 32.2253C38.7571 32.1705 39.432 33.5223 40.1799 35.1847C41.9676 39.2219 45.853 46.9858 47.4765 49.8356C49.8297 53.9276 53.332 59.0061 53.6239 58.7138C53.6786 58.6773 52.9125 57.2889 51.9274 55.6448C49.8297 52.1191 47.4583 47.5704 46.3091 44.9032C44.5032 40.6285 42.8979 35.1481 42.2595 31.0378C41.9676 29.0649 41.9676 28.9553 42.2777 28.389C43.3904 26.4526 45.1781 25.9411 47.5312 26.9275C50.7782 28.2794 64.9154 35.3674 69.5487 37.9614C75.0394 41.0304 76.7176 42.3092 77.4108 43.935C77.7574 44.7388 77.7574 44.8302 77.4837 45.7984C76.3345 49.7991 74.9299 52.1374 71.8654 55.0602C69.5669 57.2524 67.0679 59.0792 57.8742 65.2903C50.3769 70.3688 47.4765 72.4148 43.8282 75.1915C34.9629 81.9507 29.8917 87.5955 26.59 94.3181C23.7261 100.146 22.7958 104.694 22.4857 114.413C22.1938 123.127 21.7196 126.78 20.2055 131.895C18.2354 138.563 15.4445 144.774 11.9786 150.236C8.40329 155.881 7.96549 156.922 8.00197 159.626C8.02022 160.832 8.14791 161.709 8.40329 162.494C8.60394 163.134 8.69515 163.609 8.62218 163.554C8.31208 163.371 9.22415 165.709 10.1545 167.554C11.6503 170.496 14.35 174.314 16.0282 175.903C16.4295 176.268 17.4328 177.109 18.2537 177.784C19.7495 178.954 20.4062 179.319 19.9137 178.661C19.713 178.406 19.7312 178.424 20.0778 178.698C20.4974 179.063 20.6251 179.282 20.2602 179.063C20.1326 178.99 20.1143 179.008 20.1873 179.136C20.2602 179.264 20.4974 179.447 20.7163 179.575C21.0993 179.776 21.0993 179.757 20.844 179.447C20.5886 179.118 20.6068 179.118 21.0446 179.447C21.3182 179.648 21.5007 179.867 21.4642 179.922C21.4277 179.977 21.5007 180.031 21.6284 180.031C21.756 180.031 22.4127 180.36 23.0877 180.78C23.7626 181.182 25.4955 181.986 26.9184 182.552C30.1106 183.849 30.8585 184.324 34.069 187.083C36.8782 189.494 37.1336 189.713 36.714 189.494C36.5316 189.385 36.5681 189.494 36.8053 189.787C39.2314 192.764 44.0106 195.029 49.1182 195.651C51.1431 195.888 54.7913 195.742 56.2324 195.358L57.2357 195.103L55.8676 195.048C54.8826 195.029 55.2656 194.975 57.2357 194.865C62.544 194.609 69.9318 193.385 75.4589 191.869C77.958 191.193 78.414 191.102 77.3925 191.522C76.9912 191.686 76.9182 191.741 77.2101 191.686C77.4655 191.65 78.414 191.54 79.3079 191.485C81.4786 191.321 83.1751 191.632 84.9263 192.472C85.6742 192.837 86.2579 193.075 86.2032 192.965C85.9295 192.49 86.5862 193.312 88.0091 195.249C90.5994 198.756 93.9011 203.597 100.486 213.498C106.871 223.107 107.564 224.094 107.783 223.893C108.002 223.655 107.272 221.902 105.32 217.937C100.906 209.023 95.4698 200.035 90.0156 192.618L88.0091 189.896L88.5381 189.019C89.1765 187.996 90.1068 187.138 91.5479 186.206C93.1714 185.165 95.4516 183.356 95.3604 183.192C95.3057 183.1 95.3604 182.973 95.4698 182.9C95.6158 182.808 95.634 182.845 95.5428 183.009C95.4333 183.192 95.4698 183.228 95.7435 183.119C97.9507 182.224 101.471 182.151 103.113 182.973L103.879 183.338L103.533 182.954C103.35 182.753 103.678 182.936 104.262 183.356C105.411 184.233 105.722 184.635 104.627 183.831L103.934 183.356L104.499 183.868C104.809 184.142 107.108 186.096 109.607 188.215C113.547 191.559 115.919 193.586 117.98 195.413C118.29 195.669 119.804 197.002 121.354 198.354C122.905 199.706 124.474 201.076 124.82 201.387C127.921 204.182 133.284 208.676 133.449 208.621C133.522 208.603 136.002 210.831 138.957 213.59C147.841 221.883 150.176 223.911 150.176 223.327C150.176 221.975 137.699 207.963 129.435 200.09C120.278 191.321 114.094 186.261 104.7 179.812L101.836 177.839L103.35 176.177C105.667 173.638 106.232 172.779 105.63 172.779C105.503 172.779 104.135 173.601 102.602 174.606C101.07 175.611 99.7383 176.433 99.6654 176.433C99.5742 176.433 98.3702 175.738 96.9839 174.916C89.5961 170.459 78.7971 165.015 79.0707 165.874C79.1984 166.257 80.7307 167.353 84.9627 170.094C90.8912 173.912 95.9623 177.31 96.1083 177.547C96.1812 177.675 96.163 177.711 96.0536 177.657C95.7799 177.492 95.2144 178.406 95.3239 178.807C95.4333 179.246 92.8066 180.817 87.7902 183.32L84.0689 185.201L82.8832 183.868C78.4141 178.899 72.3579 173.364 72.139 174.058C72.0295 174.387 73.0693 175.83 76.9182 180.726C80.4571 185.22 81.2415 186.297 80.6395 185.786C80.4024 185.585 80.3294 185.64 80.22 186.06C80.1287 186.352 80.074 186.626 80.0923 186.681C80.1287 186.864 76.6629 188.27 74.0179 189.129C68.8373 190.846 64.9883 191.577 60.428 191.723C56.0135 191.869 52.803 191.467 48.2974 190.188C37.8815 187.247 22.1938 178.095 19.9866 173.656C19.6218 172.943 19.6035 172.724 19.7495 171.847C20.0778 169.838 20.6433 168.559 23.5072 163.408C25.6962 159.498 26.6083 157.525 26.7542 156.466C26.7907 156.137 27.0278 155.15 27.2467 154.274C27.6298 152.794 27.648 152.593 27.3927 151.899C27.2467 151.497 26.9184 151.004 26.6448 150.803C25.9516 150.273 24.018 150.2 20.7892 150.583C18.3266 150.857 16.5207 150.839 16.7214 150.529C16.7579 150.456 16.6667 150.236 16.5207 150.035C16.2471 149.67 16.2471 149.67 16.3383 150.09C16.393 150.309 16.3566 150.456 16.2654 150.383C15.864 150.145 16.1194 148.702 16.8491 147.204C17.8341 145.158 19.9684 141.723 20.1873 141.851C20.2785 141.924 20.2967 141.888 20.242 141.778C20.169 141.669 20.2602 141.431 20.4062 141.249C20.5703 141.066 20.6251 141.011 20.5521 141.157C20.4609 141.34 20.4974 141.376 20.6433 141.285C20.771 141.194 20.8257 141.029 20.771 140.883C20.7163 140.737 20.7528 140.646 20.8257 140.682C21.227 140.792 23.6532 137.029 25.2219 133.868C26.4259 131.493 27.6298 128.351 27.6663 127.621C27.6663 127.328 27.721 127.109 27.7757 127.109C27.8305 127.109 27.8669 126.926 27.8852 126.689C27.8852 126.47 28.0493 125.629 28.2318 124.826C28.4689 123.784 28.5601 122.633 28.5601 120.807C28.5601 117.975 28.3777 116.678 27.2285 111.837C26.8272 110.138 26.3894 107.946 26.2799 106.96C25.8969 103.781 26.5171 100.748 28.25 97.2592C29.3445 95.0671 31.7524 91.45 32.0077 91.5962C32.1172 91.6692 32.1537 91.651 32.099 91.5414C32.026 91.4318 32.1172 91.1943 32.2631 91.0116C32.4273 90.8289 32.482 90.7741 32.4091 90.9203C32.3179 91.0847 32.3543 91.1395 32.5003 91.0481C32.6097 90.9751 32.6644 90.8472 32.6097 90.7558C32.555 90.6828 32.6644 90.4636 32.8469 90.2626C33.011 90.0799 33.084 90.0434 32.9745 90.2078C32.8104 90.4453 32.8286 90.4453 33.1022 90.2443C33.2664 90.0982 33.3759 89.8973 33.3211 89.7694C33.2664 89.6415 33.3759 89.4223 33.5583 89.2761C33.8684 89.0387 33.8684 89.0387 33.613 89.3858C33.3576 89.7328 33.3576 89.7328 33.6495 89.4954C33.8319 89.3675 33.9413 89.1848 33.8866 89.1117C33.8319 89.0204 33.9778 88.7646 34.1967 88.5272C34.4703 88.2349 34.5251 88.2166 34.3427 88.4724C34.069 88.8377 34.069 88.8377 34.4703 88.5089C34.6892 88.3079 34.8352 88.0705 34.7805 87.9426C34.7257 87.8147 34.8899 87.559 35.1088 87.358C35.5284 87.0109 35.5284 87.0109 35.2547 87.3763C34.9993 87.7051 34.9993 87.7234 35.2912 87.4859C35.4736 87.358 35.5648 87.1753 35.5284 87.084C35.2547 86.6638 43.9194 77.7491 47.4765 74.7531C53.1679 69.9669 58.4944 66.4412 64.4593 63.4635C67.5786 61.9107 68.7278 61.4175 68.5454 61.7098C68.3812 61.9655 69.9865 61.929 71.2816 61.6367C71.8836 61.5088 73.653 61.0521 75.2036 60.6502C79.2167 59.5724 82.3542 59.0426 88.7022 58.3119C94.8131 57.6177 97.6041 57.1793 100.103 56.5034C104.791 55.2246 108.221 53.1786 110.099 50.5298C110.993 49.2693 111.741 47.6982 111.577 47.4425C111.522 47.3511 111.559 47.2781 111.65 47.2781C111.759 47.2781 111.814 47.1685 111.814 47.0406C111.796 46.931 111.942 46.2003 112.124 45.4513C113.274 40.7199 111.632 33.1204 107.911 26.1055C106.925 24.2239 106.415 23.3653 104.572 20.4241C104.043 19.5656 103.733 18.981 103.897 19.1089C104.08 19.2733 104.207 19.2915 104.299 19.1454C104.499 18.8166 105.722 18.9444 106.67 19.4011C107.564 19.8213 110.391 21.6664 112.507 23.2191C113.93 24.2604 117.998 27.2198 120.825 29.2658C162.927 59.7916 178.158 72.5975 191.311 88.5637C195.068 93.1124 199.209 98.538 205.502 107.16C206.688 108.786 207.728 110.083 207.819 110.029C207.91 109.974 208.038 110.029 208.111 110.138C208.184 110.284 208.166 110.303 208.038 110.23C207.71 110.029 207.783 110.284 208.202 110.869C208.403 111.161 208.64 111.362 208.731 111.307C208.822 111.253 208.95 111.307 209.023 111.417C209.096 111.563 209.078 111.581 208.95 111.508C208.622 111.307 208.695 111.691 209.041 111.965C209.297 112.184 209.333 112.184 209.187 111.965C209.096 111.801 209.114 111.746 209.242 111.837C209.351 111.91 209.406 112.075 209.351 112.202C209.297 112.33 209.406 112.55 209.588 112.696C209.88 112.915 209.899 112.915 209.734 112.677C209.643 112.513 209.734 112.604 209.953 112.86C210.19 113.116 210.355 113.445 210.318 113.591C210.3 113.737 210.373 113.865 210.482 113.865C210.592 113.865 211.869 115.509 213.291 117.518C218.8 125.228 221.847 129.027 221.993 128.37C222.139 127.73 220.096 123.565 216.794 117.792C202.912 93.5509 182.555 69.0352 160.574 50.0913C150.705 41.5967 141.183 34.4722 117.25 17.7388C110.939 13.3179 103.66 8.20287 101.106 6.35781C94.0835 1.33412 91.931 0.146698 89.5231 0.0188218C88.4833 -0.0359821 88.1003 0.0188218 87.4801 0.329377ZM105.867 184.598C106.105 184.891 106.086 184.909 105.813 184.672C105.63 184.544 105.484 184.397 105.484 184.361C105.484 184.215 105.63 184.306 105.867 184.598ZM107.509 185.877C107.746 186.169 107.728 186.188 107.454 185.95C107.272 185.822 107.126 185.676 107.126 185.64C107.126 185.494 107.272 185.585 107.509 185.877ZM129.928 205.205C130.165 205.46 130.311 205.661 130.256 205.661C130.22 205.661 129.983 205.46 129.746 205.205C129.508 204.949 129.362 204.748 129.417 204.748C129.454 204.748 129.691 204.949 129.928 205.205ZM132.391 207.488C132.993 208.091 133.43 208.584 133.376 208.584C133.339 208.584 132.81 208.091 132.208 207.488C131.606 206.885 131.168 206.392 131.223 206.392C131.26 206.392 131.789 206.885 132.391 207.488Z" fill="#1F284F"/>
</svg>
