<svg  viewBox="0 0 66 66" fill="none" xmlns="http://www.w3.org/2000/svg">
<path d="M65.3494 27.2897C65.1707 27.1494 63.5001 25.905 59.9759 25.905C59.0451 25.9092 58.1169 25.9875 57.1998 26.1402C56.5178 21.5284 52.7737 19.3614 52.6004 19.261L51.6544 18.722L51.0316 19.6075C50.2519 20.7983 49.5631 22.0275 49.229 23.4067C48.5978 26.0398 48.9814 28.512 50.3372 30.6254C48.6982 31.526 45.9056 31.6058 45.3748 31.625H2.17508C1.03933 31.6264 0.118076 32.5325 0.111201 33.6518C0.0603264 37.4097 0.596576 41.2872 1.90695 44.8154C3.40433 48.6902 5.6332 51.5447 8.5317 53.2909C11.7794 55.253 17.0567 56.375 23.0393 56.375C25.7412 56.3833 28.4389 56.1427 31.0954 55.6545C34.7887 54.9849 38.3431 53.7117 41.6101 51.887C44.3023 50.3484 46.7251 48.3918 48.7862 46.0914C52.2306 42.2442 54.2821 37.961 55.8083 34.1537C56.0132 34.1537 56.2181 34.1537 56.4161 34.1537C60.1877 34.1537 62.5059 32.6645 63.7847 31.4174C64.6344 30.6213 65.2986 29.6519 65.7289 28.578L65.9998 27.797L65.3494 27.2897Z" fill="#2395EC"/>
<path d="M11 30.25H6.875C6.116 30.25 5.5 29.634 5.5 28.875V24.75C5.5 23.991 6.116 23.375 6.875 23.375H11C11.759 23.375 12.375 23.991 12.375 24.75V28.875C12.375 29.634 11.759 30.25 11 30.25Z" fill="#2395EC"/>
<path d="M19.25 30.25H15.125C14.366 30.25 13.75 29.634 13.75 28.875V24.75C13.75 23.991 14.366 23.375 15.125 23.375H19.25C20.009 23.375 20.625 23.991 20.625 24.75V28.875C20.625 29.634 20.009 30.25 19.25 30.25Z" fill="#2395EC"/>
<path d="M27.5 30.25H23.375C22.616 30.25 22 29.634 22 28.875V24.75C22 23.991 22.616 23.375 23.375 23.375H27.5C28.259 23.375 28.875 23.991 28.875 24.75V28.875C28.875 29.634 28.259 30.25 27.5 30.25Z" fill="#2395EC"/>
<path d="M35.75 30.25H31.625C30.866 30.25 30.25 29.634 30.25 28.875V24.75C30.25 23.991 30.866 23.375 31.625 23.375H35.75C36.509 23.375 37.125 23.991 37.125 24.75V28.875C37.125 29.634 36.509 30.25 35.75 30.25Z" fill="#2395EC"/>
<path d="M19.25 22H15.125C14.366 22 13.75 21.384 13.75 20.625V16.5C13.75 15.741 14.366 15.125 15.125 15.125H19.25C20.009 15.125 20.625 15.741 20.625 16.5V20.625C20.625 21.384 20.009 22 19.25 22Z" fill="#2395EC"/>
<path d="M27.5 22H23.375C22.616 22 22 21.384 22 20.625V16.5C22 15.741 22.616 15.125 23.375 15.125H27.5C28.259 15.125 28.875 15.741 28.875 16.5V20.625C28.875 21.384 28.259 22 27.5 22Z" fill="#2395EC"/>
<path d="M35.75 22H31.625C30.866 22 30.25 21.384 30.25 20.625V16.5C30.25 15.741 30.866 15.125 31.625 15.125H35.75C36.509 15.125 37.125 15.741 37.125 16.5V20.625C37.125 21.384 36.509 22 35.75 22Z" fill="#2395EC"/>
<path d="M35.75 13.75H31.625C30.866 13.75 30.25 13.134 30.25 12.375V8.25C30.25 7.491 30.866 6.875 31.625 6.875H35.75C36.509 6.875 37.125 7.491 37.125 8.25V12.375C37.125 13.134 36.509 13.75 35.75 13.75Z" fill="#2395EC"/>
<path d="M44 30.25H39.875C39.116 30.25 38.5 29.634 38.5 28.875V24.75C38.5 23.991 39.116 23.375 39.875 23.375H44C44.759 23.375 45.375 23.991 45.375 24.75V28.875C45.375 29.634 44.759 30.25 44 30.25Z" fill="#2395EC"/>
</svg>
