<svg viewBox="0 0 57 57" fill="none" xmlns="http://www.w3.org/2000/svg">
<path d="M20.5832 52.2501C24.9532 52.2501 28.4998 48.7034 28.4998 44.3334V36.4167H20.5832C16.2132 36.4167 12.6665 39.9634 12.6665 44.3334C12.6665 48.7034 16.2132 52.2501 20.5832 52.2501Z" fill="#0ACF83"/>
<path d="M12.6665 28.4999C12.6665 24.1299 16.2132 20.5833 20.5832 20.5833H28.4998V36.4166H20.5832C16.2132 36.4166 12.6665 32.8699 12.6665 28.4999Z" fill="#A259FF"/>
<path d="M12.6665 12.6667C12.6665 8.29667 16.2132 4.75 20.5832 4.75H28.4998V20.5833H20.5832C16.2132 20.5833 12.6665 17.0367 12.6665 12.6667Z" fill="#F24E1E"/>
<path d="M28.5 4.75H36.4167C40.7867 4.75 44.3333 8.29667 44.3333 12.6667C44.3333 17.0367 40.7867 20.5833 36.4167 20.5833H28.5V4.75Z" fill="#FF7262"/>
<path d="M44.3333 28.4999C44.3333 32.8699 40.7867 36.4166 36.4167 36.4166C32.0467 36.4166 28.5 32.8699 28.5 28.4999C28.5 24.1299 32.0467 20.5833 36.4167 20.5833C40.7867 20.5833 44.3333 24.1299 44.3333 28.4999Z" fill="#1ABCFE"/>
</svg>
