<svg viewBox="0 0 55 55" fill="none" xmlns="http://www.w3.org/2000/svg">
<path d="M35.8016 32.991C36.7476 32.3443 38.0599 31.7847 38.0599 31.7847C38.0599 31.7847 34.3251 32.4604 30.6095 32.7692C26.0639 33.1455 21.1805 33.2226 18.7291 32.8946C12.9288 32.1225 21.9139 29.9894 21.9139 29.9894C21.9139 29.9894 18.4299 29.7581 14.1351 31.8231C9.06847 34.2746 26.6815 35.3941 35.8016 32.991Z" fill="#5382A1"/>
<path d="M27.5602 29.893C25.7265 25.7721 19.5402 22.1529 27.5602 15.8218C37.5683 7.92741 32.4339 2.79297 32.4339 2.79297C34.5089 10.9481 25.1378 13.4188 21.7501 18.4856C19.4435 21.9503 22.8794 25.666 27.5602 29.893Z" fill="#F8981D"/>
<path d="M38.6199 12.8879C38.6296 12.8879 21.7114 17.1151 29.7893 26.4186C32.1731 29.1596 29.1619 31.6303 29.1619 31.6303C29.1619 31.6303 35.2132 28.5034 32.4337 24.5947C29.8375 20.9465 27.8493 19.1322 38.6199 12.8879Z" fill="#F8981D"/>
<path d="M38.0314 38.9941C37.9832 39.1099 37.8384 39.2355 37.8384 39.2451C50.2205 35.9927 45.6652 27.7698 39.7491 29.8547C39.2279 30.038 38.9579 30.4627 38.9579 30.4627C38.9579 30.4627 39.2859 30.3274 40.0196 30.1731C43.0112 29.5458 47.306 34.1783 38.0314 38.9941Z" fill="#5382A1"/>
<path d="M42.5864 45.0067C42.5864 45.0067 43.9858 46.1553 41.0519 47.0528C35.464 48.7417 17.8124 49.2531 12.9096 47.1205C11.1435 46.3579 14.4537 45.2866 15.4961 45.0647C16.5769 44.833 17.2043 44.8715 17.2043 44.8715C15.2451 43.4915 4.53245 47.5836 11.7611 48.7515C31.4685 51.9554 47.7016 47.3133 42.5864 45.0067Z" fill="#5382A1"/>
<path d="M21.007 41.011C13.4116 43.1343 25.6299 47.5159 35.3 43.3754C33.7175 42.758 32.5786 42.0437 32.5786 42.0437C28.2645 42.8641 26.2669 42.9219 22.3485 42.478C19.1154 42.1113 21.007 41.011 21.007 41.011Z" fill="#5382A1"/>
<path d="M38.3591 50.392C30.7638 51.8203 21.3928 51.6564 15.8433 50.7393C15.8433 50.7298 16.9821 51.6756 22.8306 52.052C31.7288 52.6215 45.3947 51.7333 45.7132 47.5256C45.7132 47.5256 45.0956 49.1182 38.3591 50.392Z" fill="#5382A1"/>
<path d="M34.1515 36.8611C28.4379 37.9614 25.1277 37.9324 20.9489 37.4981C17.7157 37.1602 19.8294 35.5969 19.8294 35.5969C11.4524 38.3764 24.4812 41.5227 36.1877 38.0965C34.9429 37.6621 34.1515 36.8611 34.1515 36.8611Z" fill="#5382A1"/>
</svg>
