<svg  viewBox="0 0 50 50" fill="none" xmlns="http://www.w3.org/2000/svg">
<path d="M47.4605 2.53906H2.53906V47.4607H47.4605V2.53906Z" fill="#F0DB4F"/>
<path d="M26.9852 37.5741C26.9852 41.9459 24.4182 43.9413 20.6779 43.9413C17.2989 43.9413 15.3437 42.1967 14.3408 40.0811L17.7801 38.0054C18.4419 39.1785 19.0436 40.1711 20.4975 40.1711C21.8812 40.1711 22.7638 39.6297 22.7638 37.5141V23.165H26.9852V37.5741Z" fill="#323330"/>
<path d="M36.9721 43.9411C33.0515 43.9411 30.5146 42.076 29.2812 39.6295L32.7206 37.6439C33.623 39.1181 34.8062 40.2109 36.8818 40.2109C38.6266 40.2109 39.7494 39.3387 39.7494 38.1255C39.7494 36.6814 38.6064 36.1703 36.6713 35.3179L35.6185 34.8667C32.5702 33.5731 30.5547 31.9387 30.5547 28.4995C30.5547 25.3309 32.9712 22.9243 36.7312 22.9243C39.4186 22.9243 41.3438 23.8568 42.7275 26.3035L39.4386 28.4092C38.7167 27.1156 37.9346 26.6044 36.7213 26.6044C35.4879 26.6044 34.7058 27.3866 34.7058 28.4092C34.7058 29.6727 35.4879 30.1842 37.3028 30.9761L38.3556 31.4273C41.9453 32.9615 43.9607 34.5359 43.9607 38.0654C43.9609 41.8555 40.9728 43.9411 36.9721 43.9411Z" fill="#323330"/>
</svg>
