<svg viewBox="0 0 64 44" fill="none" xmlns="http://www.w3.org/2000/svg">
<g clip-path="url(#clip0_193_2189)">
<path d="M15.3854 40.0875H12.9167C12.8333 35.8805 12.5938 31.9119 12.1979 28.1816L8.41667 40.0875H6.53646L2.79688 28.1816C2.52257 31.7541 2.34896 35.7227 2.27604 40.0875H0C0.145833 34.7761 0.510417 29.7961 1.09375 25.1473H4.16667L7.72917 36.1224L11.3125 25.1473H14.2396C14.8785 30.5884 15.2569 35.5684 15.375 40.0875H15.3854Z" fill="#00758F"/>
<path d="M26.0991 29.0652C25.0957 34.5799 23.7693 38.594 22.12 41.1077C20.8387 43.0394 19.4325 44.0036 17.9012 44C17.3809 43.9748 16.8701 43.8499 16.396 43.6319V42.3015C16.7413 42.3475 17.0894 42.3686 17.4377 42.3646C18.067 42.3942 18.6838 42.1797 19.1616 41.7651C19.402 41.566 19.5967 41.3168 19.7325 41.0344C19.8683 40.7521 19.9418 40.4434 19.9481 40.1296C19.8468 39.2596 19.6422 38.405 19.3387 37.5844L16.6304 29.0652H19.0522L21.0002 35.4388C21.4377 36.8867 21.62 37.8964 21.547 38.4678C22.6486 35.4315 23.3967 32.2761 23.7762 29.0652H26.0991Z" fill="#00758F"/>
<path d="M36.9165 35.9436C36.9318 36.5348 36.8164 37.1219 36.5785 37.6623C36.3406 38.2027 35.9864 38.6827 35.5415 39.0673C34.5012 39.9183 33.186 40.351 31.8488 40.2821C30.3444 40.2674 28.8802 39.7905 27.6509 38.9148L28.2863 37.6317C29.2599 38.1698 30.3439 38.4722 31.453 38.5152C32.1936 38.557 32.9268 38.3479 33.5363 37.9209C33.7895 37.7267 33.994 37.4751 34.1333 37.1864C34.2726 36.8978 34.3428 36.5802 34.3384 36.2591C34.3384 35.3757 33.729 34.6184 32.604 33.9821C31.5623 33.4036 29.479 32.2046 29.479 32.2046C28.9471 31.8757 28.5109 31.4106 28.2145 30.8564C27.9182 30.3023 27.7722 29.6789 27.7915 29.0494C27.7728 28.4965 27.8762 27.9463 28.0942 27.4388C28.3122 26.9313 28.6394 26.4791 29.0519 26.115C29.9561 25.344 31.1143 24.9442 32.2967 24.9949C33.6228 24.9836 34.9224 25.3698 36.0311 26.1045L35.4946 27.3456C34.6004 26.945 33.6343 26.7338 32.6561 26.725C32.0283 26.6749 31.4045 26.8623 30.9061 27.2509C30.7004 27.4249 30.5347 27.6421 30.4204 27.8873C30.3062 28.1324 30.2462 28.3998 30.2446 28.6708C30.2446 29.5542 30.8696 30.322 32.0207 30.9688C33.0623 31.542 35.1873 32.7673 35.1873 32.7673C36.3436 33.593 36.9165 34.4764 36.9165 35.9226V35.9436Z" fill="#F29111"/>
<path fill-rule="evenodd" clip-rule="evenodd" d="M41.3283 37.0952C40.7345 36.1224 40.4325 34.5605 40.4325 32.4097C40.4325 28.6444 41.5627 26.7635 43.8231 26.767C44.3373 26.7316 44.8514 26.8381 45.3102 27.0753C45.769 27.3125 46.1551 27.6713 46.4272 28.1133C47.0279 29.0844 47.3266 30.634 47.3231 32.762C47.3231 36.5553 46.1946 38.4502 43.9377 38.4467C43.4236 38.481 42.9099 38.374 42.4514 38.1369C41.9928 37.8998 41.6065 37.5417 41.3335 37.1005L41.3283 37.0952ZM50.1147 40.4451L47.396 39.0936C47.6419 38.8928 47.8685 38.6692 48.0731 38.4257C49.2259 37.0549 49.8022 35.0268 49.8022 32.3413C49.8022 27.3981 47.8925 24.9265 44.0731 24.9265C43.2442 24.8815 42.4162 25.0288 41.6524 25.3569C40.8887 25.6851 40.2095 26.1854 39.6668 26.8196C38.5175 28.1939 37.9429 30.215 37.9429 32.883C37.9429 35.5509 38.4533 37.4791 39.4741 38.6676C40.4012 39.7719 41.8075 40.3294 43.6877 40.3294C44.3409 40.3351 44.9916 40.2466 45.62 40.0664L49.1512 42.1436L50.1147 40.4661V40.4451Z" fill="#F29111"/>
<path d="M58.9688 40.0875H51.9531V25.1473H54.3125V38.2469H58.9688V40.0875Z" fill="#F29111"/>
<path d="M60.651 40.0822H61.0417V38.5625H61.5625V38.2522H60.125V38.5625H60.6458V40.0822H60.651ZM63.6302 40.0822H64V38.2522H63.4427L62.9896 39.5038L62.5 38.2522H61.9792V40.0822H62.3281V38.6939L62.849 40.0822H63.1146L63.6354 38.6939V40.0822H63.6302Z" fill="#F29111"/>
<path fill-rule="evenodd" clip-rule="evenodd" d="M61.9325 20.1463C60.7557 20.0704 59.5765 20.2497 58.4741 20.6722C58.2085 20.7827 57.7814 20.7827 57.745 21.1245C57.8856 21.2665 57.9012 21.5031 58.0314 21.7029C58.2727 22.1209 58.5848 22.4929 58.9533 22.802C59.3283 23.0912 59.7033 23.3805 60.0991 23.6329C60.7919 24.0641 61.5783 24.3165 62.2502 24.753C62.646 25.0054 63.0366 25.3262 63.4325 25.5997C63.6252 25.7417 63.7502 25.9783 64.0002 26.0677V26.0151C63.8752 25.8521 63.8387 25.6154 63.7137 25.4367L63.1929 24.9108C62.6697 24.2114 62.0446 23.5961 61.3387 23.086C60.7658 22.6863 59.5158 22.1447 59.2866 21.5084L59.2502 21.4716C59.6678 21.4108 60.0792 21.3122 60.4794 21.1771C61.0887 21.0193 61.6408 21.0561 62.2606 20.8931C62.5471 20.8195 62.8335 20.7301 63.12 20.6407V20.4776C62.7971 20.1516 62.5679 19.7204 62.2294 19.4259C61.305 18.6126 60.3213 17.8708 59.2866 17.2067C58.7346 16.8491 58.021 16.6125 57.4325 16.3075C57.2189 16.197 56.8648 16.1444 56.7398 15.9604C56.4461 15.5257 56.1999 15.0602 56.0054 14.5721C55.4846 13.5834 54.9637 12.4686 54.5471 11.4168C54.2873 10.7004 53.9864 9.99975 53.646 9.31857C51.9885 6.47517 49.5957 4.14097 46.7241 2.56633C46.0026 2.21184 45.2343 1.9639 44.4429 1.8301C44.0002 1.8301 43.5523 1.77226 43.1096 1.75648C42.8202 1.56695 42.5451 1.35602 42.2866 1.12543C41.245 0.473344 38.6408 -0.930743 37.9012 0.925597C37.4221 2.10356 38.6148 3.25523 39.0262 3.84946C39.3701 4.26993 39.6735 4.72247 39.9325 5.20096C40.0575 5.51123 40.0939 5.83727 40.2189 6.15806C40.4804 6.98216 40.79 7.78992 41.146 8.57708C41.339 8.96634 41.5601 9.34073 41.8075 9.6972C41.9481 9.89703 42.1981 9.98643 42.2502 10.3125C42.0546 10.7422 41.9179 11.1969 41.8439 11.664C41.1981 13.7044 41.4481 16.2286 42.3648 17.7273C42.646 18.1796 43.3283 19.1735 44.2346 18.7791C45.0366 18.4583 44.8596 17.4276 45.0939 16.5283C45.146 16.3075 45.0939 16.1655 45.2137 16.0024V16.034C45.4637 16.5599 45.7346 17.0279 45.9481 17.5327C46.5803 18.4724 47.3616 19.3004 48.2606 19.9833C48.6877 20.3094 49.0262 20.8668 49.5627 21.0666V21.0351H49.5262C49.4054 20.8964 49.2671 20.7744 49.1148 20.6722C48.7764 20.3378 48.4663 19.9755 48.1877 19.5889C47.4318 18.5523 46.7645 17.4528 46.1929 16.3022C45.9064 15.7395 45.6721 15.1242 45.4273 14.5668C45.3179 14.3512 45.3179 14.0409 45.1408 13.92C44.8044 14.2869 44.5125 14.693 44.271 15.1295C43.9728 16.0086 43.7975 16.9255 43.7502 17.8535C43.6773 17.8535 43.7137 17.8535 43.6773 17.8903C43.1096 17.7431 42.9116 17.1489 42.6981 16.644C42.1426 15.0957 42.0861 13.4097 42.5366 11.827C42.6616 11.4484 43.1981 10.2494 42.9794 9.89703C42.8752 9.54995 42.5158 9.37116 42.3231 9.08193C42.0726 8.72022 41.858 8.33447 41.6825 7.93026C41.2554 6.91532 41.0366 5.80046 40.5783 4.77501C40.3178 4.28828 40.0182 3.82396 39.6825 3.38669C39.3117 2.95192 38.9837 2.48167 38.7033 1.98261C38.6148 1.78277 38.4898 1.45673 38.6304 1.24112C38.6412 1.17974 38.6714 1.12354 38.7165 1.08089C38.7615 1.03825 38.819 1.01145 38.8804 1.00448C39.1148 0.804646 39.771 1.05707 40.0054 1.1675C40.6394 1.40932 41.244 1.72337 41.8075 2.10356C42.0575 2.28236 42.3283 2.62943 42.6408 2.71357H43.0158C43.5887 2.83978 44.2294 2.75039 44.7658 2.91341C45.6705 3.21746 46.5333 3.63625 47.3335 4.15973C49.695 5.68417 51.6128 7.81479 52.8908 10.3335C53.1096 10.7437 53.1981 11.1276 53.4116 11.5588C53.7866 12.4423 54.2502 13.3468 54.6252 14.1882C54.9545 15.0405 55.3791 15.8521 55.8908 16.6072C56.1616 16.9858 57.2294 17.1857 57.7085 17.3855C58.129 17.5383 58.5411 17.7139 58.9429 17.9114C59.5471 18.29 60.1512 18.7212 60.7241 19.1367C61.0054 19.3575 61.9012 19.8045 61.9533 20.1884L61.9325 20.1463Z" fill="#00758F"/>
<path fill-rule="evenodd" clip-rule="evenodd" d="M43.75 4.45937C43.5021 4.45683 43.255 4.48868 43.0156 4.55403V4.59084H43.0521C43.2256 4.84962 43.417 5.09565 43.625 5.32706C43.7656 5.6163 43.8906 5.90553 44.0313 6.19476L44.0677 6.15795C44.2 6.05194 44.3037 5.91398 44.3693 5.75681C44.4348 5.59964 44.4601 5.42833 44.4427 5.2587C44.3385 5.13249 44.3177 5.00628 44.2292 4.88007C44.1406 4.75386 43.8906 4.61187 43.75 4.46463V4.45937Z" fill="#00758F"/>
</g>
<defs>
<clipPath id="clip0_193_2189">
<rect width="64" height="44" fill="white"/>
</clipPath>
</defs>
</svg>
