<svg  viewBox="0 0 53 53" fill="none" xmlns="http://www.w3.org/2000/svg">
<g clip-path="url(#clip0_193_2149)">
<path fill-rule="evenodd" clip-rule="evenodd" d="M31.2073 0C30.8435 0.00571512 30.4831 0.0707475 30.1402 0.192553C30.7732 0.608235 31.2276 1.24762 31.413 1.98388C31.4258 2.07958 31.4537 2.14843 31.4676 2.24412C31.4834 2.3257 31.4923 2.40845 31.4944 2.49152C31.549 3.70052 31.1794 3.85223 30.9201 4.56643C30.7325 4.99983 30.6519 5.47235 30.6853 5.94376C30.7187 6.41516 30.865 6.87147 31.1119 7.27385C31.1556 7.38019 31.2106 7.48152 31.2758 7.5761C30.7551 4.09963 33.6437 3.57799 34.1819 2.49152C34.2225 1.54393 33.4426 0.911419 32.8265 0.471464C32.3431 0.165782 31.7832 0.00392762 31.2119 0.00466796L31.2073 0ZM35.5593 0.78305C35.5338 0.914445 35.5249 1.04852 35.5326 1.18216C35.5186 1.29186 35.5186 1.42956 35.5047 1.53926C35.4794 1.65074 35.4475 1.76062 35.4094 1.86835C35.3789 1.98033 35.3424 2.09058 35.3001 2.19861C35.2455 2.30831 35.2036 2.40517 35.149 2.51486C35.1083 2.56971 35.0804 2.62456 35.0397 2.67941L34.9572 2.80077C34.8886 2.89764 34.8212 2.99333 34.7526 3.07618C34.677 3.16495 34.5946 3.24766 34.5062 3.32359V3.33642C34.4236 3.40528 34.3411 3.48813 34.2458 3.55698C33.9587 3.77638 33.6297 3.94092 33.3287 4.14748C33.2319 4.20837 33.1405 4.27748 33.0555 4.35404C32.9625 4.41947 32.8754 4.49288 32.7951 4.57343C32.7054 4.65431 32.6226 4.74253 32.5475 4.83717C32.4713 4.92252 32.4024 5.01427 32.3418 5.11141C32.2732 5.20827 32.2058 5.30397 32.15 5.40083C32.0942 5.49769 32.0558 5.60155 32.0012 5.71825C31.9587 5.82147 31.9223 5.92707 31.8919 6.0345C31.8501 6.1582 31.8233 6.2679 31.7954 6.3846C31.7826 6.43945 31.7826 6.5083 31.7687 6.56315C31.7547 6.618 31.7548 6.67285 31.7408 6.7277C31.7408 6.83739 31.7269 6.96109 31.7269 7.07079C31.7245 7.1535 31.7292 7.23627 31.7408 7.31819C31.7413 7.43612 31.7553 7.5536 31.7826 7.66829C31.7984 7.77926 31.8209 7.88917 31.8501 7.99738C31.8919 8.11408 31.9187 8.21794 31.9605 8.32764C31.9872 8.39649 32.0291 8.46534 32.0558 8.52019L28.908 7.28318C28.3745 7.13147 27.8537 6.99494 27.3202 6.87123L26.4577 6.66468C25.637 6.50013 24.8012 6.37643 23.9666 6.29357C23.9399 6.29357 23.9259 6.27957 23.898 6.27957C23.0774 6.19788 22.2707 6.15587 21.4477 6.15587C20.8455 6.15587 20.2434 6.18388 19.6552 6.22472C18.8206 6.27957 17.9849 6.38927 17.1503 6.52697C16.9445 6.55498 16.7399 6.59582 16.5342 6.63667C16.1099 6.71953 15.6996 6.81522 15.302 6.91208L14.6871 7.07662C14.4814 7.15948 14.2896 7.25517 14.0978 7.33803L13.6468 7.54342C13.6189 7.55742 13.5921 7.55742 13.5782 7.57143C13.441 7.64028 13.3178 7.69513 13.1946 7.76398C13.1618 7.77503 13.1299 7.78869 13.0993 7.80483C12.9481 7.87368 12.7982 7.95653 12.675 8.02539C12.5785 8.06623 12.4832 8.12108 12.4007 8.16193C12.3611 8.18749 12.3199 8.21049 12.2774 8.23078C12.1542 8.29963 12.031 8.36848 11.9217 8.43734C11.8087 8.50014 11.6989 8.5687 11.5928 8.64272C11.4975 8.71158 11.4021 8.76643 11.3196 8.83528C11.3057 8.84928 11.2917 8.84928 11.2789 8.86329C11.1889 8.92289 11.102 8.98716 11.0185 9.05584L10.9907 9.08268L10.7861 9.24839C10.7582 9.26123 10.7314 9.28924 10.7035 9.30324C10.635 9.35809 10.5664 9.42694 10.4978 9.48179C10.485 9.50863 10.4571 9.52264 10.4432 9.53664C10.3618 9.6195 10.2793 9.68718 10.1967 9.77004C10.1839 9.77004 10.1839 9.78404 10.17 9.79804C10.0875 9.86573 10.0061 9.94859 9.92356 10.0314C9.90961 10.0454 9.90961 10.0583 9.89566 10.0583C9.82708 10.1271 9.75966 10.196 9.69108 10.2788C9.66318 10.3057 9.6225 10.3337 9.5946 10.3605C9.52602 10.4434 9.44465 10.5262 9.36212 10.6079C9.34817 10.6359 9.32143 10.6499 9.30748 10.6768C9.19822 10.7865 9.10174 10.8973 8.99247 11.007L8.95179 11.0479C8.73258 11.2858 8.4997 11.5106 8.25434 11.7212C8.0118 11.9386 7.75596 12.1405 7.48832 12.3257C7.21399 12.5183 6.95477 12.6828 6.66649 12.8486C6.38738 13.0021 6.0998 13.1397 5.80515 13.2605C5.51687 13.3842 5.21581 13.4939 4.91474 13.5896C4.34051 13.7133 3.75234 13.9479 3.24553 13.9887C3.13051 13.9954 3.016 14.009 2.90261 14.0295C2.7794 14.0576 2.67013 14.0844 2.56087 14.1124L2.23074 14.2373C2.11891 14.2816 2.0095 14.3319 1.90294 14.3878C1.80646 14.4567 1.6972 14.5115 1.60188 14.5804C1.50451 14.6509 1.41279 14.7289 1.32755 14.8138C1.23032 14.8891 1.139 14.9718 1.05439 15.0612C0.971855 15.158 0.889324 15.2397 0.821904 15.3366C0.754485 15.4334 0.670791 15.5431 0.616158 15.6528C0.543885 15.7529 0.479746 15.8587 0.424361 15.9691C0.369728 16.0928 0.315094 16.2025 0.273248 16.3262C0.231401 16.4499 0.191879 16.5596 0.157007 16.6833C0.126933 16.7913 0.104022 16.9013 0.0884249 17.0124C0.0884249 17.0264 0.074476 17.0404 0.074476 17.0544C0.0465782 17.1781 0.0465782 17.3426 0.0337917 17.4255C0.0157092 17.5155 0.00444045 17.6068 8.18505e-05 17.6986C-0.00222157 17.7584 0.0024599 17.8183 0.0140307 17.8771C0.0241095 17.9658 0.0423997 18.0533 0.0686639 18.1385C0.0943265 18.2232 0.126186 18.3059 0.163981 18.3859V18.3999C0.209928 18.485 0.260371 18.5676 0.315094 18.6473C0.370025 18.7329 0.429389 18.8154 0.492943 18.8947C0.561525 18.9636 0.642894 19.0453 0.725425 19.1141C0.805435 19.195 0.892585 19.2684 0.985804 19.3335C1.3136 19.6229 1.39613 19.7186 1.82041 19.9392C1.889 19.98 1.95758 20.0069 2.04011 20.0489C2.05289 20.0489 2.06684 20.0629 2.08079 20.0629C2.07853 20.0863 2.08339 20.1099 2.09474 20.1306C2.11022 20.2421 2.13313 20.3524 2.16332 20.4608C2.18883 20.5743 2.22543 20.6849 2.27259 20.7911C2.31327 20.8728 2.34117 20.9556 2.38186 21.0385C2.39223 21.0628 2.40592 21.0856 2.42254 21.1062C2.47717 21.217 2.53181 21.3127 2.5876 21.4084C2.6434 21.5041 2.7236 21.601 2.79219 21.6978C2.86077 21.7947 2.9433 21.8764 3.02467 21.9581C3.10604 22.0398 3.18973 22.1098 3.28505 22.1915C3.29278 22.1986 3.30254 22.2031 3.31295 22.2043C3.39142 22.2731 3.4737 22.3374 3.55938 22.3969C3.65454 22.4648 3.75525 22.5245 3.86044 22.5754C3.9606 22.6348 4.06559 22.6855 4.17429 22.7271C4.26262 22.7674 4.35445 22.7994 4.44862 22.8228C4.46257 22.8368 4.47535 22.8368 4.50325 22.8508C4.55788 22.8648 4.62647 22.8777 4.6811 22.8917C4.64042 23.6339 4.62647 24.3352 4.73573 24.5826C4.85895 24.8569 5.4634 24.0201 6.0632 23.0585C5.98183 24.0061 5.9272 25.1195 6.0632 25.4485C6.1992 25.7776 7.03498 24.7203 7.74753 23.5393C17.4513 21.2859 26.3077 28.0183 27.2376 37.528C27.0598 36.0436 25.2395 35.2186 24.4048 35.4275C23.9945 36.4439 23.2959 37.7498 22.1742 38.5608C22.2719 37.6432 22.2257 36.7158 22.037 35.8126C21.7308 37.0765 21.1523 38.2576 20.3422 39.2727C19.0415 39.3684 17.7419 38.7371 17.0573 37.7883C17.0026 37.7474 16.9887 37.6646 16.948 37.6097C16.9051 37.5161 16.8683 37.4198 16.8376 37.3215C16.7976 37.2295 16.7703 37.1326 16.7562 37.0332C16.7443 36.933 16.7396 36.832 16.7422 36.731V36.5268C16.7585 36.4292 16.7814 36.3329 16.8108 36.2385C16.8363 36.1401 16.8681 36.0434 16.9061 35.9491C16.9561 35.8502 17.0112 35.754 17.0712 35.6609C17.3037 35.0015 17.3037 34.4659 16.8794 34.1496C16.7968 34.0961 16.7097 34.0501 16.619 34.0119C16.5644 33.9979 16.4958 33.9711 16.4412 33.9571C16.3866 33.9431 16.3726 33.9302 16.3319 33.9162C16.2369 33.885 16.1398 33.8604 16.0413 33.8427C15.9481 33.8153 15.8514 33.8016 15.7542 33.8019C15.6546 33.7856 15.554 33.7762 15.4531 33.7738C15.3846 33.7738 15.316 33.7878 15.2474 33.7878C15.1456 33.7874 15.0443 33.8011 14.9463 33.8287C14.7489 33.8528 14.5557 33.9039 14.3721 33.9804C14.2756 34.0212 14.1942 34.0621 14.0978 34.1041C14.0013 34.1461 13.9339 34.1998 13.8386 34.2406C10.6489 36.3296 12.5518 41.2216 14.7278 42.6371C13.906 42.7877 13.0714 42.9674 12.8389 43.1459L12.811 43.1728C13.4018 43.5283 14.0198 43.8362 14.6592 44.0935C15.5357 44.3818 16.4656 44.6432 16.8771 44.7529V44.7669C18.011 45.0004 19.1705 45.0835 20.326 45.0143C26.3891 44.5883 31.3584 39.9577 32.2616 33.8567C32.2883 33.9804 32.3162 34.0901 32.3429 34.2138C32.3848 34.4612 32.4394 34.7226 32.4661 34.9828V34.9969C32.494 35.1206 32.508 35.2443 32.5219 35.354V35.4088C32.5347 35.5325 32.5487 35.6562 32.5487 35.7659C32.5626 35.9176 32.5766 36.0693 32.5766 36.2199V36.4392C32.5766 36.5081 32.5894 36.591 32.5894 36.6598C32.5894 36.7287 32.5766 36.8244 32.5766 36.9072V37.0998C32.5766 37.1955 32.5626 37.2783 32.5626 37.374C32.5644 37.4339 32.5597 37.4937 32.5487 37.5526C32.5487 37.6494 32.5347 37.7451 32.5347 37.8548C32.5233 37.895 32.5186 37.9368 32.5208 37.9785C32.508 38.0882 32.494 38.1851 32.4801 38.2948C32.4824 38.3365 32.4777 38.3783 32.4661 38.4185C32.4522 38.5562 32.4255 38.6799 32.4115 38.8176V38.8444C32.3848 38.9681 32.3569 39.1058 32.3301 39.2295V39.2704C32.3022 39.3941 32.2743 39.5178 32.2476 39.6415C32.2476 39.6555 32.2337 39.6823 32.2337 39.6963C32.2084 39.8216 32.1766 39.9455 32.1383 40.0674V40.1083C32.0965 40.246 32.0558 40.3697 32.0221 40.4934C32.0147 40.5009 32.0102 40.5108 32.0093 40.5214C31.9675 40.6579 31.9268 40.7956 31.8861 40.9333C31.8454 41.071 31.7896 41.1947 31.735 41.3313C31.6804 41.4678 31.6397 41.6067 31.585 41.7304C31.5304 41.8541 31.4746 41.9918 31.42 42.1283H31.4072C31.3514 42.252 31.2968 42.3897 31.2282 42.5134C31.2177 42.5466 31.2041 42.5786 31.1875 42.6091C31.1735 42.6231 31.1735 42.6371 31.1608 42.6511C30.2563 44.4711 28.9398 46.053 27.3167 47.2701C27.2074 47.3389 27.097 47.4218 26.9877 47.5035C26.961 47.5315 26.9191 47.5455 26.8924 47.5723C26.7959 47.6412 26.7006 47.71 26.5913 47.7789L26.632 47.8617H26.646L27.2202 47.7789H27.2341C27.5898 47.724 27.9467 47.6552 28.3024 47.5863C28.4041 47.5699 28.5047 47.5469 28.6035 47.5175L28.7953 47.4766C28.8906 47.4626 28.9859 47.4358 29.0824 47.4218C29.1789 47.4078 29.2463 47.3798 29.3288 47.3529C30.6852 47.0209 32.0127 46.5795 33.2984 46.0331C31.0991 49.0414 28.1739 51.4389 24.7977 53C26.3778 52.8952 27.9425 52.6237 29.466 52.1901C34.9647 50.5667 39.6091 46.8414 42.4001 41.8156C41.8366 44.9956 40.5803 48.0114 38.7211 50.6473C41.2276 48.9876 43.3603 46.8195 44.9819 44.2824C46.6035 41.7454 47.6781 38.8956 48.1366 35.9164C48.6033 38.0913 48.737 40.3249 48.5329 42.5403C58.4181 28.7079 49.3571 14.3598 45.5665 10.5811C45.5525 10.5531 45.5386 10.5403 45.5386 10.5122C45.5258 10.5262 45.5258 10.5262 45.5258 10.5402C45.5258 10.5262 45.5258 10.5262 45.5119 10.5122C45.5119 10.6768 45.4979 10.8425 45.484 11.007C45.4433 11.3233 45.4026 11.6256 45.348 11.9278C45.2933 12.2301 45.1968 12.5323 45.1155 12.8346C45.0341 13.1368 44.9109 13.425 44.7877 13.7145C44.6645 14.0039 44.5273 14.277 44.3773 14.5524C44.2274 14.8278 44.0623 15.088 43.8845 15.3354C43.7066 15.5828 43.5148 15.8442 43.323 16.0776C43.1312 16.311 42.8988 16.5444 42.6791 16.765C42.5431 16.8887 42.4198 16.9984 42.2827 17.1081C42.1734 17.2038 42.0769 17.2866 41.9677 17.3835C41.7229 17.5768 41.4671 17.7557 41.2016 17.9191C40.9413 18.0837 40.6681 18.2482 40.3938 18.3859C40.1194 18.5236 39.8126 18.6473 39.5313 18.771C39.25 18.8947 38.9431 18.9764 38.642 19.0593C38.341 19.1421 38.0259 19.211 37.7249 19.2658C37.4238 19.3207 37.0949 19.3475 36.795 19.3755C36.5764 19.3895 36.3567 19.4024 36.1382 19.4024C35.8232 19.4024 35.5082 19.3755 35.2083 19.3475C34.5814 19.2886 33.9624 19.1643 33.3612 18.9764H33.3473C33.6483 18.9496 33.9494 18.9216 34.2504 18.8667C34.5515 18.8119 34.8665 18.743 35.1676 18.6613C35.4686 18.5796 35.7697 18.4816 36.0568 18.3719C36.3513 18.2604 36.6393 18.1323 36.9193 17.988C37.2064 17.8503 37.4668 17.6986 37.7412 17.534C38.0155 17.3695 38.2607 17.1769 38.5072 16.9844C38.7522 16.7929 38.9851 16.5863 39.2046 16.3659C39.4323 16.1548 39.647 15.9299 39.8474 15.6925C40.0532 15.4451 40.2438 15.1977 40.4286 14.9503C40.4554 14.9095 40.4833 14.8546 40.51 14.8138C40.6472 14.5932 40.7843 14.3738 40.9076 14.1532C41.0575 13.879 41.1947 13.6036 41.3179 13.3154C41.4411 13.0271 41.5504 12.7389 41.6468 12.4354C41.7433 12.132 41.8107 11.8449 41.8793 11.5427C41.9479 11.2404 41.9886 10.9242 42.0153 10.6219C42.0421 10.3197 42.0711 9.9906 42.0711 9.68835C42.0711 9.46895 42.0572 9.24956 42.0432 9.029C42.0153 8.71274 41.9746 8.41049 41.934 8.10824C41.8933 7.80599 41.8107 7.48974 41.7282 7.18749C41.6457 6.88524 41.5364 6.59699 41.4272 6.30875C41.3136 6.01851 41.1855 5.73419 41.0436 5.45684C40.8936 5.18143 40.7425 4.90719 40.5786 4.63995C40.4147 4.37271 40.2229 4.13114 40.0311 3.88374C39.8393 3.63634 39.6208 3.41695 39.4011 3.18355C39.2918 3.07385 39.1686 2.95015 39.0454 2.84045C38.4293 2.35849 37.7865 1.90686 37.1437 1.49375C37.0552 1.44205 36.9636 1.39606 36.8693 1.35604C36.4632 1.10646 36.0258 0.912199 35.5686 0.778382L35.5593 0.78305Z" fill="#E0234E"/>
</g>
<defs>
<clipPath id="clip0_193_2149">
<rect width="53" height="53" fill="white"/>
</clipPath>
</defs>
</svg>
