<svg  viewBox="0 0 50 50" fill="none" xmlns="http://www.w3.org/2000/svg">
<path d="M24.9911 47.4607C24.3938 47.4607 23.7877 47.3004 23.2618 46.9973L17.7619 43.7438C16.9419 43.2802 17.343 43.1198 17.6104 43.0306C18.7067 42.6473 18.9296 42.5672 20.0973 41.8985C20.2222 41.8273 20.3826 41.8539 20.5073 41.9343L24.7325 44.439C24.8841 44.528 25.0979 44.528 25.2405 44.439L41.7046 34.9366C41.8562 34.8475 41.9541 34.6692 41.9541 34.491V15.4865C41.9541 15.2993 41.8562 15.13 41.6958 15.032L25.2406 5.53857C25.0892 5.44941 24.8842 5.44941 24.7326 5.53857L8.28643 15.0408C8.12588 15.13 8.02793 15.3082 8.02793 15.4954V34.491C8.02793 34.6692 8.12588 34.8475 8.28643 34.9278L12.797 37.5307C15.2483 38.7518 16.7458 37.3167 16.7458 35.8639V17.1088C16.7458 16.8414 16.9597 16.6364 17.2272 16.6364H19.3131C19.5716 16.6364 19.7943 16.8414 19.7943 17.1088V35.8728C19.7943 39.1352 18.0115 41.0071 14.9186 41.0071C13.9646 41.0071 13.2159 41.0071 11.1301 39.9731L6.81572 37.4861C5.746 36.871 5.08643 35.7211 5.08643 34.4822V15.4865C5.08643 14.2564 5.746 13.0977 6.81572 12.4826L23.2618 2.98027C24.3047 2.39199 25.6864 2.39199 26.7204 2.98027L43.1847 12.4914C44.2543 13.1064 44.9139 14.2563 44.9139 15.4954V34.491C44.9139 35.7211 44.2543 36.871 43.1847 37.495L26.7204 46.9973C26.1944 47.3004 25.5971 47.4607 24.9911 47.4607ZM38.2819 28.7327C38.2819 25.176 35.8751 24.2312 30.821 23.5627C25.7042 22.8852 25.1873 22.5375 25.1873 21.3431C25.1873 20.3537 25.6241 19.0344 29.4125 19.0344C32.791 19.0344 34.039 19.7653 34.5559 22.0474C34.6005 22.2612 34.7968 22.4217 35.0193 22.4217H37.159C37.2925 22.4217 37.4173 22.3683 37.5065 22.2701C37.5958 22.1722 37.6402 22.0384 37.6311 21.9046C37.3015 17.9737 34.6896 16.1463 29.4125 16.1463C24.7149 16.1463 21.916 18.1252 21.916 21.4501C21.916 25.0513 24.706 26.0498 29.2074 26.4952C34.6005 27.0213 35.0193 27.8146 35.0193 28.8754C35.0193 30.7118 33.5398 31.496 30.0723 31.496C25.7134 31.496 24.7595 30.3996 24.4386 28.2337C24.4029 28.002 24.2067 27.8326 23.9662 27.8326H21.8356C21.5683 27.8326 21.3634 28.0466 21.3634 28.3049C21.3634 31.0773 22.8698 34.3844 30.0812 34.3844C35.2868 34.3754 38.2819 32.3159 38.2819 28.7327Z" fill="#539E43"/>
</svg>
