<svg  viewBox="0 0 50 50" fill="none" xmlns="http://www.w3.org/2000/svg">
<path d="M24.9564 29.5878C27.4704 29.5878 29.5085 27.5498 29.5085 25.0357C29.5085 22.5217 27.4704 20.4836 24.9564 20.4836C22.4423 20.4836 20.4043 22.5217 20.4043 25.0357C20.4043 27.5498 22.4423 29.5878 24.9564 29.5878Z" fill="#61DAFB"/>
<path d="M24.9562 41.7757C28.5293 45.251 32.0535 47.3068 34.8924 47.3068C35.8224 47.3068 36.7035 47.111 37.4377 46.6705C39.983 45.202 40.913 41.531 40.0319 36.2936C39.8851 35.3636 39.6893 34.4336 39.4445 33.4547C40.4235 33.161 41.3045 32.8673 42.1856 32.5737C47.1293 30.6647 49.8703 28.0216 49.8703 25.1337C49.8703 22.1968 47.1293 19.5537 42.1856 17.6937C41.3045 17.3511 40.4235 17.0574 39.4445 16.8126C39.6893 15.8337 39.8851 14.9037 40.0319 13.9737C40.864 8.63844 39.934 4.91845 37.3888 3.45004C36.6546 3.00951 35.7735 2.81372 34.8435 2.81372C32.0535 2.81372 28.4804 4.86951 24.9072 8.34476C21.383 4.86951 17.8588 2.81372 15.0199 2.81372C14.0899 2.81372 13.2088 3.00951 12.4746 3.45004C9.92934 4.91845 8.99934 8.5895 9.88039 13.8269C10.0272 14.7569 10.223 15.6868 10.4678 16.6658C9.48882 16.9595 8.60776 17.2532 7.72671 17.5468C2.78304 19.4558 0.0419922 22.0989 0.0419922 24.9868C0.0419922 27.9237 2.78304 30.5668 7.72671 32.4268C8.60776 32.7694 9.48882 33.0631 10.4678 33.3079C10.223 34.2868 10.0272 35.2168 9.88039 36.1468C9.04829 41.3842 9.97829 45.1042 12.4746 46.5236C13.2088 46.9641 14.0899 47.1599 15.0199 47.1599C17.8588 47.2578 21.383 45.202 24.9562 41.7757ZM22.2151 35.1679C23.0962 35.2168 24.0262 35.2168 24.9562 35.2168C25.8862 35.2168 26.8161 35.2168 27.6972 35.1679C26.8161 36.3426 25.8862 37.4194 24.9562 38.4473C24.0262 37.4194 23.0962 36.3426 22.2151 35.1679ZM16.1456 30.1263C16.6351 30.9584 17.0756 31.7416 17.6141 32.5247C16.0967 32.3289 14.6772 32.0842 13.3067 31.7905C13.7472 30.4689 14.2367 29.0984 14.8241 27.7279C15.2156 28.511 15.6562 29.3431 16.1456 30.1263ZM13.3067 18.33C14.6772 18.0363 16.0967 17.7916 17.6141 17.5958C17.1246 18.3789 16.6351 19.1621 16.1456 19.9942C15.6562 20.8263 15.2156 21.6095 14.8241 22.4416C14.1878 21.0221 13.6983 19.6516 13.3067 18.33ZM15.9988 25.0358C16.6351 23.7142 17.3204 22.3926 18.1035 21.0711C18.8377 19.7984 19.6698 18.5258 20.502 17.2532C21.9704 17.1553 23.4388 17.1063 24.9562 17.1063C26.5225 17.1063 27.9909 17.1553 29.4104 17.2532C30.2914 18.5258 31.0746 19.7984 31.8088 21.0711C32.5919 22.3926 33.2772 23.7142 33.9135 25.0358C33.2772 26.3574 32.5919 27.6789 31.8088 29.0005C31.0746 30.2731 30.2425 31.5458 29.4104 32.8184C27.9419 32.9163 26.4735 32.9652 24.9562 32.9652C23.3898 32.9652 21.9214 32.9163 20.502 32.8184C19.6209 31.5458 18.8377 30.2731 18.1035 29.0005C17.3204 27.6789 16.6351 26.3574 15.9988 25.0358ZM35.1372 22.3926L33.8156 19.9453C33.3261 19.1132 32.8856 18.33 32.3472 17.5468C33.8646 17.7426 35.284 17.9874 36.6546 18.2811C36.214 19.6516 35.7246 21.0221 35.1372 22.3926ZM35.1372 27.6789C35.7246 29.0495 36.214 30.42 36.6546 31.7416C35.284 32.0352 33.8646 32.28 32.3472 32.4758C32.8367 31.6926 33.3261 30.9094 33.8156 30.0773C34.2561 29.3431 34.6967 28.511 35.1372 27.6789ZM36.263 44.6636C35.8714 44.9084 35.3819 45.0063 34.8435 45.0063C32.4451 45.0063 29.4593 43.0484 26.5225 40.1115C27.9419 38.5942 29.3125 36.881 30.683 34.9721C32.9835 34.7763 35.1861 34.4336 37.2419 33.9442C37.4867 34.8252 37.6335 35.7063 37.7803 36.5873C38.4656 40.7478 37.9272 43.7336 36.263 44.6636ZM38.8082 18.8684C44.2903 20.4347 47.5698 22.8332 47.5698 25.0358C47.5698 26.9447 45.3182 28.8537 41.3535 30.371C40.5703 30.6647 39.6893 30.9584 38.8082 31.2031C38.1719 29.1963 37.3888 27.1405 36.4098 25.0358C37.3888 22.931 38.2209 20.8753 38.8082 18.8684ZM34.8924 5.06529C35.4309 5.06529 35.8714 5.16319 36.3119 5.40793C37.9272 6.33792 38.5145 9.27476 37.8293 13.4842C37.6824 14.3163 37.4867 15.1974 37.2909 16.1274C35.2351 15.6868 33.0325 15.3442 30.7319 15.0995C29.4104 13.1905 27.9909 11.4774 26.5714 9.96002C29.5082 7.07213 32.494 5.06529 34.8924 5.06529ZM27.6972 14.9037C26.8161 14.8547 25.8862 14.8547 24.9562 14.8547C24.0262 14.8547 23.0962 14.8547 22.2151 14.9037C23.0962 13.729 24.0262 12.6521 24.9562 11.6242C25.8862 12.6521 26.8161 13.7779 27.6972 14.9037ZM13.6493 5.40793C14.0409 5.16319 14.5304 5.06529 15.0688 5.06529C17.4672 5.06529 20.453 7.02319 23.3898 9.96002C21.9704 11.4774 20.5998 13.1905 19.2293 15.0995C16.9288 15.2953 14.7262 15.6379 12.6704 16.1274C12.4257 15.2463 12.2788 14.3653 12.132 13.4842C11.4467 9.32371 11.9851 6.38687 13.6493 5.40793ZM11.1041 31.2031C5.62198 29.6368 2.34251 27.2384 2.34251 25.0358C2.34251 23.1268 4.59409 21.2179 8.55882 19.7005C9.34197 19.4068 10.223 19.1132 11.1041 18.8684C11.7404 20.8753 12.5235 22.931 13.5025 25.0358C12.5235 27.1405 11.6914 29.2452 11.1041 31.2031ZM12.132 36.5873C12.2788 35.7552 12.4746 34.8742 12.6704 33.9442C14.7262 34.3847 16.9288 34.7273 19.2293 34.9721C20.5509 36.881 21.9704 38.5942 23.3898 40.1115C20.453 42.9994 17.4672 45.0063 15.0688 45.0063C14.5304 45.0063 14.0899 44.9084 13.6493 44.6636C11.9851 43.7336 11.4467 40.7478 12.132 36.5873Z" fill="#61DAFB"/>
</svg>
