<svg  viewBox="0 0 50 50" fill="none" xmlns="http://www.w3.org/2000/svg">
<path d="M41.2118 27.5188C39.6399 27.5258 38.2787 27.9048 37.1419 28.4662C36.7279 27.6309 36.2997 26.9012 36.2295 26.354C36.1455 25.7153 36.0541 25.3365 36.1525 24.5787C36.2508 23.8207 36.6927 22.747 36.6858 22.67C36.6788 22.5928 36.5875 22.2068 35.6824 22.1998C34.7772 22.1928 33.9984 22.3752 33.9071 22.6137C33.8157 22.8523 33.6405 23.3928 33.5352 23.9541C33.3738 24.7751 31.7246 27.7083 30.7913 29.238C30.4827 28.6417 30.2231 28.1152 30.1668 27.6942C30.0827 27.0555 29.9914 26.6767 30.0897 25.9189C30.1879 25.1609 30.6299 24.0873 30.6229 24.0102C30.6159 23.9331 30.5246 23.547 29.6196 23.54C28.7143 23.5331 27.9356 23.7154 27.8442 23.9541C27.753 24.1926 27.6547 24.754 27.4723 25.2945C27.29 25.8345 25.0935 30.7184 24.5181 31.9886C24.2233 32.6341 23.9708 33.1534 23.7883 33.5044C23.7604 33.5604 23.7393 33.5956 23.7252 33.6237C23.7462 33.5886 23.7604 33.5534 23.7604 33.5677C23.606 33.8692 23.5147 34.0377 23.5147 34.0377V34.0446C23.3954 34.2691 23.262 34.4725 23.199 34.4725C23.1568 34.4725 23.0657 33.8833 23.2201 33.0762C23.5497 31.3781 24.3287 28.7399 24.3216 28.6485C24.3146 28.5994 24.4689 28.1433 23.8093 27.8976C23.1708 27.6661 22.9392 28.0521 22.8831 28.0521C22.8271 28.0521 22.7849 28.1926 22.7849 28.1926C22.7849 28.1926 23.4937 25.2173 21.4236 25.2173C20.1325 25.2173 18.3362 26.6348 17.4521 27.9189C16.8977 28.2207 15.6977 28.8732 14.4347 29.5678C13.9505 29.8345 13.4523 30.1081 12.9822 30.3678C12.9471 30.3326 12.919 30.2975 12.8839 30.2625C10.3718 27.5821 5.73353 25.6875 5.93012 22.0876C6.00023 20.7754 6.45639 17.3302 14.8488 13.1479C21.7255 9.72361 27.2268 10.6639 28.1743 12.755C29.5354 15.7373 25.2339 21.2878 18.0907 22.0876C15.368 22.3893 13.9367 21.3368 13.5787 20.9439C13.2068 20.53 13.1506 20.5088 13.0103 20.586C12.7787 20.7123 12.9261 21.0772 13.0103 21.2947C13.2208 21.849 14.0979 22.8314 15.5926 23.3226C16.9046 23.7507 20.0975 23.9893 23.9568 22.4946C28.2933 20.8245 31.6686 16.1721 30.6791 12.2778C29.6688 8.32029 23.1079 7.02205 16.8978 9.22537C13.1998 10.5376 9.20014 12.6007 6.32309 15.2881C2.9058 18.488 2.35853 21.2736 2.58295 22.4386C3.38295 26.5715 9.0807 29.2661 11.3613 31.2589C11.249 31.322 11.1437 31.3782 11.0455 31.4344C9.9018 32.0026 5.55824 34.2761 4.47055 36.6762C3.24271 39.3988 4.67396 41.3494 5.6143 41.6162C8.5474 42.4301 11.5507 40.9636 13.1647 38.5566C14.7785 36.1499 14.5821 33.0062 13.8383 31.5747C13.8312 31.5537 13.8172 31.5398 13.8103 31.5185C14.1049 31.3432 14.4066 31.1678 14.7084 30.9924C15.2908 30.6485 15.8592 30.3326 16.3574 30.0592C16.0766 30.8171 15.8732 31.7289 15.7679 33.0483C15.6416 34.592 16.2802 36.5919 17.1082 37.3778C17.473 37.7217 17.9151 37.7288 18.1888 37.7288C19.1572 37.7288 19.5921 36.9287 20.0763 35.9744C20.6728 34.8094 21.1991 33.4551 21.1991 33.4551C21.1991 33.4551 20.5395 37.1182 22.3428 37.1182C23.0024 37.1182 23.6621 36.2691 23.9567 35.8341V35.841C23.9567 35.841 23.9708 35.8131 24.0059 35.757C24.076 35.6516 24.1111 35.5885 24.1111 35.5885V35.5673C24.3777 35.1112 24.9602 34.0656 25.8371 32.3395C26.9741 30.108 28.0616 27.3221 28.0616 27.3221C28.0616 27.3221 28.1598 28.003 28.4968 29.1327C28.6932 29.7993 29.1072 30.5291 29.437 31.2379C29.1704 31.6027 29.0089 31.8133 29.0089 31.8133C29.0089 31.8133 29.0089 31.8202 29.0158 31.8272C28.8053 32.1081 28.5668 32.4098 28.3212 32.7046C27.423 33.7711 26.3564 34.9922 26.2162 35.3429C26.0476 35.757 26.0898 36.0655 26.4126 36.3043C26.6511 36.4868 27.0722 36.5147 27.5142 36.4798C28.3212 36.4234 28.8896 36.2271 29.1632 36.1006C29.5982 35.9465 30.1036 35.7007 30.5807 35.3569C31.4579 34.7115 31.9912 33.7852 31.9419 32.5642C31.9139 31.8906 31.6962 31.2169 31.4296 30.5855C31.5069 30.4731 31.5912 30.3537 31.6683 30.2346C33.0578 28.2064 34.1314 25.9823 34.1314 25.9823C34.1314 25.9823 34.2296 26.6628 34.5663 27.7926C34.7348 28.361 35.0646 28.9855 35.3662 29.5959C34.0611 30.6555 33.2542 31.8837 32.9735 32.6904C32.4541 34.1851 32.8612 34.8586 33.626 35.0133C33.9699 35.0834 34.4611 34.9219 34.826 34.7675C35.2821 34.6131 35.8294 34.3675 36.3416 33.9886C37.2188 33.3431 38.0679 32.4378 38.0119 31.2098C37.9907 30.6554 37.8364 30.1011 37.6329 29.5678C38.7344 29.1049 40.1662 28.852 41.9905 29.0627C45.899 29.5187 46.6637 31.9606 46.5163 32.978C46.3692 34.0026 45.5482 34.564 45.2745 34.7324C45.0006 34.9009 44.9165 34.964 44.9377 35.0903C44.9727 35.2727 45.099 35.2658 45.3305 35.2235C45.6535 35.1675 47.3795 34.3955 47.4566 32.5079C47.5691 30.122 45.2746 27.4978 41.2118 27.5188ZM11.0876 37.6724C9.79662 39.0829 7.98617 39.6162 7.20736 39.1671C6.3723 38.6831 6.70209 36.6059 8.29496 35.1042C9.26332 34.1921 10.5123 33.3501 11.3404 32.8308C11.5298 32.7186 11.8036 32.5502 12.1404 32.3467C12.1965 32.3118 12.2246 32.2976 12.2246 32.2976C12.2876 32.2553 12.3579 32.2204 12.4281 32.1782C13.0103 34.3114 12.449 36.1919 11.0876 37.6724ZM20.5186 31.2589C20.0695 32.3604 19.1221 35.1674 18.5469 35.02C18.0557 34.8936 17.7538 32.7535 18.4487 30.6485C18.7995 29.5888 19.5432 28.3259 19.9854 27.8347C20.694 27.0417 21.4729 26.789 21.6554 27.1049C21.9009 27.5188 20.7992 30.5713 20.5186 31.2589ZM28.3074 34.9781C28.118 35.0762 27.9425 35.1393 27.8583 35.0902C27.7953 35.0552 27.9356 34.9218 27.9356 34.9218C27.9356 34.9218 28.9108 33.8762 29.2968 33.3989C29.5213 33.1183 29.7809 32.7885 30.0617 32.4237C30.0617 32.4586 30.0685 32.4939 30.0685 32.5358C30.0618 33.7921 28.8548 34.6413 28.3074 34.9781ZM34.3141 33.6096C34.1738 33.5114 34.1947 33.1816 34.6649 32.157C34.8474 31.757 35.2685 31.0835 35.9981 30.4379C36.0824 30.7045 36.1314 30.957 36.1314 31.1956C36.1243 32.7745 34.9947 33.3639 34.3141 33.6096Z" fill="#CF649A"/>
</svg>
