<svg viewBox="0 0 50 50" fill="none" xmlns="http://www.w3.org/2000/svg">
<path d="M30.4961 4.05762C51.6965 18.4822 44.8215 34.3354 44.8215 34.3354C44.8215 34.3354 50.8434 41.131 48.4227 47.0834C48.4227 47.0834 45.9227 42.9267 41.7759 42.9267C37.768 42.9267 35.3969 47.0834 27.3017 47.0834C9.30567 47.0834 0.773926 32.0437 0.773926 32.0437C16.9942 42.7382 28.0755 35.1588 28.0755 35.1588C20.7541 30.9227 5.21837 10.6449 5.21837 10.6449C18.76 22.1727 24.6033 25.1985 24.6033 25.1985C21.0914 22.3215 11.2997 8.22428 11.2997 8.22428C19.137 16.1509 34.7124 27.2025 34.7124 27.2025C39.1767 14.9902 30.4961 4.05762 30.4961 4.05762Z" fill="url(#paint0_linear_131_2249)"/>
<defs>
<linearGradient id="paint0_linear_131_2249" x1="32.9583" y1="4.73071" x2="22.3174" y2="46.8466" gradientUnits="userSpaceOnUse">
<stop stop-color="#FAAE42"/>
<stop offset="1" stop-color="#EF3E31"/>
</linearGradient>
</defs>
</svg>
