<svg  viewBox="0 0 50 50" fill="none" xmlns="http://www.w3.org/2000/svg">
<g clip-path="url(#clip0_131_2274)">
<path d="M0 25V0H50V50H0" fill="#007ACC"/>
<path d="M10.9624 25.0876V27.1251H17.4624V45.6251H22.0749V27.1251H28.5749V25.1251C28.5749 24.0001 28.5749 23.0876 28.5249 23.0626C28.5249 23.0251 24.5624 23.0126 19.7499 23.0126L10.9999 23.0501V25.1001L10.9624 25.0876ZM40.1749 23.0001C41.4499 23.3001 42.4249 23.8751 43.2999 24.7876C43.7624 25.2876 44.4499 26.1626 44.4999 26.3876C44.4999 26.4626 42.3374 27.9251 41.0249 28.7376C40.9749 28.7751 40.7749 28.5626 40.5749 28.2376C39.9249 27.3126 39.2624 26.9126 38.2249 26.8376C36.7249 26.7376 35.7249 27.5251 35.7249 28.8376C35.7249 29.2376 35.7999 29.4626 35.9499 29.7876C36.2874 30.4751 36.9124 30.8876 38.8499 31.7376C42.4249 33.2751 43.9749 34.2876 44.9124 35.7376C45.9749 37.3626 46.2124 39.9126 45.4999 41.8251C44.6999 43.9126 42.7499 45.3251 39.9624 45.7876C39.0874 45.9376 37.0874 45.9126 36.1499 45.7501C34.1499 45.3751 32.2374 44.3751 31.0624 43.0876C30.5999 42.5876 29.7124 41.2501 29.7624 41.1626L30.2374 40.8626L32.1124 39.7751L33.5249 38.9501L33.8499 39.3876C34.2624 40.0376 35.1874 40.9126 35.7249 41.2126C37.3499 42.0501 39.5249 41.9376 40.5999 40.9626C41.0624 40.5376 41.2624 40.0876 41.2624 39.4626C41.2624 38.8876 41.1749 38.6251 40.8874 38.1876C40.4874 37.6376 39.6874 37.1876 37.4374 36.1876C34.8499 35.0876 33.7499 34.3876 32.7249 33.3126C32.1374 32.6626 31.5999 31.6501 31.3499 30.8126C31.1624 30.0876 31.0999 28.3126 31.2749 27.6001C31.8124 25.1001 33.6999 23.3501 36.3999 22.8501C37.2749 22.6751 39.3374 22.7501 40.1999 22.9751L40.1749 23.0001Z" fill="white"/>
</g>
<defs>
<clipPath id="clip0_131_2274">
<rect width="50" height="50" fill="white"/>
</clipPath>
</defs>
</svg>
