<svg  viewBox="0 0 113 90" xmlns="http://www.w3.org/2000/svg">
<g filter="url(#filter0_d_320_2150)">
<rect width="40.8431" height="40.8993" rx="4" transform="matrix(0.771288 -0.636486 0.771288 0.636486 24.9419 56.5291)" fill="#8EC0EE"/>
</g>
<path d="M86.1432 55.1259C87.1069 55.9256 87.107 57.4042 86.1433 58.204L59.7006 80.1494C58.3972 81.2311 56.4233 80.3042 56.4233 78.6104L56.4223 34.7205C56.4222 33.0267 58.396 32.0998 59.6995 33.1814L86.1432 55.1259Z" fill="#3FA3FF"/>
<path d="M81.1282 14.7415C83.9209 12.8526 87.6671 14.3021 87.6936 17.2819L87.9879 50.5044C88.0131 53.3407 84.615 55.457 81.7905 54.3641L50.3582 42.2016C47.5337 41.1087 47.332 37.5995 49.9903 35.8015L81.1282 14.7415Z" fill="#89CEFF"/>
<path d="M32.4292 14.3043C29.6513 12.4649 25.9668 13.8907 25.9037 16.8292L25.1837 50.3967C25.1225 53.248 28.5377 55.3981 31.3805 54.2981L63.8319 41.7412C66.6748 40.6412 66.8559 37.0996 64.1605 35.3149L32.4292 14.3043Z" fill="#0186E7"/>
<defs>
<filter id="filter0_d_320_2150" x="22.749" y="32.0244" width="67.4326" height="57.0452" filterUnits="userSpaceOnUse" color-interpolation-filters="sRGB">
<feFlood flood-opacity="0" result="BackgroundImageFix"/>
<feColorMatrix in="SourceAlpha" type="matrix" values="0 0 0 0 0 0 0 0 0 0 0 0 0 0 0 0 0 0 127 0" result="hardAlpha"/>
<feOffset dy="4"/>
<feGaussianBlur stdDeviation="2"/>
<feComposite in2="hardAlpha" operator="out"/>
<feColorMatrix type="matrix" values="0 0 0 0 0 0 0 0 0 0 0 0 0 0 0 0 0 0 0.25 0"/>
<feBlend mode="normal" in2="BackgroundImageFix" result="effect1_dropShadow_320_2150"/>
<feBlend mode="normal" in="SourceGraphic" in2="effect1_dropShadow_320_2150" result="shape"/>
</filter>
</defs>
</svg>
