<svg  viewBox="0 0 157 166"  xmlns="http://www.w3.org/2000/svg">
<path d="M58.3101 0.24115C56.8113 1.0038 55.7674 3.23824 54.9243 7.45288C54.4291 9.95493 54.1347 12.0154 53.3853 18.1032C52.6626 24.1509 52.6358 24.3516 52.5422 24.258C52.502 24.2178 52.3682 24.3383 52.2477 24.5122L52.0336 24.8467L47.1623 22.7728C30.193 15.5477 23.2875 13.1527 21.0793 13.7548C20.0354 14.0358 19.7946 14.8519 20.2228 16.8054C20.3432 17.3674 20.4503 17.9695 20.4503 18.13C20.4637 18.2772 20.5172 18.3842 20.5841 18.3441C20.6377 18.3039 20.651 18.3842 20.6109 18.5314C20.4637 18.9997 22.257 23.7629 22.5246 23.6024C22.5648 23.5622 23.0599 24.5523 23.6086 25.7699C24.9201 28.7269 27.7707 34.4133 28.9617 36.5005C30.6881 39.4976 33.2576 43.2172 33.4717 43.0031C33.5119 42.9764 32.9498 41.9595 32.2271 40.7553C30.6881 38.173 28.9484 34.8414 28.1052 32.888C26.7804 29.7571 25.6027 25.7431 25.1343 22.7327C24.9201 21.2876 24.9201 21.2074 25.1477 20.7926C25.964 19.3743 27.2755 18.9997 29.0019 19.7222C31.384 20.7123 41.7557 25.9037 45.1549 27.8036C49.1831 30.0515 50.4143 30.988 50.9229 32.1788C51.1771 32.7676 51.1771 32.8345 50.9764 33.5436C50.1333 36.4738 49.1028 38.1864 46.8545 40.3272C45.1683 41.9328 43.3348 43.2707 36.5899 47.8199C31.0896 51.5395 28.9617 53.038 26.2852 55.0718C19.7812 60.0223 16.0608 64.1567 13.6385 69.0805C11.5374 73.3486 10.8549 76.6802 10.6274 83.7983C10.4132 90.1805 10.0653 92.8565 8.95452 96.6028C7.50918 101.486 5.46161 106.036 2.91889 110.036C0.295869 114.171 -0.0253176 114.933 0.00144788 116.913C0.0148306 117.797 0.10851 118.439 0.295869 119.014C0.443079 119.482 0.509993 119.83 0.456462 119.79C0.228955 119.656 0.898093 121.369 1.58061 122.72C2.678 124.874 4.65865 127.671 5.88986 128.835C6.18428 129.102 6.92034 129.718 7.52256 130.213C8.61995 131.069 9.10173 131.337 8.74039 130.855C8.59318 130.668 8.60656 130.681 8.86084 130.882C9.16864 131.15 9.26232 131.31 8.99466 131.15C8.90098 131.096 8.8876 131.109 8.94113 131.203C8.99466 131.297 9.16864 131.431 9.32923 131.524C9.61027 131.671 9.61027 131.658 9.42291 131.431C9.23555 131.19 9.24894 131.19 9.57012 131.431C9.77086 131.578 9.90469 131.738 9.87793 131.778C9.85116 131.819 9.90469 131.859 9.99837 131.859C10.0921 131.859 10.5738 132.1 11.069 132.407C11.5642 132.702 12.8355 133.29 13.8794 133.705C16.2214 134.655 16.77 135.003 19.1254 137.023C21.1864 138.789 21.3737 138.95 21.0659 138.789C20.9321 138.709 20.9589 138.789 21.1328 139.004C22.9127 141.184 26.419 142.844 30.1662 143.298C31.6517 143.472 34.3282 143.365 35.3855 143.084L36.1215 142.897L35.1178 142.857C34.3951 142.844 34.6762 142.803 36.1215 142.723C40.0159 142.536 45.4359 141.639 49.4909 140.529C51.3243 140.034 51.6589 139.967 50.9095 140.275C50.6151 140.395 50.5615 140.435 50.7756 140.395C50.963 140.368 51.6589 140.288 52.3147 140.248C53.9072 140.127 55.1518 140.355 56.4366 140.97C56.9852 141.238 57.4135 141.412 57.3734 141.332C57.1726 140.984 57.6544 141.586 58.6982 143.004C60.5986 145.573 63.0209 149.119 67.8521 156.371C72.536 163.408 73.0446 164.131 73.2052 163.984C73.3658 163.81 72.8304 162.525 71.3985 159.622C68.1599 153.093 64.1718 146.51 60.1703 141.077L58.6982 139.084L59.0863 138.442C59.5547 137.692 60.2373 137.063 61.2945 136.381C62.4856 135.618 64.1584 134.294 64.0915 134.173C64.0513 134.107 64.0915 134.013 64.1718 133.959C64.2789 133.892 64.2922 133.919 64.2253 134.04C64.145 134.173 64.1718 134.2 64.3725 134.12C65.9919 133.464 68.5747 133.411 69.7792 134.013L70.3412 134.28L70.087 134C69.9531 133.852 70.194 133.986 70.6223 134.294C71.4654 134.936 71.6929 135.23 70.8899 134.642L70.3814 134.294L70.7963 134.668C71.0238 134.869 72.71 136.301 74.5434 137.853C77.4341 140.301 79.1739 141.787 80.6861 143.125C80.9136 143.312 82.0244 144.289 83.1619 145.279C84.2995 146.269 85.4504 147.272 85.7047 147.5C87.9797 149.547 91.9143 152.838 92.0347 152.798C92.0882 152.785 93.9083 154.417 96.0763 156.438C102.594 162.512 104.307 163.997 104.307 163.569C104.307 162.579 95.1529 152.317 89.0905 146.55C82.3724 140.127 77.8356 136.421 70.9435 131.698L68.8424 130.253L69.9531 129.036C71.6528 127.176 72.0676 126.547 71.626 126.547C71.5323 126.547 70.5286 127.149 69.4044 127.885C68.2803 128.621 67.3034 129.223 67.2498 129.223C67.1829 129.223 66.2997 128.714 65.2826 128.112C59.8625 124.848 51.9399 120.86 52.1407 121.489C52.2344 121.77 53.3585 122.573 56.4633 124.58C60.8127 127.376 64.5331 129.865 64.6402 130.039C64.6937 130.133 64.6803 130.159 64.6 130.119C64.3993 129.999 63.9844 130.668 64.0647 130.962C64.145 131.283 62.2179 132.434 58.5377 134.267L55.8076 135.645L54.9377 134.668C51.6589 131.029 47.2158 126.975 47.0552 127.484C46.9749 127.724 47.7378 128.781 50.5615 132.367C53.1578 135.659 53.7332 136.448 53.2916 136.073C53.1176 135.926 53.0641 135.966 52.9838 136.274C52.9169 136.488 52.8767 136.689 52.8901 136.729C52.9169 136.863 50.3742 137.893 48.4337 138.522C44.633 139.78 41.8092 140.315 38.4635 140.422C35.2249 140.529 32.8695 140.235 29.564 139.298C21.9224 137.144 10.4132 130.44 8.79392 127.189C8.52627 126.667 8.51289 126.507 8.61995 125.865C8.86084 124.393 9.2757 123.456 11.3768 119.683C12.9827 116.82 13.6519 115.375 13.7589 114.599C13.7857 114.358 13.9597 113.635 14.1203 112.993C14.4013 111.909 14.4147 111.762 14.2273 111.254C14.1203 110.959 13.8794 110.598 13.6786 110.451C13.1701 110.063 11.7515 110.009 9.38276 110.29C7.57609 110.491 6.2512 110.478 6.39841 110.25C6.42517 110.197 6.35826 110.036 6.2512 109.889C6.05046 109.621 6.05046 109.621 6.11737 109.929C6.15752 110.09 6.13075 110.197 6.06384 110.143C5.76942 109.969 5.95678 108.912 6.49209 107.815C7.21476 106.317 8.78054 103.801 8.94113 103.895C9.00805 103.948 9.02143 103.922 8.98128 103.841C8.92775 103.761 8.99466 103.587 9.10173 103.453C9.22217 103.32 9.26232 103.279 9.20879 103.386C9.14187 103.52 9.16864 103.547 9.2757 103.48C9.36938 103.413 9.40953 103.293 9.36938 103.186C9.32923 103.079 9.356 103.012 9.40953 103.039C9.70395 103.119 11.4839 100.363 12.6348 98.0478C13.518 96.3085 14.4013 94.0071 14.4281 93.4719C14.4281 93.2579 14.4682 93.0973 14.5084 93.0973C14.5485 93.0973 14.5753 92.9635 14.5887 92.7896C14.5887 92.629 14.7091 92.0135 14.8429 91.4248C15.0169 90.6622 15.0838 89.8192 15.0838 88.4813C15.0838 86.4074 14.95 85.4574 14.1069 81.9118C13.8125 80.6674 13.4913 79.0618 13.411 78.3393C13.1299 76.0112 13.585 73.7902 14.8563 71.2346C15.6593 69.629 17.4258 66.9798 17.6132 67.0869C17.6935 67.1404 17.7202 67.127 17.6801 67.0467C17.6265 66.9665 17.6935 66.7925 17.8005 66.6587C17.921 66.5249 17.9611 66.4848 17.9076 66.5918C17.8407 66.7122 17.8674 66.7524 17.9745 66.6855C18.0548 66.632 18.0949 66.5383 18.0548 66.4714C18.0146 66.4179 18.0949 66.2573 18.2288 66.1101C18.3492 65.9763 18.4027 65.9496 18.3224 66.07C18.202 66.2439 18.2154 66.2439 18.4161 66.0968C18.5366 65.9897 18.6169 65.8426 18.5767 65.7489C18.5366 65.6552 18.6169 65.4947 18.7507 65.3876C18.9782 65.2137 18.9782 65.2137 18.7908 65.4679C18.6035 65.7221 18.6035 65.7221 18.8176 65.5482C18.9514 65.4545 19.0317 65.3207 18.9916 65.2672C18.9514 65.2003 19.0585 65.013 19.2191 64.8391C19.4198 64.625 19.46 64.6116 19.3262 64.7989C19.1254 65.0665 19.1254 65.0665 19.4198 64.8257C19.5804 64.6785 19.6875 64.5046 19.6473 64.4109C19.6072 64.3172 19.7276 64.1299 19.8882 63.9827C20.196 63.7285 20.196 63.7285 19.9953 63.9961C19.8079 64.237 19.8079 64.2504 20.0221 64.0764C20.1559 63.9827 20.2228 63.849 20.196 63.7821C19.9953 63.4743 26.3521 56.9449 28.9617 54.7507C33.1372 51.2451 37.0449 48.6628 41.4211 46.4819C43.7095 45.3446 44.5527 44.9834 44.4188 45.1974C44.2984 45.3848 45.4761 45.358 46.4262 45.1439C46.8679 45.0503 48.166 44.7158 49.3035 44.4214C52.2477 43.632 54.5496 43.244 59.2068 42.7088C63.69 42.2004 65.7376 41.8792 67.571 41.3842C71.0104 40.4476 73.5263 38.9491 74.9048 37.009C75.5605 36.0858 76.1092 34.9351 75.9888 34.7478C75.9486 34.6809 75.9754 34.6274 76.0423 34.6274C76.1226 34.6274 76.1628 34.5471 76.1628 34.4534C76.1494 34.3731 76.2564 33.838 76.3903 33.2894C77.2334 29.824 76.0289 24.258 73.2988 19.1201C72.5762 17.742 72.2014 17.1131 70.8498 14.959C70.4617 14.3301 70.2342 13.902 70.3546 13.9956C70.4885 14.1161 70.5821 14.1294 70.649 14.0224C70.7963 13.7816 71.6929 13.8752 72.3888 14.2097C73.0446 14.5174 75.1189 15.8688 76.6713 17.0061C77.7151 17.7688 80.6995 19.9363 82.7738 21.4348C113.661 43.7926 124.836 53.1718 134.485 64.8658C137.242 68.1974 140.28 72.1712 144.897 78.4865C145.766 79.6773 146.529 80.6273 146.596 80.5871C146.663 80.547 146.757 80.5871 146.81 80.6674C146.864 80.7745 146.85 80.7878 146.757 80.7343C146.516 80.5871 146.569 80.7745 146.877 81.2026C147.024 81.4167 147.198 81.5639 147.265 81.5237C147.332 81.4836 147.426 81.5237 147.479 81.604C147.533 81.7111 147.52 81.7244 147.426 81.6709C147.185 81.5237 147.239 81.8047 147.493 82.0054C147.68 82.166 147.707 82.166 147.6 82.0054C147.533 81.885 147.546 81.8448 147.64 81.9118C147.72 81.9653 147.761 82.0857 147.72 82.1793C147.68 82.273 147.761 82.4336 147.894 82.5406C148.108 82.7012 148.122 82.7012 148.001 82.5272C147.934 82.4068 148.001 82.4737 148.162 82.661C148.336 82.8483 148.456 83.0892 148.43 83.1962C148.416 83.3033 148.47 83.3969 148.55 83.3969C148.63 83.3969 149.567 84.6011 150.611 86.0729C154.653 91.7192 156.888 94.5022 156.995 94.0205C157.102 93.5522 155.603 90.5016 153.181 86.2736C142.996 68.5185 128.061 50.5628 111.935 36.6879C104.695 30.4662 97.709 25.2481 80.1508 12.9921C75.5204 9.75423 70.1807 6.00786 68.3071 4.65649C63.1547 0.977036 61.5755 0.107346 59.809 0.0136871C59.0462 -0.0264435 58.7652 0.0136871 58.3101 0.24115ZM71.8 135.204C71.9739 135.418 71.9606 135.431 71.7598 135.257C71.626 135.164 71.5189 135.057 71.5189 135.03C71.5189 134.923 71.626 134.99 71.8 135.204ZM73.0044 136.14C73.1784 136.354 73.165 136.368 72.9643 136.194C72.8304 136.1 72.7234 135.993 72.7234 135.966C72.7234 135.859 72.8304 135.926 73.0044 136.14ZM89.4518 150.296C89.6258 150.483 89.7329 150.631 89.6927 150.631C89.666 150.631 89.492 150.483 89.318 150.296C89.144 150.109 89.037 149.962 89.0771 149.962C89.1039 149.962 89.2779 150.109 89.4518 150.296ZM91.2585 151.969C91.7001 152.41 92.0213 152.771 91.9812 152.771C91.9544 152.771 91.5663 152.41 91.1247 151.969C90.683 151.527 90.3619 151.166 90.402 151.166C90.4288 151.166 90.8169 151.527 91.2585 151.969Z" fill="#004E86"/>
<path d="M73.1705 116.212C73.5485 116.516 74.6286 116.992 78.1793 118.421C81.838 119.902 84.9297 121.304 87.5759 122.693C90.2086 124.069 93.2192 125.815 93.1517 125.934C93.1112 125.987 93.1922 126.013 93.3273 126C93.4488 126 93.5433 126.053 93.5298 126.146C93.5028 126.238 93.5703 126.278 93.6783 126.238C93.7863 126.198 93.9078 126.238 93.9753 126.331C94.0428 126.437 94.0158 126.463 93.8943 126.384C93.7863 126.317 93.7458 126.331 93.8133 126.423C93.8673 126.503 94.0023 126.529 94.1238 126.489C94.2858 126.423 94.3128 126.45 94.2318 126.582C94.1643 126.701 94.1778 126.728 94.2723 126.661C94.5423 126.503 99.4836 129.77 108.057 135.749C113.106 139.28 115.698 141 115.928 141C116.657 141 111.756 136.529 106.45 132.349C97.4585 125.272 89.6685 120.881 80.8254 117.931C78.0038 116.992 74.183 116 73.4 116C72.9139 116.013 72.9139 116.013 73.1705 116.212Z" fill="#004E86"/>
<path d="M62.7103 9.23087C61.2783 9.96095 60.281 12.1 59.4755 16.1348C59.0024 18.53 58.7211 20.5026 58.0051 26.3306C57.3146 32.1201 57.289 32.3122 57.1995 32.2226C57.1612 32.1842 57.0333 32.2994 56.9182 32.4659L56.7137 32.7862L52.0595 30.8008C35.8468 23.8841 29.2492 21.5913 27.1395 22.1677C26.1421 22.4367 25.912 23.218 26.3211 25.0881C26.4362 25.6261 26.5385 26.2025 26.5385 26.3562C26.5513 26.4971 26.6024 26.5995 26.6664 26.5611C26.7175 26.5227 26.7303 26.5995 26.6919 26.7404C26.5513 27.1887 28.2646 31.7487 28.5204 31.595C28.5587 31.5565 29.0318 32.5044 29.556 33.67C30.8091 36.5007 33.5325 41.9444 34.6705 43.9426C36.3199 46.8118 38.7748 50.3726 38.9794 50.1676C39.0177 50.142 38.4807 49.1686 37.7903 48.0158C36.3199 45.5437 34.6577 42.3543 33.8521 40.4842C32.5863 37.487 31.4612 33.6443 31.0136 30.7624C30.8091 29.379 30.8091 29.3022 31.0264 28.9051C31.8064 27.5474 33.0594 27.1887 34.7088 27.8804C36.9847 28.8283 46.8939 33.7981 50.1416 35.6169C53.9902 37.7688 55.1665 38.6654 55.6524 39.8054C55.8953 40.3689 55.8953 40.433 55.7036 41.1119C54.898 43.917 53.9135 45.5565 51.7654 47.6059C50.1544 49.143 48.4027 50.4238 41.9585 54.7788C36.7034 58.3396 34.6705 59.7742 32.1132 61.7212C25.8992 66.4604 22.3447 70.4183 20.0304 75.1319C18.023 79.2179 17.3709 82.4073 17.1535 89.2215C16.949 95.3313 16.6165 97.8931 15.5553 101.48C14.1744 106.155 12.2181 110.51 9.78875 114.34C7.28268 118.297 6.97581 119.028 7.00138 120.923C7.01417 121.769 7.10367 122.383 7.28268 122.934C7.42332 123.383 7.48725 123.716 7.43611 123.677C7.21875 123.549 7.85805 125.189 8.51014 126.482C9.5586 128.544 11.4509 131.221 12.6273 132.336C12.9086 132.592 13.6118 133.181 14.1872 133.655C15.2356 134.475 15.6959 134.731 15.3507 134.27C15.21 134.091 15.2228 134.103 15.4658 134.296C15.7598 134.552 15.8493 134.705 15.5936 134.552C15.5041 134.501 15.4913 134.513 15.5425 134.603C15.5936 134.693 15.7598 134.821 15.9133 134.91C16.1818 135.051 16.1818 135.038 16.0028 134.821C15.8238 134.59 15.8366 134.59 16.1434 134.821C16.3352 134.962 16.4631 135.115 16.4375 135.154C16.4119 135.192 16.4631 135.231 16.5526 135.231C16.6421 135.231 17.1024 135.461 17.5755 135.756C18.0486 136.038 19.2632 136.601 20.2605 136.998C22.4981 137.908 23.0223 138.241 25.2727 140.175C27.2417 141.866 27.4207 142.019 27.1267 141.866C26.9988 141.789 27.0244 141.866 27.1906 142.07C28.8911 144.158 32.2411 145.747 35.8212 146.182C37.2405 146.349 39.7977 146.246 40.8078 145.977L41.511 145.798L40.5521 145.759C39.8616 145.747 40.1301 145.708 41.511 145.631C45.2318 145.452 50.4101 144.594 54.2843 143.531C56.036 143.057 56.3556 142.993 55.6396 143.287C55.3583 143.403 55.3072 143.441 55.5118 143.403C55.6908 143.377 56.3556 143.3 56.9822 143.262C58.5037 143.146 59.6928 143.364 60.9203 143.953C61.4445 144.21 61.8537 144.376 61.8153 144.299C61.6235 143.966 62.0838 144.543 63.0811 145.9C64.8967 148.36 67.211 151.754 71.8268 158.696C76.3019 165.434 76.7878 166.125 76.9412 165.984C77.0947 165.818 76.5832 164.588 75.2151 161.809C72.1209 155.558 68.3106 149.256 64.4876 144.056L63.0811 142.147L63.4519 141.533C63.8994 140.815 64.5515 140.213 65.5616 139.56C66.6996 138.83 68.2978 137.562 68.2339 137.447C68.1956 137.382 68.2339 137.293 68.3106 137.242C68.4129 137.178 68.4257 137.203 68.3618 137.318C68.2851 137.447 68.3106 137.472 68.5024 137.395C70.0495 136.768 72.5173 136.716 73.668 137.293L74.205 137.549L73.9621 137.28C73.8342 137.139 74.0644 137.267 74.4735 137.562C75.279 138.177 75.4964 138.458 74.7292 137.895L74.2434 137.562L74.6397 137.92C74.8571 138.113 76.4681 139.483 78.2198 140.969C80.9816 143.313 82.6438 144.735 84.0887 146.016C84.306 146.195 85.3673 147.13 86.4541 148.078C87.5409 149.026 88.6405 149.986 88.8834 150.204C91.0571 152.164 94.8162 155.315 94.9312 155.276C94.9824 155.264 96.7213 156.826 98.7926 158.76C105.019 164.575 106.656 165.997 106.656 165.587C106.656 164.64 97.9104 154.815 92.1183 149.295C85.6997 143.146 81.3652 139.598 74.7804 135.077L72.773 133.694L73.8342 132.528C75.458 130.748 75.8544 130.146 75.4325 130.146C75.343 130.146 74.384 130.722 73.31 131.426C72.236 132.131 71.3026 132.707 71.2514 132.707C71.1875 132.707 70.3436 132.221 69.3719 131.644C64.1935 128.519 56.6242 124.702 56.8159 125.304C56.9054 125.573 57.9795 126.341 60.9459 128.263C65.1013 130.94 68.6559 133.322 68.7581 133.489C68.8093 133.578 68.7965 133.604 68.7198 133.565C68.528 133.45 68.1316 134.091 68.2083 134.372C68.2851 134.68 66.4439 135.781 62.9277 137.536L60.3193 138.855L59.4882 137.92C56.3556 134.436 52.1107 130.555 51.9572 131.042C51.8805 131.273 52.6093 132.285 55.3072 135.717C57.7877 138.868 58.3375 139.624 57.9155 139.265C57.7493 139.124 57.6982 139.163 57.6215 139.457C57.5575 139.662 57.5192 139.855 57.532 139.893C57.5575 140.021 55.1282 141.007 53.2742 141.609C49.643 142.813 46.9451 143.326 43.7486 143.428C40.6543 143.531 38.404 143.249 35.2458 142.352C27.945 140.29 16.949 133.873 15.4018 130.76C15.1461 130.261 15.1333 130.107 15.2356 129.492C15.4658 128.083 15.8621 127.187 17.8695 123.575C19.4039 120.834 20.0432 119.45 20.1455 118.707C20.171 118.477 20.3373 117.785 20.4907 117.17C20.7592 116.133 20.772 115.992 20.593 115.505C20.4907 115.223 20.2605 114.877 20.0688 114.737C19.5829 114.365 18.2276 114.314 15.9644 114.583C14.2383 114.775 12.9725 114.762 13.1131 114.544C13.1387 114.493 13.0748 114.34 12.9725 114.199C12.7807 113.942 12.7807 113.942 12.8446 114.237C12.883 114.391 12.8574 114.493 12.7935 114.442C12.5122 114.275 12.6912 113.264 13.2026 112.213C13.8931 110.779 15.3891 108.371 15.5425 108.46C15.6064 108.512 15.6192 108.486 15.5808 108.409C15.5297 108.332 15.5936 108.166 15.6959 108.038C15.811 107.91 15.8493 107.871 15.7982 107.974C15.7343 108.102 15.7598 108.127 15.8621 108.063C15.9516 107.999 15.99 107.884 15.9516 107.781C15.9133 107.679 15.9389 107.615 15.99 107.641C16.2713 107.717 17.9718 105.079 19.0714 102.863C19.9153 101.198 20.7592 98.9946 20.7848 98.4823C20.7848 98.2773 20.8231 98.1236 20.8615 98.1236C20.8998 98.1236 20.9254 97.9956 20.9382 97.829C20.9382 97.6753 21.0533 97.0861 21.1811 96.5225C21.3474 95.7924 21.4113 94.9855 21.4113 93.7046C21.4113 91.7193 21.2834 90.8098 20.4779 87.4155C20.1966 86.2243 19.8898 84.6873 19.813 83.9956C19.5445 81.7669 19.9793 79.6406 21.1939 77.1941C21.9611 75.6571 23.6489 73.1209 23.8279 73.2234C23.9046 73.2747 23.9302 73.2618 23.8918 73.185C23.8406 73.1081 23.9046 72.9416 24.0069 72.8135C24.1219 72.6854 24.1603 72.647 24.1092 72.7495C24.0452 72.8648 24.0708 72.9032 24.1731 72.8391C24.2498 72.7879 24.2882 72.6983 24.2498 72.6342C24.2114 72.583 24.2882 72.4293 24.416 72.2884C24.5311 72.1603 24.5822 72.1347 24.5055 72.2499C24.3904 72.4165 24.4032 72.4165 24.595 72.2756C24.7101 72.1731 24.7868 72.0322 24.7485 71.9425C24.7101 71.8529 24.7868 71.6992 24.9147 71.5967C25.132 71.4302 25.132 71.4302 24.953 71.6736C24.774 71.9169 24.774 71.9169 24.9786 71.7504C25.1065 71.6607 25.1832 71.5327 25.1448 71.4814C25.1065 71.4174 25.2088 71.2381 25.3622 71.0715C25.554 70.8666 25.5923 70.8538 25.4645 71.0331C25.2727 71.2893 25.2727 71.2893 25.554 71.0587C25.7074 70.9178 25.8097 70.7513 25.7713 70.6617C25.733 70.572 25.8481 70.3927 26.0015 70.2518C26.2956 70.0084 26.2956 70.0084 26.1038 70.2646C25.9248 70.4951 25.9248 70.508 26.1294 70.3414C26.2572 70.2518 26.3211 70.1237 26.2956 70.0597C26.1038 69.7651 32.1772 63.5144 34.6705 61.4137C38.6597 58.0578 42.3932 55.5858 46.5743 53.4979C48.7607 52.4092 49.5662 52.0633 49.4384 52.2683C49.3233 52.4476 50.4485 52.422 51.3563 52.217C51.7782 52.1274 53.0185 51.8072 54.1053 51.5254C56.9182 50.7697 59.1174 50.3982 63.567 49.8859C67.8503 49.3991 69.8066 49.0917 71.5583 48.6178C74.8443 47.7212 77.2481 46.2866 78.5651 44.4293C79.1916 43.5455 79.7158 42.444 79.6007 42.2646C79.5624 42.2006 79.588 42.1494 79.6519 42.1494C79.7286 42.1494 79.767 42.0725 79.767 41.9829C79.7542 41.906 79.8565 41.3937 79.9843 40.8685C80.7898 37.551 79.6391 32.2226 77.0307 27.304C76.3403 25.9847 75.9823 25.3827 74.6909 23.3205C74.3201 22.7185 74.1027 22.3086 74.2178 22.3983C74.3457 22.5135 74.4352 22.5264 74.4991 22.4239C74.6397 22.1933 75.4964 22.283 76.1613 22.6032C76.7878 22.8978 78.7696 24.1915 80.2528 25.2802C81.2501 26.0103 84.1014 28.0854 86.0833 29.5199C115.594 50.9234 126.27 59.9023 135.489 71.0972C138.123 74.2865 141.025 78.0907 145.436 84.1365C146.267 85.2765 146.996 86.1859 147.06 86.1475C147.124 86.109 147.214 86.1475 147.265 86.2243C147.316 86.3268 147.303 86.3396 147.214 86.2883C146.983 86.1475 147.035 86.3268 147.329 86.7367C147.469 86.9416 147.635 87.0825 147.699 87.0441C147.763 87.0056 147.853 87.0441 147.904 87.1209C147.955 87.2234 147.942 87.2362 147.853 87.185C147.623 87.0441 147.674 87.313 147.917 87.5052C148.096 87.6589 148.121 87.6589 148.019 87.5052C147.955 87.3899 147.968 87.3515 148.057 87.4155C148.134 87.4668 148.172 87.582 148.134 87.6717C148.096 87.7614 148.172 87.9151 148.3 88.0175C148.505 88.1712 148.518 88.1712 148.403 88.0047C148.339 87.8894 148.403 87.9535 148.556 88.1328C148.722 88.3121 148.837 88.5427 148.812 88.6452C148.799 88.7476 148.85 88.8373 148.927 88.8373C149.004 88.8373 149.899 89.9901 150.896 91.399C154.757 96.8043 156.893 99.4686 156.995 99.0074C157.097 98.5591 155.665 95.6387 153.351 91.5912C143.621 74.594 129.351 57.4046 113.944 44.1219C107.027 38.1658 100.353 33.1704 83.5772 21.4376C79.1532 18.3379 74.0516 14.7514 72.2615 13.4577C67.3389 9.93535 65.8301 9.10277 64.1424 9.01311C63.4136 8.97469 63.1451 9.01311 62.7103 9.23087ZM75.5987 138.433C75.7649 138.638 75.7521 138.651 75.5603 138.484C75.4325 138.394 75.3302 138.292 75.3302 138.266C75.3302 138.164 75.4325 138.228 75.5987 138.433ZM76.7494 139.329C76.9157 139.534 76.9029 139.547 76.7111 139.381C76.5832 139.291 76.4809 139.189 76.4809 139.163C76.4809 139.06 76.5832 139.124 76.7494 139.329ZM92.4635 152.881C92.6298 153.06 92.732 153.201 92.6937 153.201C92.6681 153.201 92.5019 153.06 92.3357 152.881C92.1695 152.702 92.0672 152.561 92.1055 152.561C92.1311 152.561 92.2973 152.702 92.4635 152.881ZM94.1897 154.482C94.6116 154.905 94.9185 155.251 94.8801 155.251C94.8545 155.251 94.4837 154.905 94.0618 154.482C93.6399 154.059 93.333 153.714 93.3713 153.714C93.3969 153.714 93.7677 154.059 94.1897 154.482Z" fill="#3C3C3C"/>
<path d="M38.9683 82.0219C35.9014 82.3522 32.9359 82.9996 31.8206 83.5809C30.7307 84.1623 30.7307 84.6643 31.7953 86.0252C32.0487 86.3555 32.1755 86.5669 32.0868 86.5141C31.96 86.4348 31.9474 86.5008 32.0107 86.7915C32.1375 87.3596 32.2262 87.5182 33.823 89.9889C35.9901 93.3712 36.9913 94.4018 38.5755 94.8378C39.9695 95.2209 41.617 94.9303 43.6574 93.9129C45.419 93.0541 46.5723 92.2085 47.7762 90.9402C49.5632 89.0772 51.3374 86.0913 51.1473 85.2985C51.0206 84.77 52.1992 83.9641 53.6693 83.5809C54.4043 83.396 53.9481 83.1846 51.9584 82.8146C48.8915 82.2333 46.9778 82.0483 43.2139 82.0087C41.1608 81.9955 39.2471 81.9955 38.9683 82.0219Z" fill="#3C3C3C"/>
<path d="M57.1625 120.203C57.523 120.495 58.5528 120.952 61.9384 122.324C65.4269 123.746 68.3748 125.092 70.8979 126.425C73.4082 127.746 76.2788 129.422 76.2145 129.537C76.1758 129.587 76.2531 129.613 76.3818 129.6C76.4977 129.6 76.5878 129.651 76.5749 129.74C76.5491 129.829 76.6135 129.867 76.7165 129.829C76.8195 129.79 76.9353 129.829 76.9997 129.917C77.0641 130.019 77.0383 130.044 76.9225 129.968C76.8195 129.905 76.7809 129.917 76.8452 130.006C76.8967 130.083 77.0254 130.108 77.1413 130.07C77.2958 130.006 77.3215 130.032 77.2443 130.159C77.1799 130.273 77.1928 130.298 77.2829 130.235C77.5404 130.083 82.2519 133.219 90.4262 138.959C95.2406 142.349 97.7122 144 97.9311 144C98.6262 144 93.9533 139.708 88.8943 135.695C80.3209 128.902 72.8932 124.686 64.4615 121.854C61.771 120.952 58.128 120 57.3814 120C56.9179 120.013 56.9179 120.013 57.1625 120.203Z" fill="#425466"/>
</svg>
